SplineFontDB: 3.2
FontName: BroshK
FullName: BroshK
FamilyName: BroshK
Weight: Medium
Copyright: Created by gluk (www.glukfonts.pl)
Version: 0.60
ItalicAngle: 0
UnderlinePosition: -113.664
UnderlineWidth: 37.888
Ascent: 748
Descent: 276
InvalidEm: 0
sfntRevision: 0x00009999
LayerCount: 2
Layer: 0 0 "Back" 1
Layer: 1 0 "Fore" 0
XUID: [1021 824 -1462763149 28109]
StyleMap: 0x0040
FSType: 8
OS2Version: 4
OS2_WeightWidthSlopeOnly: 0
OS2_UseTypoMetrics: 1
CreationTime: 1364484422
ModificationTime: 1742064167
PfmFamily: 17
TTFWeight: 500
TTFWidth: 5
LineGap: 100
VLineGap: 0
Panose: 2 0 6 3 0 0 0 0 0 0
OS2TypoAscent: 748
OS2TypoAOffset: 0
OS2TypoDescent: -276
OS2TypoDOffset: 0
OS2TypoLinegap: 100
OS2WinAscent: 803
OS2WinAOffset: 0
OS2WinDescent: 298
OS2WinDOffset: 0
HheadAscent: 803
HheadAOffset: 0
HheadDescent: -298
HheadDOffset: 0
OS2SubXSize: 666
OS2SubYSize: 717
OS2SubXOff: 0
OS2SubYOff: 143
OS2SupXSize: 666
OS2SupYSize: 717
OS2SupXOff: 0
OS2SupYOff: 492
OS2StrikeYSize: 50
OS2StrikeYPos: 264
OS2CapHeight: 537
OS2XHeight: 537
OS2Vendor: 'gluk'
OS2CodePages: 00000093.00000000
OS2UnicodeRanges: 2000006f.00000002.00000000.00000000
Lookup: 258 0 0 "'kern' Horizontal Kerning in Latin lookup 0" { "'kern' Horizontal Kerning in Latin lookup 0 subtable"  } ['kern' ('DFLT' <'dflt' > 'latn' <'dflt' > ) ]
MarkAttachClasses: 1
DEI: 91125
KernClass2: 37 36 "'kern' Horizontal Kerning in Latin lookup 0 subtable"
 211 A a Agrave Aacute Acircumflex Atilde Adieresis Aring agrave aacute acircumflex atilde adieresis aring Amacron amacron Abreve abreve Aogonek aogonek uni01CD uni01CE uni0200 uni0201 uni0202 uni0203 uni0226 uni0227
 100 C c Ccedilla ccedilla Cacute cacute Ccircumflex ccircumflex Cdotaccent cdotaccent Ccaron ccaron Euro

StartChar: .notdef
Encoding: 65536 -1 0
Width: 460
GlyphClass: 1
Flags: HW
LayerCount: 2
Fore
SplineSet
230 324 m 1
 176 378 l 1
 122 324 l 1
 176 268 l 1
 123 215 l 1
 177 161 l 1
 230 214 l 1
 285 160 l 1
 339 214 l 1
 285 268 l 1
 338 323 l 1
 284 377 l 1
 230 324 l 1
46 31 m 1
 46 507 l 1
 415 507 l 1
 415 31 l 1
 46 31 l 1
EndSplineSet
Validated: 1
EndChar

StartChar: exclam
Encoding: 33 33 2
Width: 181
GlyphClass: 2
Flags: HW
LayerCount: 2
Fore
SplineSet
27 -4 m 1
 27 123 l 1
 156 123 l 1
 156 -4 l 1
 27 -4 l 1
15 538 m 1
 166 538 l 1
 162 384 l 1
 145 169 l 1
 35 169 l 1
 20 384 l 1
 15 538 l 1
EndSplineSet
Validated: 1
EndChar

StartChar: quotedbl
Encoding: 34 34 3
Width: 311
GlyphClass: 2
Flags: HW
LayerCount: 2
Fore
SplineSet
12 375 m 1
 23 483 l 1
 23 553 l 1
 150 553 l 1
 150 476 l 2
 150 472 147 463 145 459 c 2
 106 354 l 1
 12 375 l 1
166 375 m 1
 176 483 l 1
 176 553 l 1
 303 553 l 1
 303 476 l 2
 303 472 301 463 299 459 c 2
 260 354 l 1
 166 375 l 1
EndSplineSet
Validated: 1
EndChar

StartChar: numbersign
Encoding: 35 35 4
Width: 440
GlyphClass: 2
Flags: HW
LayerCount: 2
Fore
SplineSet
12 120 m 1
 12 230 l 1
 66 230 l 1
 66 120 l 1
 12 120 l 1
375 307 m 1
 375 418 l 1
 428 418 l 1
 428 307 l 1
 375 307 l 1
207 120 m 1
 207 230 l 1
 422 230 l 1
 422 120 l 1
 207 120 l 1
18 307 m 1
 18 418 l 1
 233 418 l 1
 233 307 l 1
 18 307 l 1
358 31 m 1
 248 31 l 1
 248 104 l 1
 358 104 l 1
 358 31 l 1
193 433 m 1
 82 433 l 1
 82 508 l 1
 193 508 l 1
 193 433 l 1
358 246 m 1
 248 246 l 1
 248 516 l 1
 358 516 l 1
 358 246 l 1
193 20 m 1
 82 20 l 1
 82 292 l 1
 193 292 l 1
 193 20 l 1
EndSplineSet
Validated: 1
EndChar

StartChar: dollar
Encoding: 36 36 5
Width: 448
GlyphClass: 2
Flags: HW
LayerCount: 2
Fore
SplineSet
281 185 m 1
 281 -108 l 1
 188 -108 l 1
 188 215 l 1
 226 204 261 196 281 185 c 1
188 379 m 1
 188 645 l 1
 281 645 l 1
 281 349 l 1
 243 361 207 370 188 379 c 1
297 403 m 1
 297 529 l 1
 343 516 382 491 409 457 c 1
 317 383 l 1
 312 390 306 397 297 403 c 1
174 115 m 1
 174 0 l 1
 107 9 43 39 9 82 c 1
 100 155 l 1
 109 143 138 124 174 115 c 1
297 6 m 1
 297 129 l 1
 309 138 315 150 315 163 c 0
 315 196 268 209 215 224 c 0
 133 247 33 275 33 391 c 0
 33 467 88 524 174 538 c 1
 174 419 l 1
 164 413 157 404 157 395 c 0
 157 372 195 360 242 346 c 0
 325 319 439 286 439 166 c 0
 439 86 385 28 297 6 c 1
EndSplineSet
Validated: 1
EndChar

StartChar: percent
Encoding: 37 37 6
Width: 630
GlyphClass: 2
Flags: HW
LayerCount: 2
Fore
SplineSet
61 55 m 1
 512 539 l 1
 567 481 l 1
 119 -2 l 1
 61 55 l 1
6 426 m 0
 6 506 72 571 152 571 c 0
 227 571 289 513 297 440 c 1
 191 440 l 1
 185 457 170 470 152 470 c 0
 129 470 111 451 111 426 c 0
 111 401 129 381 152 381 c 0
 175 381 194 401 194 426 c 1
 298 426 l 1
 298 346 232 280 152 280 c 0
 72 280 6 346 6 426 c 0
330 113 m 0
 330 193 396 258 476 258 c 0
 551 258 614 200 622 127 c 1
 515 127 l 1
 509 144 494 157 476 157 c 0
 453 157 434 138 434 113 c 0
 434 88 453 68 476 68 c 0
 499 68 518 88 518 113 c 1
 623 113 l 1
 623 33 556 -34 476 -34 c 0
 396 -34 330 33 330 113 c 0
EndSplineSet
Validated: 1
EndChar

StartChar: ampersand
Encoding: 38 38 7
Width: 463
GlyphClass: 2
Flags: HW
LayerCount: 2
Fore
SplineSet
377 501 m 1
 377 206 l 2
 377 161 402 115 451 115 c 2
 461 115 l 1
 444 0 l 1
 350 0 264 99 264 200 c 2
 264 402 l 1
 377 501 l 1
253 159 m 1
 261 120 280 82 307 52 c 1
 275 18 231 0 182 0 c 0
 86 0 9 72 9 162 c 0
 9 220 54 268 113 291 c 1
 74 311 47 346 47 387 c 0
 47 459 114 516 195 516 c 0
 242 516 282 500 312 466 c 1
 250 411 l 1
 239 416 226 418 213 418 c 0
 189 418 170 402 170 385 c 0
 170 362 191 344 211 344 c 2
 249 344 l 1
 249 230 l 1
 211 230 l 2
 169 230 132 205 132 169 c 0
 132 142 154 119 182 119 c 0
 212 119 239 134 253 159 c 1
391 344 m 1
 461 344 l 1
 461 230 l 1
 391 230 l 1
 391 344 l 1
EndSplineSet
Validated: 1
EndChar

StartChar: quotesingle
Encoding: 39 39 8
Width: 157
GlyphClass: 2
Flags: HW
LayerCount: 2
Fore
SplineSet
12 375 m 1
 23 483 l 1
 23 553 l 1
 150 553 l 1
 150 476 l 2
 150 472 147 463 145 459 c 2
 106 354 l 1
 12 375 l 1
EndSplineSet
Validated: 1
EndChar

StartChar: parenleft
Encoding: 40 40 9
Width: 236
GlyphClass: 2
Flags: HW
LayerCount: 2
Fore
SplineSet
132 268 m 1
 132 159 172 84 230 47 c 1
 169 -49 l 1
 67 17 9 136 9 268 c 1
 132 268 l 1
132 285 m 1
 9 285 l 1
 13 411 70 524 169 587 c 1
 230 489 l 1
 175 454 135 385 132 285 c 1
EndSplineSet
Validated: 1
EndChar

StartChar: parenright
Encoding: 41 41 10
Width: 236
GlyphClass: 2
Flags: HW
LayerCount: 2
Fore
SplineSet
104 268 m 1
 104 377 64 452 6 489 c 1
 68 587 l 1
 170 521 227 400 227 268 c 1
 104 268 l 1
227 254 m 1
 223 128 167 14 68 -49 c 1
 6 47 l 1
 61 82 101 154 104 254 c 1
 227 254 l 1
EndSplineSet
Validated: 1
EndChar

StartChar: asterisk
Encoding: 42 42 11
Width: 371
GlyphClass: 2
Flags: HW
LayerCount: 2
Fore
SplineSet
218 420 m 1
 338 488 l 1
 371 390 l 1
 231 375 l 1
 218 420 l 1
190 340 m 1
 230 365 l 1
 332 272 l 1
 248 211 l 1
 190 340 l 1
40 272 m 1
 143 365 l 1
 181 340 l 1
 125 211 l 1
 40 272 l 1
2 390 m 1
 34 488 l 1
 154 420 l 1
 139 375 l 1
 2 390 l 1
133 561 m 1
 238 561 l 1
 209 426 l 1
 163 426 l 1
 133 561 l 1
EndSplineSet
Validated: 1
EndChar

StartChar: plus
Encoding: 43 43 12
Width: 427
GlyphClass: 2
Flags: HW
CounterMasks: 1 00
LayerCount: 2
Fore
SplineSet
151 213 m 1
 6 213 l 1
 6 324 l 1
 151 324 l 1
 151 213 l 1
292 324 m 1
 421 324 l 1
 421 213 l 1
 292 213 l 1
 292 324 l 1
166 61 m 1
 166 476 l 1
 276 476 l 1
 276 61 l 1
 166 61 l 1
EndSplineSet
Validated: 1
EndChar

StartChar: comma
Encoding: 44 44 13
Width: 156
GlyphClass: 2
Flags: HW
LayerCount: 2
Fore
SplineSet
-23 -120 m 1
 12 15 l 1
 12 131 l 1
 147 131 l 1
 147 10 l 2
 147 1 145 -7 141 -15 c 2
 70 -157 l 1
 -23 -120 l 1
EndSplineSet
Validated: 1
EndChar

StartChar: hyphen
Encoding: 45 45 14
Width: 331
GlyphClass: 2
Flags: HW
LayerCount: 2
Fore
SplineSet
6 212 m 1
 6 332 l 1
 326 332 l 1
 326 212 l 1
 6 212 l 1
EndSplineSet
Validated: 1
EndChar

StartChar: period
Encoding: 46 46 15
Width: 153
GlyphClass: 2
Flags: HW
LayerCount: 2
Fore
SplineSet
9 -8 m 1
 9 131 l 1
 144 131 l 1
 144 -8 l 1
 9 -8 l 1
EndSplineSet
Validated: 1
EndChar

StartChar: slash
Encoding: 47 47 16
Width: 340
GlyphClass: 2
Flags: HW
LayerCount: 2
Fore
SplineSet
-14 -34 m 1
 256 618 l 1
 356 574 l 1
 86 -77 l 1
 -14 -34 l 1
EndSplineSet
Validated: 1
EndChar

StartChar: zero
Encoding: 48 48 17
Width: 417
GlyphClass: 2
Flags: HW
LayerCount: 2
Fore
SplineSet
209 427 m 1
 165 427 129 355 129 268 c 0
 129 181 165 111 209 111 c 0
 254 111 291 181 291 268 c 0
 291 345 262 410 224 424 c 1
 224 540 l 1
 327 530 409 411 409 268 c 0
 409 117 320 -3 209 -3 c 0
 98 -3 9 117 9 268 c 0
 9 419 98 541 209 541 c 1
 209 427 l 1
EndSplineSet
Validated: 1
EndChar

StartChar: one
Encoding: 49 49 18
Width: 199
GlyphClass: 2
Flags: HW
LayerCount: 2
Fore
SplineSet
178 538 m 1
 178 436 99 352 3 352 c 1
 3 463 l 1
 45 463 80 496 80 538 c 1
 178 538 l 1
55 344 m 1
 110 360 155 404 178 459 c 1
 178 0 l 1
 55 0 l 1
 55 344 l 1
EndSplineSet
Validated: 1
EndChar

StartChar: two
Encoding: 50 50 19
Width: 362
GlyphClass: 2
Flags: HW
LayerCount: 2
Fore
SplineSet
141 383 m 0
 141 356 161 335 187 335 c 2
 196 335 l 1
 183 301 156 268 119 231 c 1
 60 257 18 315 18 383 c 0
 18 466 85 533 168 540 c 1
 168 420 l 1
 153 414 141 400 141 383 c 0
67 0 m 1
 69 2 l 1
 109 35 159 71 205 111 c 1
 353 111 l 1
 353 0 l 1
 67 0 l 1
182 541 m 1
 271 540 344 471 344 387 c 0
 344 210 177 111 59 14 c 2
 42 0 l 1
 8 0 l 1
 8 114 l 1
 131 215 221 295 221 389 c 0
 221 408 204 423 182 423 c 1
 182 541 l 1
EndSplineSet
Validated: 1
EndChar

StartChar: three
Encoding: 51 51 20
Width: 394
GlyphClass: 2
Flags: HW
LayerCount: 2
Fore
SplineSet
180 -2 m 1
 85 5 9 80 9 172 c 1
 132 172 l 1
 132 146 152 122 180 116 c 1
 180 -2 l 1
195 -3 m 1
 195 114 l 1
 230 114 260 143 260 176 c 0
 260 208 236 233 205 233 c 2
 89 233 l 1
 89 341 l 1
 176 341 l 2
 302 341 383 265 383 172 c 0
 383 76 297 -3 195 -3 c 1
182 430 m 0
 157 430 138 410 138 383 c 1
 22 383 l 1
 22 470 94 541 184 541 c 0
 272 541 344 484 344 410 c 0
 344 378 329 350 305 326 c 1
 278 341 246 350 210 354 c 1
 219 363 225 377 225 389 c 0
 225 412 206 430 182 430 c 0
EndSplineSet
Validated: 1
EndChar

StartChar: four
Encoding: 52 52 21
Width: 384
GlyphClass: 2
Flags: HW
LayerCount: 2
Fore
SplineSet
9 84 m 1
 9 203 l 1
 74 316 l 2
 113 385 144 455 144 538 c 1
 267 538 l 1
 267 426 219 337 163 238 c 2
 76 84 l 1
 9 84 l 1
338 71 m 1
 338 0 l 1
 218 0 l 1
 218 71 l 1
 338 71 l 1
218 215 m 1
 218 254 l 1
 338 458 l 1
 338 215 l 1
 218 215 l 1
94 86 m 1
 159 200 l 1
 378 200 l 1
 378 86 l 1
 94 86 l 1
EndSplineSet
Validated: 1
EndChar

StartChar: five
Encoding: 53 53 22
Width: 380
GlyphClass: 2
Flags: HW
LayerCount: 2
Fore
SplineSet
25 538 m 1
 341 538 l 1
 341 418 l 1
 25 418 l 1
 25 538 l 1
28 248 m 1
 28 402 l 1
 151 402 l 1
 151 248 l 1
 28 248 l 1
372 181 m 0
 372 80 286 -3 178 -3 c 0
 83 -3 6 74 6 169 c 1
 114 169 l 1
 114 139 142 115 178 115 c 0
 219 115 249 144 249 181 c 0
 249 218 218 249 181 249 c 2
 166 249 l 1
 166 360 l 1
 187 360 l 2
 288 360 372 281 372 181 c 0
EndSplineSet
Validated: 1
EndChar

StartChar: six
Encoding: 54 54 23
Width: 402
GlyphClass: 2
Flags: HW
LayerCount: 2
Fore
SplineSet
217 238 m 0
 189 238 165 220 155 194 c 1
 149 214 144 238 144 268 c 0
 144 292 148 315 154 333 c 1
 176 344 198 350 224 350 c 0
 319 350 396 271 396 176 c 0
 396 81 321 5 227 -2 c 1
 227 113 l 1
 254 120 273 146 273 176 c 0
 273 210 250 238 217 238 c 0
249 426 m 1
 249 541 l 1
 298 538 342 519 375 489 c 1
 307 403 l 1
 293 414 273 423 249 426 c 1
212 -3 m 1
 101 -3 9 117 9 268 c 0
 9 419 109 541 233 541 c 1
 233 427 l 1
 176 427 129 355 129 268 c 0
 129 180 166 111 212 111 c 1
 212 -3 l 1
EndSplineSet
Validated: 1
EndChar

StartChar: seven
Encoding: 55 55 24
Width: 369
GlyphClass: 2
Flags: HW
LayerCount: 2
Fore
SplineSet
328 426 m 1
 6 426 l 1
 6 538 l 1
 365 538 l 1
 365 479 l 1
 328 426 l 1
186 410 m 1
 313 410 l 1
 301 393 l 2
 221 283 203 120 203 0 c 1
 80 0 l 1
 80 120 102 282 186 410 c 1
EndSplineSet
Validated: 1
EndChar

StartChar: eight
Encoding: 56 56 25
Width: 408
GlyphClass: 2
Flags: HW
LayerCount: 2
Fore
SplineSet
205 541 m 0
 289 541 358 486 358 418 c 0
 358 382 339 350 308 327 c 0
 304 329 299 332 294 334 c 0
 278 342 249 352 224 364 c 1
 239 373 250 386 250 403 c 0
 250 420 231 436 205 436 c 0
 179 436 158 420 158 403 c 0
 158 367 243 339 287 319 c 0
 352 288 396 237 396 169 c 0
 396 74 311 -3 205 -3 c 1
 205 109 l 1
 245 109 276 141 276 182 c 0
 276 241 193 269 122 305 c 0
 75 329 51 373 51 418 c 0
 51 486 121 541 205 541 c 0
188 -2 m 1
 90 5 12 79 12 169 c 0
 12 225 46 273 98 301 c 1
 103 298 110 295 115 292 c 0
 141 279 165 267 187 256 c 1
 184 255 l 1
 154 240 132 222 132 182 c 0
 132 147 155 118 188 111 c 1
 188 -2 l 1
EndSplineSet
Validated: 1
EndChar

StartChar: nine
Encoding: 57 57 26
Width: 402
GlyphClass: 2
Flags: HW
LayerCount: 2
Fore
SplineSet
186 299 m 0
 214 299 238 318 248 344 c 1
 254 324 258 298 258 268 c 0
 258 244 255 223 249 205 c 1
 227 194 204 187 178 187 c 0
 83 187 6 265 6 360 c 1
 129 360 l 1
 129 326 153 299 186 299 c 0
154 112 m 1
 154 -3 l 1
 105 0 61 17 28 47 c 1
 95 133 l 1
 109 122 130 115 154 112 c 1
7 377 m 1
 15 469 94 541 190 541 c 0
 301 541 393 419 393 268 c 0
 393 117 293 -3 169 -3 c 1
 169 111 l 1
 226 111 273 181 273 268 c 0
 273 356 236 427 190 427 c 0
 161 427 137 406 131 377 c 1
 7 377 l 1
EndSplineSet
Validated: 1
EndChar

StartChar: colon
Encoding: 58 58 27
Width: 162
GlyphClass: 2
Flags: HW
LayerCount: 2
Fore
SplineSet
12 268 m 1
 12 408 l 1
 147 408 l 1
 147 268 l 1
 12 268 l 1
9 -8 m 1
 9 131 l 1
 144 131 l 1
 144 -8 l 1
 9 -8 l 1
EndSplineSet
Validated: 1
EndChar

StartChar: semicolon
Encoding: 59 59 28
Width: 162
GlyphClass: 2
Flags: HW
LayerCount: 2
Fore
SplineSet
12 268 m 1
 12 408 l 1
 147 408 l 1
 147 268 l 1
 12 268 l 1
-23 -120 m 1
 12 15 l 1
 12 131 l 1
 147 131 l 1
 147 10 l 2
 147 1 145 -7 141 -15 c 2
 70 -157 l 1
 -23 -120 l 1
EndSplineSet
Validated: 1
EndChar

StartChar: less
Encoding: 60 60 29
Width: 294
GlyphClass: 2
Flags: HW
LayerCount: 2
Fore
SplineSet
199 74 m 1
 3 270 l 1
 89 356 l 1
 286 162 l 1
 199 74 l 1
180 288 m 1
 100 367 l 1
 205 471 l 1
 286 390 l 1
 180 288 l 1
EndSplineSet
Validated: 1
EndChar

StartChar: equal
Encoding: 61 61 30
Width: 371
GlyphClass: 2
Flags: HW
LayerCount: 2
Fore
SplineSet
9 129 m 1
 9 240 l 1
 362 240 l 1
 362 129 l 1
 9 129 l 1
9 301 m 1
 9 412 l 1
 362 412 l 1
 362 301 l 1
 9 301 l 1
EndSplineSet
Validated: 1
EndChar

StartChar: greater
Encoding: 62 62 31
Width: 294
GlyphClass: 2
Flags: HW
LayerCount: 2
Fore
SplineSet
96 74 m 1
 9 162 l 1
 206 356 l 1
 292 270 l 1
 96 74 l 1
195 367 m 1
 115 288 l 1
 9 390 l 1
 90 471 l 1
 195 367 l 1
EndSplineSet
Validated: 1
EndChar

StartChar: question
Encoding: 63 63 32
Width: 368
GlyphClass: 2
Flags: HW
LayerCount: 2
Fore
SplineSet
190 541 m 1
 273 541 359 492 359 408 c 0
 359 340 324 308 289 282 c 0
 257 258 227 235 227 186 c 2
 227 169 l 1
 111 169 l 1
 111 180 l 2
 111 271 158 312 196 342 c 0
 219 359 238 375 238 398 c 0
 238 416 216 432 190 432 c 1
 190 541 l 1
104 -4 m 1
 104 123 l 1
 233 123 l 1
 233 -4 l 1
 104 -4 l 1
175 541 m 1
 175 431 l 1
 123 426 96 395 88 385 c 1
 3 455 l 1
 42 504 102 537 175 541 c 1
EndSplineSet
Validated: 1
EndChar

StartChar: at
Encoding: 64 64 33
Width: 818
GlyphClass: 2
Flags: HW
LayerCount: 2
Fore
SplineSet
129 268 m 1
 129 106 254 -25 409 -25 c 0
 466 -25 515 -13 565 15 c 1
 610 -92 l 1
 557 -126 480 -144 409 -144 c 0
 173 -144 6 55 6 268 c 1
 129 268 l 1
6 285 m 1
 14 493 180 682 409 682 c 0
 630 682 813 510 813 299 c 0
 813 158 742 63 641 63 c 0
 606 63 574 83 550 117 c 1
 574 146 592 180 600 218 c 1
 609 196 625 182 645 182 c 0
 670 182 690 210 690 299 c 0
 690 444 565 562 409 562 c 0
 259 562 136 440 129 285 c 1
 6 285 l 1
453 323 m 1
 439 347 414 362 387 362 c 0
 343 362 307 320 307 268 c 0
 307 217 343 176 387 176 c 0
 431 176 467 217 467 268 c 2
 470 479 l 1
 590 470 l 1
 590 268 l 2
 590 150 499 55 387 55 c 0
 273 55 184 153 184 268 c 0
 184 383 273 482 387 482 c 0
 411 482 435 477 455 468 c 1
 454 420 454 371 453 323 c 1
EndSplineSet
Validated: 1
EndChar

StartChar: A
Encoding: 65 65 34
Width: 519
GlyphClass: 2
Flags: HW
LayerCount: 2
Fore
SplineSet
333 538 m 1
 334 538 l 1
 518 0 l 1
 387 0 l 1
 267 347 l 1
 333 538 l 1
170 111 m 1
 132 0 l 1
 2 0 l 1
 186 538 l 1
 316 538 l 1
 207 218 l 1
 295 218 l 1
 333 111 l 1
 170 111 l 1
EndSplineSet
Validated: 1
EndChar

StartChar: B
Encoding: 66 66 35
Width: 455
GlyphClass: 2
Flags: HW
LayerCount: 2
Fore
SplineSet
271 354 m 1
 280 363 287 377 287 389 c 0
 287 411 269 428 250 428 c 2
 18 428 l 1
 18 538 l 1
 270 538 l 2
 344 538 406 480 406 408 c 0
 406 377 392 348 368 325 c 1
 341 340 308 350 271 354 c 1
444 172 m 0
 444 77 365 0 270 0 c 2
 160 0 l 1
 160 120 l 1
 270 120 l 2
 298 120 322 143 322 176 c 0
 322 208 298 233 270 233 c 2
 224 233 l 1
 160 233 l 1
 160 341 l 1
 221 341 l 1
 238 341 l 2
 364 341 444 265 444 172 c 0
22 -3 m 1
 22 414 l 1
 144 414 l 1
 144 -3 l 1
 22 -3 l 1
EndSplineSet
Validated: 1
EndChar

StartChar: C
Encoding: 67 67 36
Width: 443
GlyphClass: 2
Flags: HW
LayerCount: 2
Fore
SplineSet
135 268 m 1
 135 183 187 115 249 115 c 0
 286 115 317 129 339 158 c 1
 432 82 l 1
 391 30 329 -3 249 -3 c 0
 117 -3 9 117 9 268 c 1
 135 268 l 1
339 380 m 1
 317 409 286 422 249 422 c 0
 190 422 142 363 136 285 c 1
 9 285 l 1
 16 428 121 541 249 541 c 0
 329 541 391 509 432 457 c 1
 339 380 l 1
EndSplineSet
Validated: 1
EndChar

StartChar: D
Encoding: 68 68 37
Width: 452
GlyphClass: 2
Flags: HW
LayerCount: 2
Fore
SplineSet
22 -3 m 1
 22 402 l 1
 144 402 l 1
 144 -3 l 1
 22 -3 l 1
160 120 m 1
 175 120 l 2
 254 120 317 186 317 268 c 0
 317 350 254 418 175 418 c 2
 18 418 l 1
 18 538 l 1
 175 538 l 2
 325 538 444 418 444 268 c 0
 444 118 325 0 175 0 c 2
 160 0 l 1
 160 120 l 1
EndSplineSet
Validated: 1
EndChar

StartChar: E
Encoding: 69 69 38
Width: 375
GlyphClass: 2
Flags: HW
LayerCount: 2
Fore
SplineSet
22 135 m 1
 22 402 l 1
 144 402 l 1
 144 135 l 1
 22 135 l 1
160 332 m 1
 329 332 l 1
 329 212 l 1
 160 212 l 1
 160 332 l 1
18 120 m 1
 367 120 l 1
 367 0 l 1
 18 0 l 1
 18 120 l 1
18 538 m 1
 367 538 l 1
 367 418 l 1
 18 418 l 1
 18 538 l 1
EndSplineSet
Validated: 1
EndChar

StartChar: F
Encoding: 70 70 39
Width: 375
GlyphClass: 2
Flags: HW
LayerCount: 2
Fore
SplineSet
22 0 m 1
 22 402 l 1
 144 402 l 1
 144 0 l 1
 22 0 l 1
160 313 m 1
 352 313 l 1
 352 194 l 1
 160 194 l 1
 160 313 l 1
18 538 m 1
 367 538 l 1
 367 418 l 1
 18 418 l 1
 18 538 l 1
EndSplineSet
Validated: 1
EndChar

StartChar: G
Encoding: 71 71 40
Width: 463
GlyphClass: 2
Flags: HW
CounterMasks: 1 00
LayerCount: 2
Fore
SplineSet
326 82 m 1
 326 200 l 1
 449 200 l 1
 449 -4 l 1
 326 82 l 1
455 215 m 1
 229 215 l 1
 229 323 l 1
 455 323 l 1
 455 215 l 1
339 380 m 1
 317 409 286 422 249 422 c 0
 190 422 142 363 136 285 c 1
 9 285 l 1
 16 428 121 541 249 541 c 0
 329 541 391 509 432 457 c 1
 339 380 l 1
135 268 m 1
 135 183 187 115 249 115 c 0
 272 115 293 120 310 131 c 1
 310 74 l 1
 373 30 l 1
 338 10 297 -3 249 -3 c 0
 117 -3 9 117 9 268 c 1
 135 268 l 1
EndSplineSet
Validated: 1
EndChar

StartChar: H
Encoding: 72 72 41
Width: 442
GlyphClass: 2
Flags: HW
LayerCount: 2
Fore
SplineSet
144 0 m 1
 22 0 l 1
 22 197 l 1
 144 197 l 1
 144 0 l 1
283 212 m 1
 18 212 l 1
 18 332 l 1
 283 332 l 1
 283 212 l 1
144 347 m 1
 22 347 l 1
 22 538 l 1
 144 538 l 1
 144 347 l 1
298 538 m 1
 421 538 l 1
 421 0 l 1
 298 0 l 1
 298 538 l 1
EndSplineSet
Validated: 1
EndChar

StartChar: I
Encoding: 73 73 42
Width: 165
GlyphClass: 2
Flags: HW
LayerCount: 2
Fore
SplineSet
22 0 m 1
 22 538 l 1
 144 538 l 1
 144 0 l 1
 22 0 l 1
EndSplineSet
Validated: 1
EndChar

StartChar: J
Encoding: 74 74 43
Width: 393
GlyphClass: 2
Flags: HW
LayerCount: 2
Fore
SplineSet
378 402 m 1
 378 181 l 2
 378 80 293 -3 190 -3 c 0
 110 -3 47 30 6 82 c 1
 100 158 l 1
 117 135 146 115 190 115 c 0
 226 115 255 144 255 181 c 2
 255 402 l 1
 378 402 l 1
381 418 m 1
 20 418 l 1
 20 538 l 1
 381 538 l 1
 381 418 l 1
EndSplineSet
Validated: 1
EndChar

StartChar: K
Encoding: 75 75 44
Width: 457
GlyphClass: 2
Flags: HW
LayerCount: 2
Fore
SplineSet
158 329 m 1
 219 329 l 1
 455 0 l 1
 297 0 l 1
 162 221 l 1
 158 221 l 1
 158 329 l 1
22 0 m 1
 22 538 l 1
 144 538 l 1
 144 0 l 1
 22 0 l 1
267 288 m 1
 227 344 l 1
 168 344 l 1
 295 538 l 1
 449 538 l 1
 267 288 l 1
EndSplineSet
Validated: 1
EndChar

StartChar: L
Encoding: 76 76 45
Width: 372
GlyphClass: 2
Flags: HW
LayerCount: 2
Fore
SplineSet
22 135 m 1
 22 538 l 1
 144 538 l 1
 144 135 l 1
 22 135 l 1
18 120 m 1
 367 120 l 1
 367 0 l 1
 18 0 l 1
 18 120 l 1
EndSplineSet
Validated: 1
EndChar

StartChar: M
Encoding: 77 77 46
Width: 657
GlyphClass: 2
Flags: HW
LayerCount: 2
Fore
SplineSet
224 538 m 1
 391 0 l 1
 267 0 l 1
 102 538 l 1
 224 538 l 1
22 0 m 1
 22 538 l 1
 87 538 l 1
 141 359 l 1
 141 0 l 1
 22 0 l 1
434 538 m 1
 555 538 l 1
 399 27 l 1
 338 222 l 1
 434 538 l 1
516 357 m 1
 570 538 l 1
 636 538 l 1
 636 0 l 1
 516 0 l 1
 516 357 l 1
EndSplineSet
Validated: 1
EndChar

StartChar: N
Encoding: 78 78 47
Width: 436
GlyphClass: 2
Flags: HW
LayerCount: 2
Fore
SplineSet
162 538 m 1
 397 0 l 1
 274 0 l 1
 154 280 l 1
 154 538 l 1
 162 538 l 1
22 0 m 1
 22 538 l 1
 138 538 l 1
 138 0 l 1
 22 0 l 1
298 266 m 1
 298 538 l 1
 415 538 l 1
 415 0 l 1
 298 266 l 1
EndSplineSet
Validated: 1
EndChar

StartChar: O
Encoding: 79 79 48
Width: 485
GlyphClass: 2
Flags: HW
LayerCount: 2
Fore
SplineSet
227 540 m 1
 227 421 l 1
 175 411 135 346 135 268 c 1
 9 268 l 1
 9 412 105 531 227 540 c 1
350 268 m 0
 350 353 302 422 243 422 c 1
 243 541 l 1
 372 541 476 419 476 268 c 0
 476 117 372 -3 243 -3 c 0
 118 -3 16 111 9 254 c 1
 136 254 l 1
 141 176 188 115 243 115 c 0
 302 115 350 183 350 268 c 0
EndSplineSet
Validated: 1
EndChar

StartChar: P
Encoding: 80 80 49
Width: 452
GlyphClass: 2
Flags: HW
LayerCount: 2
Fore
SplineSet
22 0 m 1
 22 402 l 1
 144 402 l 1
 144 0 l 1
 22 0 l 1
322 346 m 0
 322 386 288 418 252 418 c 2
 18 418 l 1
 18 538 l 1
 252 538 l 2
 358 538 444 452 444 346 c 0
 444 240 358 154 252 154 c 2
 160 154 l 1
 160 273 l 1
 252 273 l 2
 288 273 322 306 322 346 c 0
EndSplineSet
Validated: 1
EndChar

StartChar: Q
Encoding: 81 81 50
Width: 491
GlyphClass: 2
Flags: HW
LayerCount: 2
Fore
SplineSet
354 -108 m 1
 194 207 l 1
 293 261 l 1
 459 -52 l 1
 354 -108 l 1
230 421 m 1
 180 411 141 352 141 281 c 0
 141 211 172 152 214 133 c 1
 278 9 l 1
 268 7 257 6 246 6 c 0
 119 6 15 129 15 281 c 0
 15 418 110 531 230 540 c 1
 230 421 l 1
246 422 m 1
 246 541 l 1
 373 541 476 424 476 281 c 0
 476 203 450 133 406 83 c 1
 338 209 l 1
 345 231 350 255 350 281 c 0
 350 359 303 422 246 422 c 1
EndSplineSet
Validated: 1
EndChar

StartChar: R
Encoding: 82 82 51
Width: 417
GlyphClass: 2
Flags: HW
LayerCount: 2
Fore
SplineSet
190 323 m 2
 298 323 406 243 406 162 c 2
 406 0 l 1
 283 0 l 1
 283 144 l 2
 283 187 249 221 206 221 c 2
 160 221 l 1
 160 323 l 1
 190 323 l 2
22 0 m 1
 22 406 l 1
 144 406 l 1
 144 0 l 1
 22 0 l 1
345 287 m 1
 317 306 285 322 251 330 c 1
 269 340 283 359 283 381 c 0
 283 404 266 421 249 421 c 2
 18 421 l 1
 18 538 l 1
 252 538 l 2
 336 538 406 468 406 384 c 0
 406 341 381 309 345 287 c 1
EndSplineSet
Validated: 1
EndChar

StartChar: S
Encoding: 83 83 52
Width: 448
GlyphClass: 2
Flags: HW
LayerCount: 2
Fore
SplineSet
217 428 m 1
 183 428 157 413 157 395 c 0
 157 363 227 353 298 327 c 0
 369 301 439 260 439 166 c 0
 439 65 350 -3 217 -3 c 1
 217 109 l 1
 276 109 315 130 315 163 c 0
 315 204 245 213 174 236 c 0
 103 259 33 295 33 391 c 0
 33 479 106 541 217 541 c 1
 217 428 l 1
201 110 m 1
 201 -3 l 1
 125 1 48 33 9 82 c 1
 100 155 l 1
 111 141 152 115 201 110 c 1
231 428 m 1
 231 541 l 1
 305 537 370 506 409 457 c 1
 317 383 l 1
 303 401 271 424 231 428 c 1
EndSplineSet
Validated: 1
EndChar

StartChar: T
Encoding: 84 84 53
Width: 421
GlyphClass: 2
Flags: HW
LayerCount: 2
Fore
SplineSet
274 409 m 1
 274 0 l 1
 150 0 l 1
 150 409 l 1
 274 409 l 1
6 424 m 1
 6 538 l 1
 416 538 l 1
 416 424 l 1
 6 424 l 1
EndSplineSet
Validated: 1
EndChar

StartChar: U
Encoding: 85 85 54
Width: 414
GlyphClass: 2
Flags: HW
LayerCount: 2
Fore
SplineSet
209 0 m 1
 103 0 15 87 15 193 c 2
 15 538 l 1
 138 538 l 1
 138 193 l 2
 138 157 170 120 209 120 c 1
 209 0 l 1
224 1 m 1
 224 122 l 1
 257 130 281 162 281 193 c 2
 281 538 l 1
 399 538 l 1
 399 193 l 2
 399 93 322 9 224 1 c 1
EndSplineSet
Validated: 1
EndChar

StartChar: V
Encoding: 86 86 55
Width: 519
GlyphClass: 2
Flags: HW
LayerCount: 2
Fore
SplineSet
2 538 m 1
 132 538 l 1
 324 0 l 1
 195 0 l 1
 2 538 l 1
390 538 m 1
 518 538 l 1
 332 23 l 1
 269 198 l 1
 390 538 l 1
EndSplineSet
Validated: 1
EndChar

StartChar: W
Encoding: 87 87 56
Width: 768
GlyphClass: 2
Flags: HW
LayerCount: 2
Fore
SplineSet
280 0 m 1
 156 0 l 1
 2 538 l 1
 133 538 l 1
 280 0 l 1
610 0 m 1
 552 214 l 1
 641 538 l 1
 766 538 l 1
 612 0 l 1
 610 0 l 1
455 509 m 1
 594 0 l 1
 475 0 l 1
 393 293 l 1
 455 509 l 1
295 1 m 1
 236 222 l 1
 323 538 l 1
 446 538 l 1
 295 1 l 1
EndSplineSet
Validated: 1
EndChar

StartChar: X
Encoding: 88 88 57
Width: 513
GlyphClass: 2
Flags: HW
LayerCount: 2
Fore
SplineSet
14 538 m 1
 162 538 l 1
 293 329 l 1
 507 0 l 1
 359 0 l 1
 219 233 l 1
 14 538 l 1
335 294 m 1
 306 337 l 1
 265 401 l 1
 352 538 l 1
 500 538 l 1
 335 294 l 1
179 266 m 1
 207 225 l 1
 248 157 l 1
 154 0 l 1
 6 0 l 1
 179 266 l 1
EndSplineSet
Validated: 1
EndChar

StartChar: Y
Encoding: 89 89 58
Width: 503
GlyphClass: 2
Flags: HW
LayerCount: 2
Fore
SplineSet
2 538 m 1
 144 538 l 1
 313 231 l 1
 313 0 l 1
 190 0 l 1
 190 218 l 1
 2 538 l 1
327 241 m 1
 261 358 l 1
 359 538 l 1
 502 538 l 1
 327 241 l 1
EndSplineSet
Validated: 1
EndChar

StartChar: Z
Encoding: 90 90 59
Width: 414
GlyphClass: 2
Flags: HW
LayerCount: 2
Fore
SplineSet
174 0 m 1
 229 119 l 1
 402 119 l 1
 402 0 l 1
 174 0 l 1
12 420 m 1
 12 538 l 1
 414 538 l 1
 358 420 l 1
 12 420 l 1
348 403 m 1
 157 0 l 1
 -3 0 l 1
 200 403 l 1
 348 403 l 1
EndSplineSet
Validated: 1
EndChar

StartChar: bracketleft
Encoding: 91 91 60
Width: 218
GlyphClass: 2
Flags: HW
LayerCount: 2
Fore
SplineSet
18 614 m 1
 206 614 l 1
 206 500 l 1
 18 500 l 1
 18 614 l 1
22 -77 m 1
 22 483 l 1
 144 483 l 1
 144 39 l 1
 206 39 l 1
 206 -77 l 1
 22 -77 l 1
EndSplineSet
Validated: 1
EndChar

StartChar: backslash
Encoding: 92 92 61
Width: 340
GlyphClass: 2
Flags: HW
LayerCount: 2
Fore
SplineSet
-14 571 m 1
 86 612 l 1
 356 -39 l 1
 256 -82 l 1
 -14 571 l 1
EndSplineSet
Validated: 1
EndChar

StartChar: bracketright
Encoding: 93 93 62
Width: 218
GlyphClass: 2
Flags: HW
LayerCount: 2
Fore
SplineSet
200 -77 m 1
 12 -77 l 1
 12 39 l 1
 200 39 l 1
 200 -77 l 1
197 614 m 1
 197 53 l 1
 74 53 l 1
 74 500 l 1
 12 500 l 1
 12 614 l 1
 197 614 l 1
EndSplineSet
Validated: 1
EndChar

StartChar: asciicircum
Encoding: 94 94 63
Width: 344
GlyphClass: 2
Flags: HW
LayerCount: 2
Fore
SplineSet
6 509 m 1
 169 597 l 1
 175 597 l 1
 338 509 l 1
 305 429 l 1
 172 472 l 1
 39 429 l 1
 6 509 l 1
EndSplineSet
Validated: 1
EndChar

StartChar: underscore
Encoding: 95 95 64
Width: 331
GlyphClass: 2
Flags: HW
LayerCount: 2
Fore
SplineSet
6 -295 m 1
 6 -175 l 1
 326 -175 l 1
 326 -295 l 1
 6 -295 l 1
EndSplineSet
Validated: 1
EndChar

StartChar: grave
Encoding: 96 96 65
Width: 242
GlyphClass: 2
Flags: HW
LayerCount: 2
Fore
SplineSet
238 506 m 1
 217 432 l 1
 6 469 l 1
 37 590 l 1
 238 506 l 1
EndSplineSet
Validated: 1
EndChar

StartChar: a
Encoding: 97 97 66
Width: 519
GlyphClass: 2
Flags: HW
LayerCount: 2
Fore
SplineSet
333 538 m 1
 334 538 l 1
 518 0 l 1
 387 0 l 1
 267 347 l 1
 333 538 l 1
170 111 m 1
 132 0 l 1
 2 0 l 1
 186 538 l 1
 316 538 l 1
 207 218 l 1
 295 218 l 1
 333 111 l 1
 170 111 l 1
EndSplineSet
Validated: 1
EndChar

StartChar: b
Encoding: 98 98 67
Width: 455
GlyphClass: 2
Flags: HW
LayerCount: 2
Fore
SplineSet
271 354 m 1
 280 363 287 377 287 389 c 0
 287 411 269 428 250 428 c 2
 18 428 l 1
 18 538 l 1
 270 538 l 2
 344 538 406 480 406 408 c 0
 406 377 392 348 368 325 c 1
 341 340 308 350 271 354 c 1
444 172 m 0
 444 77 365 0 270 0 c 2
 160 0 l 1
 160 120 l 1
 270 120 l 2
 298 120 322 143 322 176 c 0
 322 208 298 233 270 233 c 2
 224 233 l 1
 160 233 l 1
 160 341 l 1
 221 341 l 1
 238 341 l 2
 364 341 444 265 444 172 c 0
22 -3 m 1
 22 414 l 1
 144 414 l 1
 144 -3 l 1
 22 -3 l 1
EndSplineSet
Validated: 1
EndChar

StartChar: c
Encoding: 99 99 68
Width: 443
GlyphClass: 2
Flags: HW
LayerCount: 2
Fore
SplineSet
135 268 m 1
 135 183 187 115 249 115 c 0
 286 115 317 129 339 158 c 1
 432 82 l 1
 391 30 329 -3 249 -3 c 0
 117 -3 9 117 9 268 c 1
 135 268 l 1
339 380 m 1
 317 409 286 422 249 422 c 0
 190 422 142 363 136 285 c 1
 9 285 l 1
 16 428 121 541 249 541 c 0
 329 541 391 509 432 457 c 1
 339 380 l 1
EndSplineSet
Validated: 1
EndChar

StartChar: d
Encoding: 100 100 69
Width: 452
GlyphClass: 2
Flags: HW
LayerCount: 2
Fore
SplineSet
22 -3 m 1
 22 402 l 1
 144 402 l 1
 144 -3 l 1
 22 -3 l 1
160 120 m 1
 175 120 l 2
 254 120 317 186 317 268 c 0
 317 350 254 418 175 418 c 2
 18 418 l 1
 18 538 l 1
 175 538 l 2
 325 538 444 418 444 268 c 0
 444 118 325 0 175 0 c 2
 160 0 l 1
 160 120 l 1
EndSplineSet
Validated: 1
EndChar

StartChar: e
Encoding: 101 101 70
Width: 375
GlyphClass: 2
Flags: HW
LayerCount: 2
Fore
SplineSet
22 135 m 1
 22 402 l 1
 144 402 l 1
 144 135 l 1
 22 135 l 1
160 332 m 1
 329 332 l 1
 329 212 l 1
 160 212 l 1
 160 332 l 1
18 120 m 1
 367 120 l 1
 367 0 l 1
 18 0 l 1
 18 120 l 1
18 538 m 1
 367 538 l 1
 367 418 l 1
 18 418 l 1
 18 538 l 1
EndSplineSet
Validated: 1
EndChar

StartChar: f
Encoding: 102 102 71
Width: 375
GlyphClass: 2
Flags: HW
LayerCount: 2
Fore
SplineSet
22 0 m 1
 22 402 l 1
 144 402 l 1
 144 0 l 1
 22 0 l 1
160 313 m 1
 352 313 l 1
 352 194 l 1
 160 194 l 1
 160 313 l 1
18 538 m 1
 367 538 l 1
 367 418 l 1
 18 418 l 1
 18 538 l 1
EndSplineSet
Validated: 1
EndChar

StartChar: g
Encoding: 103 103 72
Width: 463
GlyphClass: 2
Flags: HW
LayerCount: 2
Fore
SplineSet
326 82 m 1
 326 200 l 1
 449 200 l 1
 449 -4 l 1
 326 82 l 1
455 215 m 1
 229 215 l 1
 229 323 l 1
 455 323 l 1
 455 215 l 1
339 380 m 1
 317 409 286 422 249 422 c 0
 190 422 142 363 136 285 c 1
 9 285 l 1
 16 428 121 541 249 541 c 0
 329 541 391 509 432 457 c 1
 339 380 l 1
135 268 m 1
 135 183 187 115 249 115 c 0
 272 115 293 120 310 131 c 1
 310 74 l 1
 373 30 l 1
 338 10 297 -3 249 -3 c 0
 117 -3 9 117 9 268 c 1
 135 268 l 1
EndSplineSet
Validated: 1
EndChar

StartChar: h
Encoding: 104 104 73
Width: 442
GlyphClass: 2
Flags: HW
LayerCount: 2
Fore
SplineSet
144 0 m 1
 22 0 l 1
 22 197 l 1
 144 197 l 1
 144 0 l 1
283 212 m 1
 18 212 l 1
 18 332 l 1
 283 332 l 1
 283 212 l 1
144 347 m 1
 22 347 l 1
 22 538 l 1
 144 538 l 1
 144 347 l 1
298 538 m 1
 421 538 l 1
 421 0 l 1
 298 0 l 1
 298 538 l 1
EndSplineSet
Validated: 1
EndChar

StartChar: i
Encoding: 105 105 74
Width: 165
GlyphClass: 2
Flags: HW
LayerCount: 2
Fore
SplineSet
22 0 m 1
 22 538 l 1
 144 538 l 1
 144 0 l 1
 22 0 l 1
EndSplineSet
Validated: 1
EndChar

StartChar: j
Encoding: 106 106 75
Width: 393
GlyphClass: 2
Flags: HW
LayerCount: 2
Fore
SplineSet
378 402 m 1
 378 181 l 2
 378 80 293 -3 190 -3 c 0
 110 -3 47 30 6 82 c 1
 100 158 l 1
 117 135 146 115 190 115 c 0
 226 115 255 144 255 181 c 2
 255 402 l 1
 378 402 l 1
381 418 m 1
 20 418 l 1
 20 538 l 1
 381 538 l 1
 381 418 l 1
EndSplineSet
Validated: 1
EndChar

StartChar: k
Encoding: 107 107 76
Width: 457
GlyphClass: 2
Flags: HW
LayerCount: 2
Fore
SplineSet
158 329 m 1
 219 329 l 1
 455 0 l 1
 297 0 l 1
 162 221 l 1
 158 221 l 1
 158 329 l 1
22 0 m 1
 22 538 l 1
 144 538 l 1
 144 0 l 1
 22 0 l 1
267 288 m 1
 227 344 l 1
 168 344 l 1
 295 538 l 1
 449 538 l 1
 267 288 l 1
EndSplineSet
Validated: 1
EndChar

StartChar: l
Encoding: 108 108 77
Width: 372
GlyphClass: 2
Flags: HW
LayerCount: 2
Fore
SplineSet
22 135 m 1
 22 538 l 1
 144 538 l 1
 144 135 l 1
 22 135 l 1
18 120 m 1
 367 120 l 1
 367 0 l 1
 18 0 l 1
 18 120 l 1
EndSplineSet
Validated: 1
EndChar

StartChar: m
Encoding: 109 109 78
Width: 657
GlyphClass: 2
Flags: HW
LayerCount: 2
Fore
SplineSet
516 0 m 1
 516 365 l 1
 530 406 l 1
 636 406 l 1
 636 0 l 1
 516 0 l 1
224 538 m 1
 391 0 l 1
 267 0 l 1
 102 538 l 1
 224 538 l 1
22 0 m 1
 22 538 l 1
 87 538 l 1
 141 359 l 1
 141 0 l 1
 22 0 l 1
434 538 m 1
 639 538 l 1
 639 421 l 1
 519 421 l 1
 399 27 l 1
 338 222 l 1
 434 538 l 1
EndSplineSet
Validated: 1
EndChar

StartChar: n
Encoding: 110 110 79
Width: 436
GlyphClass: 2
Flags: HW
LayerCount: 2
Fore
SplineSet
298 0 m 1
 298 538 l 1
 415 538 l 1
 415 0 l 1
 298 0 l 1
22 406 m 1
 82 406 l 1
 138 276 l 1
 138 0 l 1
 22 0 l 1
 22 406 l 1
283 262 m 1
 283 0 l 1
 274 0 l 1
 92 421 l 1
 18 421 l 1
 18 538 l 1
 162 538 l 1
 283 262 l 1
EndSplineSet
Validated: 1
EndChar

StartChar: o
Encoding: 111 111 80
Width: 485
GlyphClass: 2
Flags: HW
LayerCount: 2
Fore
SplineSet
227 540 m 1
 227 421 l 1
 175 411 135 346 135 268 c 1
 9 268 l 1
 9 412 105 531 227 540 c 1
350 268 m 0
 350 353 302 422 243 422 c 1
 243 541 l 1
 372 541 476 419 476 268 c 0
 476 117 372 -3 243 -3 c 0
 118 -3 16 111 9 254 c 1
 136 254 l 1
 141 176 188 115 243 115 c 0
 302 115 350 183 350 268 c 0
EndSplineSet
Validated: 1
EndChar

StartChar: p
Encoding: 112 112 81
Width: 452
GlyphClass: 2
Flags: HW
LayerCount: 2
Fore
SplineSet
22 0 m 1
 22 402 l 1
 144 402 l 1
 144 0 l 1
 22 0 l 1
322 346 m 0
 322 386 288 418 252 418 c 2
 18 418 l 1
 18 538 l 1
 252 538 l 2
 358 538 444 452 444 346 c 0
 444 240 358 154 252 154 c 2
 160 154 l 1
 160 273 l 1
 252 273 l 2
 288 273 322 306 322 346 c 0
EndSplineSet
Validated: 1
EndChar

StartChar: q
Encoding: 113 113 82
Width: 491
GlyphClass: 2
Flags: HW
LayerCount: 2
Fore
SplineSet
354 -108 m 1
 194 207 l 1
 293 261 l 1
 459 -52 l 1
 354 -108 l 1
230 421 m 1
 180 411 141 352 141 281 c 0
 141 211 172 152 214 133 c 1
 278 9 l 1
 268 7 257 6 246 6 c 0
 119 6 15 129 15 281 c 0
 15 418 110 531 230 540 c 1
 230 421 l 1
246 422 m 1
 246 541 l 1
 373 541 476 424 476 281 c 0
 476 203 450 133 406 83 c 1
 338 209 l 1
 345 231 350 255 350 281 c 0
 350 359 303 422 246 422 c 1
EndSplineSet
Validated: 1
EndChar

StartChar: r
Encoding: 114 114 83
Width: 417
GlyphClass: 2
Flags: HW
LayerCount: 2
Fore
SplineSet
190 323 m 2
 298 323 406 243 406 162 c 2
 406 0 l 1
 283 0 l 1
 283 144 l 2
 283 187 249 221 206 221 c 2
 160 221 l 1
 160 323 l 1
 190 323 l 2
22 0 m 1
 22 406 l 1
 144 406 l 1
 144 0 l 1
 22 0 l 1
345 287 m 1
 317 306 285 322 251 330 c 1
 269 340 283 359 283 381 c 0
 283 404 266 421 249 421 c 2
 18 421 l 1
 18 538 l 1
 252 538 l 2
 336 538 406 468 406 384 c 0
 406 341 381 309 345 287 c 1
EndSplineSet
Validated: 1
EndChar

StartChar: s
Encoding: 115 115 84
Width: 448
GlyphClass: 2
Flags: HW
LayerCount: 2
Fore
SplineSet
217 428 m 1
 183 428 157 413 157 395 c 0
 157 363 227 353 298 327 c 0
 369 301 439 260 439 166 c 0
 439 65 350 -3 217 -3 c 1
 217 109 l 1
 276 109 315 130 315 163 c 0
 315 204 245 213 174 236 c 0
 103 259 33 295 33 391 c 0
 33 479 106 541 217 541 c 1
 217 428 l 1
201 110 m 1
 201 -3 l 1
 125 1 48 33 9 82 c 1
 100 155 l 1
 111 141 152 115 201 110 c 1
231 428 m 1
 231 541 l 1
 305 537 370 506 409 457 c 1
 317 383 l 1
 303 401 271 424 231 428 c 1
EndSplineSet
Validated: 1
EndChar

StartChar: t
Encoding: 116 116 85
Width: 421
GlyphClass: 2
Flags: HW
LayerCount: 2
Fore
SplineSet
274 409 m 1
 274 0 l 1
 150 0 l 1
 150 409 l 1
 274 409 l 1
6 424 m 1
 6 538 l 1
 416 538 l 1
 416 424 l 1
 6 424 l 1
EndSplineSet
Validated: 1
EndChar

StartChar: u
Encoding: 117 117 86
Width: 414
GlyphClass: 2
Flags: HW
LayerCount: 2
Fore
SplineSet
209 0 m 1
 103 0 15 87 15 193 c 2
 15 538 l 1
 138 538 l 1
 138 193 l 2
 138 157 170 120 209 120 c 1
 209 0 l 1
224 1 m 1
 224 122 l 1
 257 130 281 162 281 193 c 2
 281 538 l 1
 399 538 l 1
 399 193 l 2
 399 93 322 9 224 1 c 1
EndSplineSet
Validated: 1
EndChar

StartChar: v
Encoding: 118 118 87
Width: 519
GlyphClass: 2
Flags: HW
LayerCount: 2
Fore
SplineSet
2 538 m 1
 132 538 l 1
 324 0 l 1
 195 0 l 1
 2 538 l 1
390 538 m 1
 518 538 l 1
 332 23 l 1
 269 198 l 1
 390 538 l 1
EndSplineSet
Validated: 1
EndChar

StartChar: w
Encoding: 119 119 88
Width: 768
GlyphClass: 2
Flags: HW
LayerCount: 2
Fore
SplineSet
280 0 m 1
 156 0 l 1
 2 538 l 1
 133 538 l 1
 280 0 l 1
610 0 m 1
 552 214 l 1
 641 538 l 1
 766 538 l 1
 612 0 l 1
 610 0 l 1
455 509 m 1
 594 0 l 1
 475 0 l 1
 393 293 l 1
 455 509 l 1
295 1 m 1
 236 222 l 1
 323 538 l 1
 446 538 l 1
 295 1 l 1
EndSplineSet
Validated: 1
EndChar

StartChar: x
Encoding: 120 120 89
Width: 513
GlyphClass: 2
Flags: HW
LayerCount: 2
Fore
SplineSet
14 538 m 1
 162 538 l 1
 293 329 l 1
 507 0 l 1
 359 0 l 1
 219 233 l 1
 14 538 l 1
335 294 m 1
 306 337 l 1
 265 401 l 1
 352 538 l 1
 500 538 l 1
 335 294 l 1
179 266 m 1
 207 225 l 1
 248 157 l 1
 154 0 l 1
 6 0 l 1
 179 266 l 1
EndSplineSet
Validated: 1
EndChar

StartChar: y
Encoding: 121 121 90
Width: 503
GlyphClass: 2
Flags: HW
LayerCount: 2
Fore
SplineSet
2 538 m 1
 144 538 l 1
 313 231 l 1
 313 0 l 1
 190 0 l 1
 190 218 l 1
 2 538 l 1
327 241 m 1
 261 358 l 1
 359 538 l 1
 502 538 l 1
 327 241 l 1
EndSplineSet
Validated: 1
EndChar

StartChar: z
Encoding: 122 122 91
Width: 414
GlyphClass: 2
Flags: HW
LayerCount: 2
Fore
SplineSet
174 0 m 1
 229 119 l 1
 402 119 l 1
 402 0 l 1
 174 0 l 1
12 420 m 1
 12 538 l 1
 414 538 l 1
 358 420 l 1
 12 420 l 1
348 403 m 1
 157 0 l 1
 -3 0 l 1
 200 403 l 1
 348 403 l 1
EndSplineSet
Validated: 1
EndChar

StartChar: braceleft
Encoding: 123 123 92
Width: 267
GlyphClass: 2
Flags: HW
LayerCount: 2
Fore
SplineSet
47 225 m 2
 0 225 l 1
 0 311 l 1
 39 311 l 2
 61 311 77 328 77 350 c 2
 77 501 l 2
 77 563 128 614 190 614 c 2
 261 614 l 1
 261 506 l 1
 238 506 l 2
 216 506 200 489 200 467 c 2
 200 360 l 2
 200 285 128 225 47 225 c 2
69 212 m 1
 108 216 142 232 169 258 c 1
 187 236 200 206 200 176 c 2
 200 71 l 2
 200 49 216 33 238 33 c 2
 261 33 l 1
 261 -77 l 1
 190 -77 l 2
 128 -77 77 -25 77 37 c 2
 77 187 l 2
 77 196 74 206 69 212 c 1
EndSplineSet
Validated: 1
EndChar

StartChar: bar
Encoding: 124 124 93
Width: 172
GlyphClass: 2
Flags: HW
LayerCount: 2
Fore
SplineSet
25 -77 m 1
 25 614 l 1
 147 614 l 1
 147 -77 l 1
 25 -77 l 1
EndSplineSet
Validated: 1
EndChar

StartChar: braceright
Encoding: 125 125 94
Width: 267
GlyphClass: 2
Flags: HW
LayerCount: 2
Fore
SplineSet
219 311 m 2
 267 311 l 1
 267 225 l 1
 229 225 l 2
 207 225 190 209 190 187 c 2
 190 37 l 2
 190 -25 139 -77 77 -77 c 2
 6 -77 l 1
 6 33 l 1
 29 33 l 2
 51 33 68 49 68 71 c 2
 68 176 l 2
 68 251 138 311 219 311 c 2
199 326 m 1
 160 322 125 306 98 280 c 1
 80 302 68 330 68 360 c 2
 68 467 l 2
 68 489 51 506 29 506 c 2
 6 506 l 1
 6 614 l 1
 77 614 l 2
 139 614 190 563 190 501 c 2
 190 350 l 2
 190 341 194 332 199 326 c 1
EndSplineSet
Validated: 1
EndChar

StartChar: asciitilde
Encoding: 126 126 95
Width: 519
GlyphClass: 2
Flags: HW
LayerCount: 2
Fore
SplineSet
3 260 m 1
 61 316 l 2
 90 345 131 366 178 366 c 0
 241 366 282 329 304 309 c 0
 326 289 335 286 341 286 c 0
 350 286 358 293 362 297 c 2
 420 352 l 1
 516 255 l 1
 458 199 l 2
 429 170 388 150 341 150 c 0
 278 150 235 187 213 207 c 0
 191 225 186 229 178 229 c 0
 169 229 161 222 157 218 c 2
 100 163 l 1
 3 260 l 1
EndSplineSet
Validated: 1
EndChar

StartChar: exclamdown
Encoding: 161 161 96
Width: 181
GlyphClass: 2
Flags: HW
LayerCount: 2
Fore
SplineSet
156 543 m 1
 156 415 l 1
 27 415 l 1
 27 543 l 1
 156 543 l 1
166 0 m 1
 15 0 l 1
 20 154 l 1
 35 369 l 1
 145 369 l 1
 162 154 l 1
 166 0 l 1
EndSplineSet
Validated: 1
EndChar

StartChar: cent
Encoding: 162 162 97
Width: 437
GlyphClass: 2
Flags: HW
LayerCount: 2
Fore
SplineSet
174 362 m 1
 150 339 135 306 135 268 c 0
 135 200 184 145 243 145 c 0
 280 145 311 159 333 188 c 1
 426 113 l 1
 385 61 323 28 243 28 c 0
 114 28 9 135 9 268 c 0
 9 377 79 468 174 499 c 1
 174 362 l 1
297 505 m 1
 351 494 394 466 426 426 c 1
 333 349 l 1
 323 362 311 373 297 380 c 1
 297 505 l 1
281 168 m 1
 271 164 258 162 243 162 c 0
 224 162 203 168 188 181 c 1
 188 645 l 1
 281 645 l 1
 281 168 l 1
188 18 m 1
 205 14 225 12 243 12 c 0
 256 12 269 12 281 14 c 1
 281 -108 l 1
 188 -108 l 1
 188 18 l 1
EndSplineSet
Validated: 1
EndChar

StartChar: dieresis
Encoding: 168 168 98
Width: 307
GlyphClass: 2
Flags: HW
LayerCount: 2
Fore
SplineSet
10 507 m 1
 10 627 l 1
 131 627 l 1
 131 507 l 1
 10 507 l 1
177 507 m 1
 177 627 l 1
 299 627 l 1
 299 507 l 1
 177 507 l 1
EndSplineSet
Validated: 1
EndChar

StartChar: ordfeminine
Encoding: 170 170 99
Width: 451
GlyphClass: 2
Flags: HW
LayerCount: 2
Fore
SplineSet
351 212 m 1
 375 240 392 274 400 312 c 1
 410 292 427 279 445 279 c 1
 445 160 l 1
 408 160 376 179 351 212 c 1
273 348 m 2
 273 547 l 1
 390 538 l 1
 390 360 l 2
 390 247 305 157 200 157 c 0
 95 157 9 242 9 348 c 0
 9 454 95 541 200 541 c 0
 220 541 240 535 258 527 c 1
 258 398 l 1
 245 417 224 430 200 430 c 0
 159 430 126 393 126 348 c 0
 126 303 159 267 200 267 c 0
 241 267 273 303 273 348 c 2
EndSplineSet
Validated: 1
EndChar

StartChar: guillemotleft
Encoding: 171 171 100
Width: 463
GlyphClass: 2
Flags: HW
LayerCount: 2
Fore
SplineSet
187 268 m 1
 381 463 l 1
 459 384 l 1
 264 193 l 1
 187 268 l 1
3 268 m 1
 80 346 l 1
 270 157 l 1
 193 78 l 1
 3 268 l 1
166 282 m 1
 91 355 l 1
 199 464 l 1
 274 387 l 1
 166 282 l 1
275 181 m 1
 350 255 l 1
 453 156 l 1
 377 78 l 1
 275 181 l 1
EndSplineSet
Validated: 1
EndChar

StartChar: degree
Encoding: 176 176 101
Width: 393
GlyphClass: 2
Flags: HW
LayerCount: 2
Fore
SplineSet
181 552 m 1
 181 443 l 1
 147 436 123 407 123 371 c 0
 123 329 156 295 197 295 c 0
 238 295 270 329 270 371 c 0
 270 413 238 445 197 445 c 1
 197 553 l 1
 300 553 384 472 384 371 c 0
 384 270 300 187 197 187 c 0
 94 187 9 270 9 371 c 0
 9 467 85 545 181 552 c 1
EndSplineSet
Validated: 1
EndChar

StartChar: acute
Encoding: 180 180 102
Width: 242
GlyphClass: 2
Flags: HW
LayerCount: 2
Fore
SplineSet
6 582 m 1
 206 666 l 1
 237 545 l 1
 26 508 l 1
 6 582 l 1
EndSplineSet
Validated: 1
EndChar

StartChar: cedilla
Encoding: 184 184 103
Width: 240
GlyphClass: 2
Flags: HW
LayerCount: 2
Fore
SplineSet
120 -123 m 1
 22 -123 l 1
 63 43 l 1
 156 27 l 1
 120 -123 l 1
133 -135 m 1
 155 -45 l 1
 204 -63 238 -109 238 -163 c 0
 238 -239 178 -298 102 -298 c 0
 65 -298 31 -285 6 -260 c 1
 74 -193 l 1
 82 -201 92 -203 102 -203 c 0
 125 -203 143 -186 143 -163 c 0
 143 -152 139 -142 133 -135 c 1
EndSplineSet
Validated: 1
EndChar

StartChar: ordmasculine
Encoding: 186 186 104
Width: 399
GlyphClass: 2
Flags: HW
LayerCount: 2
Fore
SplineSet
184 540 m 1
 184 428 l 1
 150 420 126 387 126 348 c 0
 126 303 159 267 200 267 c 0
 241 267 273 303 273 348 c 0
 273 393 241 430 200 430 c 1
 200 541 l 1
 305 541 390 454 390 348 c 0
 390 242 305 157 200 157 c 0
 95 157 9 242 9 348 c 0
 9 448 86 532 184 540 c 1
EndSplineSet
Validated: 1
EndChar

StartChar: guillemotright
Encoding: 187 187 105
Width: 463
GlyphClass: 2
Flags: HW
LayerCount: 2
Fore
SplineSet
274 268 m 1
 82 76 l 1
 3 154 l 1
 199 346 l 1
 274 268 l 1
459 268 m 1
 383 193 l 1
 193 381 l 1
 270 459 l 1
 459 268 l 1
297 256 m 1
 371 182 l 1
 264 74 l 1
 187 151 l 1
 297 256 l 1
186 356 m 1
 112 283 l 1
 9 383 l 1
 86 459 l 1
 186 356 l 1
EndSplineSet
Validated: 1
EndChar

StartChar: questiondown
Encoding: 191 191 106
Width: 368
GlyphClass: 2
Flags: HW
LayerCount: 2
Fore
SplineSet
175 -8 m 1
 92 -8 6 42 6 126 c 0
 6 194 42 225 77 251 c 0
 109 275 138 298 138 347 c 2
 138 365 l 1
 255 365 l 1
 255 353 l 2
 255 262 208 221 170 191 c 0
 147 174 128 157 128 134 c 0
 128 116 149 101 175 101 c 1
 175 -8 l 1
261 538 m 1
 261 410 l 1
 132 410 l 1
 132 538 l 1
 261 538 l 1
190 -7 m 1
 190 102 l 1
 242 107 270 138 278 148 c 1
 362 78 l 1
 323 29 263 -3 190 -7 c 1
EndSplineSet
Validated: 1
EndChar

StartChar: Agrave
Encoding: 192 192 107
Width: 519
GlyphClass: 2
Flags: HW
LayerCount: 2
Fore
SplineSet
356 643 m 1
 336 569 l 1
 125 606 l 1
 156 727 l 1
 356 643 l 1
333 538 m 1
 334 538 l 1
 518 0 l 1
 387 0 l 1
 267 347 l 1
 333 538 l 1
170 111 m 1
 132 0 l 1
 2 0 l 1
 186 538 l 1
 316 538 l 1
 207 218 l 1
 295 218 l 1
 333 111 l 1
 170 111 l 1
EndSplineSet
Validated: 1
EndChar

StartChar: Aacute
Encoding: 193 193 108
Width: 519
GlyphClass: 2
Flags: HW
LayerCount: 2
Fore
SplineSet
155 643 m 1
 354 727 l 1
 385 606 l 1
 174 569 l 1
 155 643 l 1
333 538 m 1
 334 538 l 1
 518 0 l 1
 387 0 l 1
 267 347 l 1
 333 538 l 1
170 111 m 1
 132 0 l 1
 2 0 l 1
 186 538 l 1
 316 538 l 1
 207 218 l 1
 295 218 l 1
 333 111 l 1
 170 111 l 1
EndSplineSet
Validated: 1
EndChar

StartChar: Acircumflex
Encoding: 194 194 109
Width: 519
GlyphClass: 2
Flags: HW
LayerCount: 2
Fore
SplineSet
86 647 m 1
 249 735 l 1
 255 735 l 1
 418 647 l 1
 385 567 l 1
 252 610 l 1
 119 567 l 1
 86 647 l 1
333 538 m 1
 334 538 l 1
 518 0 l 1
 387 0 l 1
 267 347 l 1
 333 538 l 1
170 111 m 1
 132 0 l 1
 2 0 l 1
 186 538 l 1
 316 538 l 1
 207 218 l 1
 295 218 l 1
 333 111 l 1
 170 111 l 1
EndSplineSet
Validated: 1
EndChar

StartChar: Atilde
Encoding: 195 195 110
Width: 519
GlyphClass: 2
Flags: HW
LayerCount: 2
Fore
SplineSet
90 675 m 2
 115 707 153 728 197 728 c 0
 255 728 281 686 304 686 c 0
 309 686 314 690 317 694 c 2
 339 723 l 1
 436 650 l 1
 414 622 l 2
 389 590 351 568 307 568 c 0
 249 568 222 608 199 608 c 0
 194 608 189 606 186 602 c 2
 165 573 l 1
 68 646 l 1
 90 675 l 2
333 538 m 1
 334 538 l 1
 518 0 l 1
 387 0 l 1
 267 347 l 1
 333 538 l 1
170 111 m 1
 132 0 l 1
 2 0 l 1
 186 538 l 1
 316 538 l 1
 207 218 l 1
 295 218 l 1
 333 111 l 1
 170 111 l 1
EndSplineSet
Validated: 1
EndChar

StartChar: Adieresis
Encoding: 196 196 111
Width: 519
GlyphClass: 2
Flags: HW
LayerCount: 2
Fore
SplineSet
109 584 m 1
 109 703 l 1
 229 703 l 1
 229 584 l 1
 109 584 l 1
275 584 m 1
 275 703 l 1
 397 703 l 1
 397 584 l 1
 275 584 l 1
333 538 m 1
 334 538 l 1
 518 0 l 1
 387 0 l 1
 267 347 l 1
 333 538 l 1
170 111 m 1
 132 0 l 1
 2 0 l 1
 186 538 l 1
 316 538 l 1
 207 218 l 1
 295 218 l 1
 333 111 l 1
 170 111 l 1
EndSplineSet
Validated: 1
EndChar

StartChar: Aring
Encoding: 197 197 112
Width: 519
GlyphClass: 2
Flags: HW
LayerCount: 2
Fore
SplineSet
135 625 m 0
 135 693 190 748 258 748 c 0
 326 748 381 693 381 625 c 0
 381 557 326 502 258 502 c 0
 190 502 135 557 135 625 c 0
218 625 m 0
 218 602 235 584 258 584 c 0
 281 584 298 602 298 625 c 0
 298 648 281 666 258 666 c 0
 235 666 218 648 218 625 c 0
170 111 m 1
 132 0 l 1
 2 0 l 1
 177 513 l 1
 200 497 228 487 258 487 c 0
 273 487 288 490 301 494 c 1
 207 218 l 1
 295 218 l 1
 333 111 l 1
 170 111 l 1
321 502 m 1
 328 506 335 510 341 515 c 1
 518 0 l 1
 387 0 l 1
 267 347 l 1
 321 502 l 1
EndSplineSet
Validated: 1
EndChar

StartChar: AE
Encoding: 198 198 113
Width: 685
GlyphClass: 2
Flags: HW
LayerCount: 2
Fore
SplineSet
477 120 m 1
 676 120 l 1
 676 0 l 1
 477 0 l 1
 477 120 l 1
477 332 m 1
 637 332 l 1
 637 212 l 1
 477 212 l 1
 477 332 l 1
340 -2 m 1
 340 402 l 1
 463 402 l 1
 463 -2 l 1
 340 -2 l 1
184 538 m 1
 676 538 l 1
 676 418 l 1
 143 418 l 1
 184 538 l 1
207 218 m 1
 324 218 l 1
 324 111 l 1
 170 111 l 1
 132 0 l 1
 2 0 l 1
 139 402 l 1
 270 402 l 1
 207 218 l 1
EndSplineSet
Validated: 1
EndChar

StartChar: Ccedilla
Encoding: 199 199 114
Width: 443
GlyphClass: 2
Flags: HW
LayerCount: 2
Fore
SplineSet
135 268 m 1
 135 183 187 115 249 115 c 0
 286 115 317 129 339 158 c 1
 432 82 l 1
 391 30 329 -3 249 -3 c 0
 117 -3 9 117 9 268 c 1
 135 268 l 1
274 -135 m 1
 296 -45 l 1
 345 -63 379 -109 379 -163 c 0
 379 -239 320 -298 244 -298 c 0
 207 -298 172 -285 147 -260 c 1
 215 -193 l 1
 223 -201 234 -203 244 -203 c 0
 267 -203 285 -186 285 -163 c 0
 285 -152 280 -142 274 -135 c 1
261 -123 m 1
 163 -123 l 1
 190 -11 l 1
 208 -16 229 -18 249 -18 c 0
 262 -18 275 -18 287 -16 c 1
 261 -123 l 1
339 380 m 1
 317 409 286 422 249 422 c 0
 190 422 142 363 136 285 c 1
 9 285 l 1
 16 428 121 541 249 541 c 0
 329 541 391 509 432 457 c 1
 339 380 l 1
EndSplineSet
Validated: 1
EndChar

StartChar: Egrave
Encoding: 200 200 115
Width: 375
GlyphClass: 2
Flags: HW
LayerCount: 2
Fore
SplineSet
297 643 m 1
 276 569 l 1
 66 606 l 1
 96 727 l 1
 297 643 l 1
22 135 m 1
 22 402 l 1
 144 402 l 1
 144 135 l 1
 22 135 l 1
160 332 m 1
 329 332 l 1
 329 212 l 1
 160 212 l 1
 160 332 l 1
18 120 m 1
 367 120 l 1
 367 0 l 1
 18 0 l 1
 18 120 l 1
18 538 m 1
 367 538 l 1
 367 418 l 1
 18 418 l 1
 18 538 l 1
EndSplineSet
Validated: 1
EndChar

StartChar: Eacute
Encoding: 201 201 116
Width: 375
GlyphClass: 2
Flags: HW
LayerCount: 2
Fore
SplineSet
95 643 m 1
 295 727 l 1
 326 606 l 1
 115 569 l 1
 95 643 l 1
22 135 m 1
 22 402 l 1
 144 402 l 1
 144 135 l 1
 22 135 l 1
160 332 m 1
 329 332 l 1
 329 212 l 1
 160 212 l 1
 160 332 l 1
18 120 m 1
 367 120 l 1
 367 0 l 1
 18 0 l 1
 18 120 l 1
18 538 m 1
 367 538 l 1
 367 418 l 1
 18 418 l 1
 18 538 l 1
EndSplineSet
Validated: 1
EndChar

StartChar: Ecircumflex
Encoding: 202 202 117
Width: 375
GlyphClass: 2
Flags: HW
LayerCount: 2
Fore
SplineSet
27 647 m 1
 189 735 l 1
 196 735 l 1
 358 647 l 1
 326 567 l 1
 193 610 l 1
 59 567 l 1
 27 647 l 1
22 135 m 1
 22 402 l 1
 144 402 l 1
 144 135 l 1
 22 135 l 1
160 332 m 1
 329 332 l 1
 329 212 l 1
 160 212 l 1
 160 332 l 1
18 120 m 1
 367 120 l 1
 367 0 l 1
 18 0 l 1
 18 120 l 1
18 538 m 1
 367 538 l 1
 367 418 l 1
 18 418 l 1
 18 538 l 1
EndSplineSet
Validated: 1
EndChar

StartChar: Edieresis
Encoding: 203 203 118
Width: 375
GlyphClass: 2
Flags: HW
LayerCount: 2
Fore
SplineSet
49 584 m 1
 49 703 l 1
 170 703 l 1
 170 584 l 1
 49 584 l 1
216 584 m 1
 216 703 l 1
 338 703 l 1
 338 584 l 1
 216 584 l 1
22 135 m 1
 22 402 l 1
 144 402 l 1
 144 135 l 1
 22 135 l 1
160 332 m 1
 329 332 l 1
 329 212 l 1
 160 212 l 1
 160 332 l 1
18 120 m 1
 367 120 l 1
 367 0 l 1
 18 0 l 1
 18 120 l 1
18 538 m 1
 367 538 l 1
 367 418 l 1
 18 418 l 1
 18 538 l 1
EndSplineSet
Validated: 1
EndChar

StartChar: Igrave
Encoding: 204 204 119
Width: 165
GlyphClass: 2
Flags: HW
LayerCount: 2
Fore
SplineSet
187 643 m 1
 167 569 l 1
 -44 606 l 1
 -13 727 l 1
 187 643 l 1
22 0 m 1
 22 538 l 1
 144 538 l 1
 144 0 l 1
 22 0 l 1
EndSplineSet
Validated: 1
EndChar

StartChar: Iacute
Encoding: 205 205 120
Width: 165
GlyphClass: 2
Flags: HW
LayerCount: 2
Fore
SplineSet
-14 643 m 1
 185 727 l 1
 216 606 l 1
 5 569 l 1
 -14 643 l 1
22 0 m 1
 22 538 l 1
 144 538 l 1
 144 0 l 1
 22 0 l 1
EndSplineSet
Validated: 1
EndChar

StartChar: Icircumflex
Encoding: 206 206 121
Width: 165
GlyphClass: 2
Flags: HW
LayerCount: 2
Fore
SplineSet
-83 647 m 1
 80 735 l 1
 86 735 l 1
 249 647 l 1
 216 567 l 1
 83 610 l 1
 -50 567 l 1
 -83 647 l 1
22 0 m 1
 22 538 l 1
 144 538 l 1
 144 0 l 1
 22 0 l 1
EndSplineSet
Validated: 1
EndChar

StartChar: Idieresis
Encoding: 207 207 122
Width: 165
GlyphClass: 2
Flags: HW
LayerCount: 2
Fore
SplineSet
-60 584 m 1
 -60 703 l 1
 60 703 l 1
 60 584 l 1
 -60 584 l 1
106 584 m 1
 106 703 l 1
 228 703 l 1
 228 584 l 1
 106 584 l 1
22 0 m 1
 22 538 l 1
 144 538 l 1
 144 0 l 1
 22 0 l 1
EndSplineSet
Validated: 1
EndChar

StartChar: Eth
Encoding: 208 208 123
Width: 483
GlyphClass: 2
Flags: HW
LayerCount: 2
Fore
SplineSet
52 -3 m 1
 52 402 l 1
 175 402 l 1
 175 -3 l 1
 52 -3 l 1
190 120 m 1
 206 120 l 2
 285 120 348 186 348 268 c 0
 348 350 285 418 206 418 c 2
 49 418 l 1
 49 538 l 1
 206 538 l 2
 356 538 475 418 475 268 c 0
 475 118 356 0 206 0 c 2
 190 0 l 1
 190 120 l 1
190 326 m 1
 273 326 l 1
 273 227 l 1
 190 227 l 1
 190 326 l 1
37 227 m 1
 6 227 l 1
 6 326 l 1
 37 326 l 1
 37 227 l 1
EndSplineSet
Validated: 1
EndChar

StartChar: Ntilde
Encoding: 209 209 124
Width: 436
GlyphClass: 2
Flags: HW
LayerCount: 2
Fore
SplineSet
47 675 m 2
 72 707 110 728 154 728 c 0
 212 728 238 686 261 686 c 0
 266 686 271 690 274 694 c 2
 296 723 l 1
 393 650 l 1
 371 622 l 2
 346 590 308 568 264 568 c 0
 206 568 179 608 156 608 c 0
 151 608 146 606 143 602 c 2
 122 573 l 1
 25 646 l 1
 47 675 l 2
162 538 m 1
 397 0 l 1
 274 0 l 1
 154 280 l 1
 154 538 l 1
 162 538 l 1
22 0 m 1
 22 538 l 1
 138 538 l 1
 138 0 l 1
 22 0 l 1
298 266 m 1
 298 538 l 1
 415 538 l 1
 415 0 l 1
 298 266 l 1
EndSplineSet
Validated: 1
EndChar

StartChar: Ograve
Encoding: 210 210 125
Width: 485
GlyphClass: 2
Flags: HW
LayerCount: 2
Fore
SplineSet
347 643 m 1
 327 569 l 1
 116 606 l 1
 146 727 l 1
 347 643 l 1
227 540 m 1
 227 421 l 1
 175 411 135 346 135 268 c 1
 9 268 l 1
 9 412 105 531 227 540 c 1
350 268 m 0
 350 353 302 422 243 422 c 1
 243 541 l 1
 372 541 476 419 476 268 c 0
 476 117 372 -3 243 -3 c 0
 118 -3 16 111 9 254 c 1
 136 254 l 1
 141 176 188 115 243 115 c 0
 302 115 350 183 350 268 c 0
EndSplineSet
Validated: 1
EndChar

StartChar: Oacute
Encoding: 211 211 126
Width: 485
GlyphClass: 2
Flags: HW
LayerCount: 2
Fore
SplineSet
146 643 m 1
 346 727 l 1
 377 606 l 1
 166 569 l 1
 146 643 l 1
227 540 m 1
 227 421 l 1
 175 411 135 346 135 268 c 1
 9 268 l 1
 9 412 105 531 227 540 c 1
350 268 m 0
 350 353 302 422 243 422 c 1
 243 541 l 1
 372 541 476 419 476 268 c 0
 476 117 372 -3 243 -3 c 0
 118 -3 16 111 9 254 c 1
 136 254 l 1
 141 176 188 115 243 115 c 0
 302 115 350 183 350 268 c 0
EndSplineSet
Validated: 1
EndChar

StartChar: Ocircumflex
Encoding: 212 212 127
Width: 485
GlyphClass: 2
Flags: HW
LayerCount: 2
Fore
SplineSet
77 647 m 1
 240 735 l 1
 246 735 l 1
 409 647 l 1
 376 567 l 1
 243 610 l 1
 110 567 l 1
 77 647 l 1
227 540 m 1
 227 421 l 1
 175 411 135 346 135 268 c 1
 9 268 l 1
 9 412 105 531 227 540 c 1
350 268 m 0
 350 353 302 422 243 422 c 1
 243 541 l 1
 372 541 476 419 476 268 c 0
 476 117 372 -3 243 -3 c 0
 118 -3 16 111 9 254 c 1
 136 254 l 1
 141 176 188 115 243 115 c 0
 302 115 350 183 350 268 c 0
EndSplineSet
Validated: 1
EndChar

StartChar: Otilde
Encoding: 213 213 128
Width: 485
GlyphClass: 2
Flags: HW
LayerCount: 2
Fore
SplineSet
81 675 m 2
 106 707 143 728 187 728 c 0
 245 728 272 686 295 686 c 0
 300 686 305 690 308 694 c 2
 330 723 l 1
 427 650 l 1
 404 622 l 2
 379 590 342 568 298 568 c 0
 240 568 212 608 189 608 c 0
 184 608 180 606 177 602 c 2
 156 573 l 1
 58 646 l 1
 81 675 l 2
227 540 m 1
 227 421 l 1
 175 411 135 346 135 268 c 1
 9 268 l 1
 9 412 105 531 227 540 c 1
350 268 m 0
 350 353 302 422 243 422 c 1
 243 541 l 1
 372 541 476 419 476 268 c 0
 476 117 372 -3 243 -3 c 0
 118 -3 16 111 9 254 c 1
 136 254 l 1
 141 176 188 115 243 115 c 0
 302 115 350 183 350 268 c 0
EndSplineSet
Validated: 1
EndChar

StartChar: Odieresis
Encoding: 214 214 129
Width: 485
GlyphClass: 2
Flags: HW
LayerCount: 2
Fore
SplineSet
98 584 m 1
 98 703 l 1
 219 703 l 1
 219 584 l 1
 98 584 l 1
265 584 m 1
 265 703 l 1
 387 703 l 1
 387 584 l 1
 265 584 l 1
227 540 m 1
 227 421 l 1
 175 411 135 346 135 268 c 1
 9 268 l 1
 9 412 105 531 227 540 c 1
350 268 m 0
 350 353 302 422 243 422 c 1
 243 541 l 1
 372 541 476 419 476 268 c 0
 476 117 372 -3 243 -3 c 0
 118 -3 16 111 9 254 c 1
 136 254 l 1
 141 176 188 115 243 115 c 0
 302 115 350 183 350 268 c 0
EndSplineSet
Validated: 1
EndChar

StartChar: Oslash
Encoding: 216 216 130
Width: 485
GlyphClass: 2
Flags: HW
LayerCount: 2
Fore
SplineSet
302 548 m 1
 334 623 l 1
 422 584 l 1
 388 502 l 1
 362 524 334 539 302 548 c 1
322 340 m 1
 153 -69 l 1
 63 -32 l 1
 245 407 l 1
 276 406 306 381 322 340 c 1
476 254 m 1
 469 111 368 -3 243 -3 c 0
 228 -3 212 -1 198 2 c 1
 245 116 l 1
 299 118 344 177 349 254 c 1
 476 254 l 1
350 268 m 1
 350 353 302 422 243 422 c 0
 184 422 135 353 135 268 c 0
 135 245 138 225 144 206 c 1
 87 67 l 1
 40 117 9 188 9 268 c 0
 9 419 114 541 243 541 c 0
 372 541 476 419 476 268 c 1
 350 268 l 1
EndSplineSet
Validated: 1
EndChar

StartChar: Ugrave
Encoding: 217 217 131
Width: 414
GlyphClass: 2
Flags: HW
LayerCount: 2
Fore
SplineSet
311 643 m 1
 291 569 l 1
 80 606 l 1
 111 727 l 1
 311 643 l 1
209 0 m 1
 103 0 15 87 15 193 c 2
 15 538 l 1
 138 538 l 1
 138 193 l 2
 138 157 170 120 209 120 c 1
 209 0 l 1
224 1 m 1
 224 122 l 1
 257 130 281 162 281 193 c 2
 281 538 l 1
 399 538 l 1
 399 193 l 2
 399 93 322 9 224 1 c 1
EndSplineSet
Validated: 1
EndChar

StartChar: Uacute
Encoding: 218 218 132
Width: 414
GlyphClass: 2
Flags: HW
LayerCount: 2
Fore
SplineSet
110 643 m 1
 309 727 l 1
 340 606 l 1
 129 569 l 1
 110 643 l 1
209 0 m 1
 103 0 15 87 15 193 c 2
 15 538 l 1
 138 538 l 1
 138 193 l 2
 138 157 170 120 209 120 c 1
 209 0 l 1
224 1 m 1
 224 122 l 1
 257 130 281 162 281 193 c 2
 281 538 l 1
 399 538 l 1
 399 193 l 2
 399 93 322 9 224 1 c 1
EndSplineSet
Validated: 1
EndChar

StartChar: Ucircumflex
Encoding: 219 219 133
Width: 414
GlyphClass: 2
Flags: HW
LayerCount: 2
Fore
SplineSet
41 647 m 1
 204 735 l 1
 210 735 l 1
 373 647 l 1
 340 567 l 1
 207 610 l 1
 74 567 l 1
 41 647 l 1
209 0 m 1
 103 0 15 87 15 193 c 2
 15 538 l 1
 138 538 l 1
 138 193 l 2
 138 157 170 120 209 120 c 1
 209 0 l 1
224 1 m 1
 224 122 l 1
 257 130 281 162 281 193 c 2
 281 538 l 1
 399 538 l 1
 399 193 l 2
 399 93 322 9 224 1 c 1
EndSplineSet
Validated: 1
EndChar

StartChar: Udieresis
Encoding: 220 220 134
Width: 414
GlyphClass: 2
Flags: HW
LayerCount: 2
Fore
SplineSet
63 584 m 1
 63 703 l 1
 184 703 l 1
 184 584 l 1
 63 584 l 1
230 584 m 1
 230 703 l 1
 352 703 l 1
 352 584 l 1
 230 584 l 1
209 0 m 1
 103 0 15 87 15 193 c 2
 15 538 l 1
 138 538 l 1
 138 193 l 2
 138 157 170 120 209 120 c 1
 209 0 l 1
224 1 m 1
 224 122 l 1
 257 130 281 162 281 193 c 2
 281 538 l 1
 399 538 l 1
 399 193 l 2
 399 93 322 9 224 1 c 1
EndSplineSet
Validated: 1
EndChar

StartChar: Yacute
Encoding: 221 221 135
Width: 503
GlyphClass: 2
Flags: HW
LayerCount: 2
Fore
SplineSet
155 643 m 1
 354 727 l 1
 385 606 l 1
 174 569 l 1
 155 643 l 1
2 538 m 1
 144 538 l 1
 313 231 l 1
 313 0 l 1
 190 0 l 1
 190 218 l 1
 2 538 l 1
327 241 m 1
 261 358 l 1
 359 538 l 1
 502 538 l 1
 327 241 l 1
EndSplineSet
Validated: 1
EndChar

StartChar: Thorn
Encoding: 222 222 136
Width: 437
GlyphClass: 2
Flags: HW
LayerCount: 2
Fore
SplineSet
22 507 m 1
 22 538 l 1
 144 538 l 1
 144 507 l 1
 22 507 l 1
22 0 m 1
 22 356 l 1
 144 356 l 1
 144 0 l 1
 22 0 l 1
160 243 m 1
 237 243 l 2
 275 243 305 271 305 307 c 0
 305 343 275 372 237 372 c 2
 18 372 l 1
 18 492 l 1
 237 492 l 2
 343 492 428 408 428 307 c 0
 428 206 343 123 237 123 c 2
 160 123 l 1
 160 243 l 1
EndSplineSet
Validated: 1
EndChar

StartChar: germandbls
Encoding: 223 223 137
Width: 479
GlyphClass: 2
Flags: HW
LayerCount: 2
Fore
SplineSet
18 346 m 2
 18 452 105 536 211 538 c 2
 349 538 l 1
 256 422 l 1
 212 422 l 2
 173 422 141 388 141 346 c 2
 141 0 l 1
 18 0 l 1
 18 346 l 2
301 328 m 2
 394 328 470 256 470 169 c 0
 470 74 385 -3 281 -3 c 0
 235 -3 195 15 166 46 c 1
 227 131 l 1
 242 122 262 115 281 115 c 0
 318 115 347 142 347 176 c 0
 347 202 320 229 286 229 c 2
 200 229 l 1
 200 328 l 1
 301 328 l 2
409 538 m 1
 409 444 l 1
 330 340 l 1
 321 341 311 342 301 342 c 2
 212 342 l 1
 369 538 l 1
 409 538 l 1
EndSplineSet
Validated: 1
EndChar

StartChar: agrave
Encoding: 224 224 138
Width: 519
GlyphClass: 2
Flags: HW
LayerCount: 2
Fore
SplineSet
356 643 m 1
 336 569 l 1
 125 606 l 1
 156 727 l 1
 356 643 l 1
333 538 m 1
 334 538 l 1
 518 0 l 1
 387 0 l 1
 267 347 l 1
 333 538 l 1
170 111 m 1
 132 0 l 1
 2 0 l 1
 186 538 l 1
 316 538 l 1
 207 218 l 1
 295 218 l 1
 333 111 l 1
 170 111 l 1
EndSplineSet
Validated: 1
EndChar

StartChar: aacute
Encoding: 225 225 139
Width: 519
GlyphClass: 2
Flags: HW
LayerCount: 2
Fore
SplineSet
155 643 m 1
 354 727 l 1
 385 606 l 1
 174 569 l 1
 155 643 l 1
333 538 m 1
 334 538 l 1
 518 0 l 1
 387 0 l 1
 267 347 l 1
 333 538 l 1
170 111 m 1
 132 0 l 1
 2 0 l 1
 186 538 l 1
 316 538 l 1
 207 218 l 1
 295 218 l 1
 333 111 l 1
 170 111 l 1
EndSplineSet
Validated: 1
EndChar

StartChar: acircumflex
Encoding: 226 226 140
Width: 519
GlyphClass: 2
Flags: HW
LayerCount: 2
Fore
SplineSet
86 647 m 1
 249 735 l 1
 255 735 l 1
 418 647 l 1
 385 567 l 1
 252 610 l 1
 119 567 l 1
 86 647 l 1
333 538 m 1
 334 538 l 1
 518 0 l 1
 387 0 l 1
 267 347 l 1
 333 538 l 1
170 111 m 1
 132 0 l 1
 2 0 l 1
 186 538 l 1
 316 538 l 1
 207 218 l 1
 295 218 l 1
 333 111 l 1
 170 111 l 1
EndSplineSet
Validated: 1
EndChar

StartChar: atilde
Encoding: 227 227 141
Width: 519
GlyphClass: 2
Flags: HW
LayerCount: 2
Fore
SplineSet
90 675 m 2
 115 707 153 728 197 728 c 0
 255 728 281 686 304 686 c 0
 309 686 314 690 317 694 c 2
 339 723 l 1
 436 650 l 1
 414 622 l 2
 389 590 351 568 307 568 c 0
 249 568 222 608 199 608 c 0
 194 608 189 606 186 602 c 2
 165 573 l 1
 68 646 l 1
 90 675 l 2
333 538 m 1
 334 538 l 1
 518 0 l 1
 387 0 l 1
 267 347 l 1
 333 538 l 1
170 111 m 1
 132 0 l 1
 2 0 l 1
 186 538 l 1
 316 538 l 1
 207 218 l 1
 295 218 l 1
 333 111 l 1
 170 111 l 1
EndSplineSet
Validated: 1
EndChar

StartChar: adieresis
Encoding: 228 228 142
Width: 519
GlyphClass: 2
Flags: HW
LayerCount: 2
Fore
SplineSet
109 584 m 1
 109 703 l 1
 229 703 l 1
 229 584 l 1
 109 584 l 1
275 584 m 1
 275 703 l 1
 397 703 l 1
 397 584 l 1
 275 584 l 1
333 538 m 1
 334 538 l 1
 518 0 l 1
 387 0 l 1
 267 347 l 1
 333 538 l 1
170 111 m 1
 132 0 l 1
 2 0 l 1
 186 538 l 1
 316 538 l 1
 207 218 l 1
 295 218 l 1
 333 111 l 1
 170 111 l 1
EndSplineSet
Validated: 1
EndChar

StartChar: aring
Encoding: 229 229 143
Width: 519
GlyphClass: 2
Flags: HW
LayerCount: 2
Fore
SplineSet
135 625 m 0
 135 693 190 748 258 748 c 0
 326 748 381 693 381 625 c 0
 381 557 326 502 258 502 c 0
 190 502 135 557 135 625 c 0
218 625 m 0
 218 602 235 584 258 584 c 0
 281 584 298 602 298 625 c 0
 298 648 281 666 258 666 c 0
 235 666 218 648 218 625 c 0
170 111 m 1
 132 0 l 1
 2 0 l 1
 177 513 l 1
 200 497 228 487 258 487 c 0
 273 487 288 490 301 494 c 1
 207 218 l 1
 295 218 l 1
 333 111 l 1
 170 111 l 1
321 502 m 1
 328 506 335 510 341 515 c 1
 518 0 l 1
 387 0 l 1
 267 347 l 1
 321 502 l 1
EndSplineSet
Validated: 1
EndChar

StartChar: ae
Encoding: 230 230 144
Width: 685
GlyphClass: 2
Flags: HW
LayerCount: 2
Fore
SplineSet
477 120 m 1
 676 120 l 1
 676 0 l 1
 477 0 l 1
 477 120 l 1
477 332 m 1
 637 332 l 1
 637 212 l 1
 477 212 l 1
 477 332 l 1
340 -2 m 1
 340 402 l 1
 463 402 l 1
 463 -2 l 1
 340 -2 l 1
184 538 m 1
 676 538 l 1
 676 418 l 1
 143 418 l 1
 184 538 l 1
207 218 m 1
 324 218 l 1
 324 111 l 1
 170 111 l 1
 132 0 l 1
 2 0 l 1
 139 402 l 1
 270 402 l 1
 207 218 l 1
EndSplineSet
Validated: 1
EndChar

StartChar: ccedilla
Encoding: 231 231 145
Width: 443
GlyphClass: 2
Flags: HW
LayerCount: 2
Fore
SplineSet
135 268 m 1
 135 183 187 115 249 115 c 0
 286 115 317 129 339 158 c 1
 432 82 l 1
 391 30 329 -3 249 -3 c 0
 117 -3 9 117 9 268 c 1
 135 268 l 1
274 -135 m 1
 296 -45 l 1
 345 -63 379 -109 379 -163 c 0
 379 -239 320 -298 244 -298 c 0
 207 -298 172 -285 147 -260 c 1
 215 -193 l 1
 223 -201 234 -203 244 -203 c 0
 267 -203 285 -186 285 -163 c 0
 285 -152 280 -142 274 -135 c 1
261 -123 m 1
 163 -123 l 1
 190 -11 l 1
 208 -16 229 -18 249 -18 c 0
 262 -18 275 -18 287 -16 c 1
 261 -123 l 1
339 380 m 1
 317 409 286 422 249 422 c 0
 190 422 142 363 136 285 c 1
 9 285 l 1
 16 428 121 541 249 541 c 0
 329 541 391 509 432 457 c 1
 339 380 l 1
EndSplineSet
Validated: 1
EndChar

StartChar: egrave
Encoding: 232 232 146
Width: 375
GlyphClass: 2
Flags: HW
LayerCount: 2
Fore
SplineSet
297 643 m 1
 276 569 l 1
 66 606 l 1
 96 727 l 1
 297 643 l 1
22 135 m 1
 22 402 l 1
 144 402 l 1
 144 135 l 1
 22 135 l 1
160 332 m 1
 329 332 l 1
 329 212 l 1
 160 212 l 1
 160 332 l 1
18 120 m 1
 367 120 l 1
 367 0 l 1
 18 0 l 1
 18 120 l 1
18 538 m 1
 367 538 l 1
 367 418 l 1
 18 418 l 1
 18 538 l 1
EndSplineSet
Validated: 1
EndChar

StartChar: eacute
Encoding: 233 233 147
Width: 375
GlyphClass: 2
Flags: HW
LayerCount: 2
Fore
SplineSet
95 643 m 1
 295 727 l 1
 326 606 l 1
 115 569 l 1
 95 643 l 1
22 135 m 1
 22 402 l 1
 144 402 l 1
 144 135 l 1
 22 135 l 1
160 332 m 1
 329 332 l 1
 329 212 l 1
 160 212 l 1
 160 332 l 1
18 120 m 1
 367 120 l 1
 367 0 l 1
 18 0 l 1
 18 120 l 1
18 538 m 1
 367 538 l 1
 367 418 l 1
 18 418 l 1
 18 538 l 1
EndSplineSet
Validated: 1
EndChar

StartChar: ecircumflex
Encoding: 234 234 148
Width: 375
GlyphClass: 2
Flags: HW
LayerCount: 2
Fore
SplineSet
27 647 m 1
 189 735 l 1
 196 735 l 1
 358 647 l 1
 326 567 l 1
 193 610 l 1
 59 567 l 1
 27 647 l 1
22 135 m 1
 22 402 l 1
 144 402 l 1
 144 135 l 1
 22 135 l 1
160 332 m 1
 329 332 l 1
 329 212 l 1
 160 212 l 1
 160 332 l 1
18 120 m 1
 367 120 l 1
 367 0 l 1
 18 0 l 1
 18 120 l 1
18 538 m 1
 367 538 l 1
 367 418 l 1
 18 418 l 1
 18 538 l 1
EndSplineSet
Validated: 1
EndChar

StartChar: edieresis
Encoding: 235 235 149
Width: 375
GlyphClass: 2
Flags: HW
LayerCount: 2
Fore
SplineSet
49 584 m 1
 49 703 l 1
 170 703 l 1
 170 584 l 1
 49 584 l 1
216 584 m 1
 216 703 l 1
 338 703 l 1
 338 584 l 1
 216 584 l 1
22 135 m 1
 22 402 l 1
 144 402 l 1
 144 135 l 1
 22 135 l 1
160 332 m 1
 329 332 l 1
 329 212 l 1
 160 212 l 1
 160 332 l 1
18 120 m 1
 367 120 l 1
 367 0 l 1
 18 0 l 1
 18 120 l 1
18 538 m 1
 367 538 l 1
 367 418 l 1
 18 418 l 1
 18 538 l 1
EndSplineSet
Validated: 1
EndChar

StartChar: igrave
Encoding: 236 236 150
Width: 165
GlyphClass: 2
Flags: HW
LayerCount: 2
Fore
SplineSet
187 643 m 1
 167 569 l 1
 -44 606 l 1
 -13 727 l 1
 187 643 l 1
22 0 m 1
 22 538 l 1
 144 538 l 1
 144 0 l 1
 22 0 l 1
EndSplineSet
Validated: 1
EndChar

StartChar: iacute
Encoding: 237 237 151
Width: 165
GlyphClass: 2
Flags: HW
LayerCount: 2
Fore
SplineSet
-14 643 m 1
 185 727 l 1
 216 606 l 1
 5 569 l 1
 -14 643 l 1
22 0 m 1
 22 538 l 1
 144 538 l 1
 144 0 l 1
 22 0 l 1
EndSplineSet
Validated: 1
EndChar

StartChar: icircumflex
Encoding: 238 238 152
Width: 165
GlyphClass: 2
Flags: HW
LayerCount: 2
Fore
SplineSet
-83 647 m 1
 80 735 l 1
 86 735 l 1
 249 647 l 1
 216 567 l 1
 83 610 l 1
 -50 567 l 1
 -83 647 l 1
22 0 m 1
 22 538 l 1
 144 538 l 1
 144 0 l 1
 22 0 l 1
EndSplineSet
Validated: 1
EndChar

StartChar: idieresis
Encoding: 239 239 153
Width: 165
GlyphClass: 2
Flags: HW
LayerCount: 2
Fore
SplineSet
-60 584 m 1
 -60 703 l 1
 60 703 l 1
 60 584 l 1
 -60 584 l 1
106 584 m 1
 106 703 l 1
 228 703 l 1
 228 584 l 1
 106 584 l 1
22 0 m 1
 22 538 l 1
 144 538 l 1
 144 0 l 1
 22 0 l 1
EndSplineSet
Validated: 1
EndChar

StartChar: eth
Encoding: 240 240 154
Width: 483
GlyphClass: 2
Flags: HW
LayerCount: 2
Fore
SplineSet
52 -3 m 1
 52 402 l 1
 175 402 l 1
 175 -3 l 1
 52 -3 l 1
190 120 m 1
 206 120 l 2
 285 120 348 186 348 268 c 0
 348 350 285 418 206 418 c 2
 49 418 l 1
 49 538 l 1
 206 538 l 2
 356 538 475 418 475 268 c 0
 475 118 356 0 206 0 c 2
 190 0 l 1
 190 120 l 1
190 326 m 1
 273 326 l 1
 273 227 l 1
 190 227 l 1
 190 326 l 1
37 227 m 1
 6 227 l 1
 6 326 l 1
 37 326 l 1
 37 227 l 1
EndSplineSet
Validated: 1
EndChar

StartChar: ntilde
Encoding: 241 241 155
Width: 436
GlyphClass: 2
Flags: HW
LayerCount: 2
Fore
SplineSet
47 675 m 2
 72 707 110 728 154 728 c 0
 212 728 238 686 261 686 c 0
 266 686 271 690 274 694 c 2
 296 723 l 1
 393 650 l 1
 371 622 l 2
 346 590 308 568 264 568 c 0
 206 568 179 608 156 608 c 0
 151 608 146 606 143 602 c 2
 122 573 l 1
 25 646 l 1
 47 675 l 2
162 538 m 1
 397 0 l 1
 274 0 l 1
 154 280 l 1
 154 538 l 1
 162 538 l 1
22 0 m 1
 22 538 l 1
 138 538 l 1
 138 0 l 1
 22 0 l 1
298 266 m 1
 298 538 l 1
 415 538 l 1
 415 0 l 1
 298 266 l 1
EndSplineSet
Validated: 1
EndChar

StartChar: ograve
Encoding: 242 242 156
Width: 485
GlyphClass: 2
Flags: HW
LayerCount: 2
Fore
SplineSet
347 643 m 1
 327 569 l 1
 116 606 l 1
 146 727 l 1
 347 643 l 1
227 540 m 1
 227 421 l 1
 175 411 135 346 135 268 c 1
 9 268 l 1
 9 412 105 531 227 540 c 1
350 268 m 0
 350 353 302 422 243 422 c 1
 243 541 l 1
 372 541 476 419 476 268 c 0
 476 117 372 -3 243 -3 c 0
 118 -3 16 111 9 254 c 1
 136 254 l 1
 141 176 188 115 243 115 c 0
 302 115 350 183 350 268 c 0
EndSplineSet
Validated: 1
EndChar

StartChar: oacute
Encoding: 243 243 157
Width: 485
GlyphClass: 2
Flags: HW
LayerCount: 2
Fore
SplineSet
146 643 m 1
 346 727 l 1
 377 606 l 1
 166 569 l 1
 146 643 l 1
227 540 m 1
 227 421 l 1
 175 411 135 346 135 268 c 1
 9 268 l 1
 9 412 105 531 227 540 c 1
350 268 m 0
 350 353 302 422 243 422 c 1
 243 541 l 1
 372 541 476 419 476 268 c 0
 476 117 372 -3 243 -3 c 0
 118 -3 16 111 9 254 c 1
 136 254 l 1
 141 176 188 115 243 115 c 0
 302 115 350 183 350 268 c 0
EndSplineSet
Validated: 1
EndChar

StartChar: ocircumflex
Encoding: 244 244 158
Width: 485
GlyphClass: 2
Flags: HW
LayerCount: 2
Fore
SplineSet
77 647 m 1
 240 735 l 1
 246 735 l 1
 409 647 l 1
 376 567 l 1
 243 610 l 1
 110 567 l 1
 77 647 l 1
227 540 m 1
 227 421 l 1
 175 411 135 346 135 268 c 1
 9 268 l 1
 9 412 105 531 227 540 c 1
350 268 m 0
 350 353 302 422 243 422 c 1
 243 541 l 1
 372 541 476 419 476 268 c 0
 476 117 372 -3 243 -3 c 0
 118 -3 16 111 9 254 c 1
 136 254 l 1
 141 176 188 115 243 115 c 0
 302 115 350 183 350 268 c 0
EndSplineSet
Validated: 1
EndChar

StartChar: otilde
Encoding: 245 245 159
Width: 485
GlyphClass: 2
Flags: HW
LayerCount: 2
Fore
SplineSet
81 675 m 2
 106 707 143 728 187 728 c 0
 245 728 272 686 295 686 c 0
 300 686 305 690 308 694 c 2
 330 723 l 1
 427 650 l 1
 404 622 l 2
 379 590 342 568 298 568 c 0
 240 568 212 608 189 608 c 0
 184 608 180 606 177 602 c 2
 156 573 l 1
 58 646 l 1
 81 675 l 2
227 540 m 1
 227 421 l 1
 175 411 135 346 135 268 c 1
 9 268 l 1
 9 412 105 531 227 540 c 1
350 268 m 0
 350 353 302 422 243 422 c 1
 243 541 l 1
 372 541 476 419 476 268 c 0
 476 117 372 -3 243 -3 c 0
 118 -3 16 111 9 254 c 1
 136 254 l 1
 141 176 188 115 243 115 c 0
 302 115 350 183 350 268 c 0
EndSplineSet
Validated: 1
EndChar

StartChar: odieresis
Encoding: 246 246 160
Width: 485
GlyphClass: 2
Flags: HW
LayerCount: 2
Fore
SplineSet
98 584 m 1
 98 703 l 1
 219 703 l 1
 219 584 l 1
 98 584 l 1
265 584 m 1
 265 703 l 1
 387 703 l 1
 387 584 l 1
 265 584 l 1
227 540 m 1
 227 421 l 1
 175 411 135 346 135 268 c 1
 9 268 l 1
 9 412 105 531 227 540 c 1
350 268 m 0
 350 353 302 422 243 422 c 1
 243 541 l 1
 372 541 476 419 476 268 c 0
 476 117 372 -3 243 -3 c 0
 118 -3 16 111 9 254 c 1
 136 254 l 1
 141 176 188 115 243 115 c 0
 302 115 350 183 350 268 c 0
EndSplineSet
Validated: 1
EndChar

StartChar: oslash
Encoding: 248 248 161
Width: 485
GlyphClass: 2
Flags: HW
LayerCount: 2
Fore
SplineSet
302 548 m 1
 334 623 l 1
 422 584 l 1
 388 502 l 1
 362 524 334 539 302 548 c 1
322 340 m 1
 153 -69 l 1
 63 -32 l 1
 245 407 l 1
 276 406 306 381 322 340 c 1
476 254 m 1
 469 111 368 -3 243 -3 c 0
 228 -3 212 -1 198 2 c 1
 245 116 l 1
 299 118 344 177 349 254 c 1
 476 254 l 1
350 268 m 1
 350 353 302 422 243 422 c 0
 184 422 135 353 135 268 c 0
 135 245 138 225 144 206 c 1
 87 67 l 1
 40 117 9 188 9 268 c 0
 9 419 114 541 243 541 c 0
 372 541 476 419 476 268 c 1
 350 268 l 1
EndSplineSet
Validated: 1
EndChar

StartChar: ugrave
Encoding: 249 249 162
Width: 414
GlyphClass: 2
Flags: HW
LayerCount: 2
Fore
SplineSet
311 643 m 1
 291 569 l 1
 80 606 l 1
 111 727 l 1
 311 643 l 1
209 0 m 1
 103 0 15 87 15 193 c 2
 15 538 l 1
 138 538 l 1
 138 193 l 2
 138 157 170 120 209 120 c 1
 209 0 l 1
224 1 m 1
 224 122 l 1
 257 130 281 162 281 193 c 2
 281 538 l 1
 399 538 l 1
 399 193 l 2
 399 93 322 9 224 1 c 1
EndSplineSet
Validated: 1
EndChar

StartChar: uacute
Encoding: 250 250 163
Width: 414
GlyphClass: 2
Flags: HW
LayerCount: 2
Fore
SplineSet
110 643 m 1
 309 727 l 1
 340 606 l 1
 129 569 l 1
 110 643 l 1
209 0 m 1
 103 0 15 87 15 193 c 2
 15 538 l 1
 138 538 l 1
 138 193 l 2
 138 157 170 120 209 120 c 1
 209 0 l 1
224 1 m 1
 224 122 l 1
 257 130 281 162 281 193 c 2
 281 538 l 1
 399 538 l 1
 399 193 l 2
 399 93 322 9 224 1 c 1
EndSplineSet
Validated: 1
EndChar

StartChar: ucircumflex
Encoding: 251 251 164
Width: 414
GlyphClass: 2
Flags: HW
LayerCount: 2
Fore
SplineSet
41 647 m 1
 204 735 l 1
 210 735 l 1
 373 647 l 1
 340 567 l 1
 207 610 l 1
 74 567 l 1
 41 647 l 1
209 0 m 1
 103 0 15 87 15 193 c 2
 15 538 l 1
 138 538 l 1
 138 193 l 2
 138 157 170 120 209 120 c 1
 209 0 l 1
224 1 m 1
 224 122 l 1
 257 130 281 162 281 193 c 2
 281 538 l 1
 399 538 l 1
 399 193 l 2
 399 93 322 9 224 1 c 1
EndSplineSet
Validated: 1
EndChar

StartChar: udieresis
Encoding: 252 252 165
Width: 414
GlyphClass: 2
Flags: HW
LayerCount: 2
Fore
SplineSet
63 584 m 1
 63 703 l 1
 184 703 l 1
 184 584 l 1
 63 584 l 1
230 584 m 1
 230 703 l 1
 352 703 l 1
 352 584 l 1
 230 584 l 1
209 0 m 1
 103 0 15 87 15 193 c 2
 15 538 l 1
 138 538 l 1
 138 193 l 2
 138 157 170 120 209 120 c 1
 209 0 l 1
224 1 m 1
 224 122 l 1
 257 130 281 162 281 193 c 2
 281 538 l 1
 399 538 l 1
 399 193 l 2
 399 93 322 9 224 1 c 1
EndSplineSet
Validated: 1
EndChar

StartChar: yacute
Encoding: 253 253 166
Width: 503
GlyphClass: 2
Flags: HW
LayerCount: 2
Fore
SplineSet
155 643 m 1
 354 727 l 1
 385 606 l 1
 174 569 l 1
 155 643 l 1
2 538 m 1
 144 538 l 1
 313 231 l 1
 313 0 l 1
 190 0 l 1
 190 218 l 1
 2 538 l 1
327 241 m 1
 261 358 l 1
 359 538 l 1
 502 538 l 1
 327 241 l 1
EndSplineSet
Validated: 1
EndChar

StartChar: thorn
Encoding: 254 254 167
Width: 437
GlyphClass: 2
Flags: HW
LayerCount: 2
Fore
SplineSet
22 507 m 1
 22 538 l 1
 144 538 l 1
 144 507 l 1
 22 507 l 1
22 0 m 1
 22 356 l 1
 144 356 l 1
 144 0 l 1
 22 0 l 1
160 243 m 1
 237 243 l 2
 275 243 305 271 305 307 c 0
 305 343 275 372 237 372 c 2
 18 372 l 1
 18 492 l 1
 237 492 l 2
 343 492 428 408 428 307 c 0
 428 206 343 123 237 123 c 2
 160 123 l 1
 160 243 l 1
EndSplineSet
Validated: 1
EndChar

StartChar: ydieresis
Encoding: 255 255 168
Width: 503
GlyphClass: 2
Flags: HW
LayerCount: 2
Fore
SplineSet
109 584 m 1
 109 703 l 1
 229 703 l 1
 229 584 l 1
 109 584 l 1
275 584 m 1
 275 703 l 1
 397 703 l 1
 397 584 l 1
 275 584 l 1
2 538 m 1
 144 538 l 1
 313 231 l 1
 313 0 l 1
 190 0 l 1
 190 218 l 1
 2 538 l 1
327 241 m 1
 261 358 l 1
 359 538 l 1
 502 538 l 1
 327 241 l 1
EndSplineSet
Validated: 1
EndChar

StartChar: Amacron
Encoding: 256 256 169
Width: 519
GlyphClass: 2
Flags: HW
LayerCount: 2
Fore
SplineSet
106 590 m 1
 106 703 l 1
 398 703 l 1
 398 590 l 1
 106 590 l 1
333 538 m 1
 334 538 l 1
 518 0 l 1
 387 0 l 1
 267 347 l 1
 333 538 l 1
170 111 m 1
 132 0 l 1
 2 0 l 1
 186 538 l 1
 316 538 l 1
 207 218 l 1
 295 218 l 1
 333 111 l 1
 170 111 l 1
EndSplineSet
Validated: 1
EndChar

StartChar: amacron
Encoding: 257 257 170
Width: 519
GlyphClass: 2
Flags: HW
LayerCount: 2
Fore
SplineSet
106 590 m 1
 106 703 l 1
 398 703 l 1
 398 590 l 1
 106 590 l 1
333 538 m 1
 334 538 l 1
 518 0 l 1
 387 0 l 1
 267 347 l 1
 333 538 l 1
170 111 m 1
 132 0 l 1
 2 0 l 1
 186 538 l 1
 316 538 l 1
 207 218 l 1
 295 218 l 1
 333 111 l 1
 170 111 l 1
EndSplineSet
Validated: 1
EndChar

StartChar: Abreve
Encoding: 258 258 171
Width: 519
GlyphClass: 2
Flags: HW
LayerCount: 2
Fore
SplineSet
80 651 m 1
 117 733 l 1
 162 711 203 697 252 697 c 0
 301 697 342 711 387 733 c 1
 424 651 l 1
 373 604 319 571 252 571 c 0
 185 571 131 604 80 651 c 1
333 538 m 1
 334 538 l 1
 518 0 l 1
 387 0 l 1
 267 347 l 1
 333 538 l 1
170 111 m 1
 132 0 l 1
 2 0 l 1
 186 538 l 1
 316 538 l 1
 207 218 l 1
 295 218 l 1
 333 111 l 1
 170 111 l 1
EndSplineSet
Validated: 1
EndChar

StartChar: abreve
Encoding: 259 259 172
Width: 519
GlyphClass: 2
Flags: HW
LayerCount: 2
Fore
SplineSet
80 651 m 1
 117 733 l 1
 162 711 203 697 252 697 c 0
 301 697 342 711 387 733 c 1
 424 651 l 1
 373 604 319 571 252 571 c 0
 185 571 131 604 80 651 c 1
333 538 m 1
 334 538 l 1
 518 0 l 1
 387 0 l 1
 267 347 l 1
 333 538 l 1
170 111 m 1
 132 0 l 1
 2 0 l 1
 186 538 l 1
 316 538 l 1
 207 218 l 1
 295 218 l 1
 333 111 l 1
 170 111 l 1
EndSplineSet
Validated: 1
EndChar

StartChar: Aogonek
Encoding: 260 260 173
Width: 519
GlyphClass: 2
Flags: HW
LayerCount: 2
Fore
SplineSet
369 -15 m 1
 471 -15 l 1
 437 -41 412 -71 412 -109 c 0
 412 -125 421 -138 434 -144 c 1
 434 -239 l 1
 365 -232 311 -180 311 -117 c 0
 311 -78 335 -45 369 -15 c 1
170 111 m 1
 132 0 l 1
 2 0 l 1
 186 538 l 1
 316 538 l 1
 207 218 l 1
 295 218 l 1
 333 111 l 1
 170 111 l 1
333 538 m 1
 334 538 l 1
 518 0 l 1
 387 0 l 1
 267 347 l 1
 333 538 l 1
451 -147 m 1
 480 -147 504 -128 504 -101 c 1
 588 -101 l 1
 588 -178 528 -240 451 -240 c 1
 451 -147 l 1
EndSplineSet
Validated: 1
EndChar

StartChar: aogonek
Encoding: 261 261 174
Width: 519
GlyphClass: 2
Flags: HW
LayerCount: 2
Fore
SplineSet
369 -15 m 1
 471 -15 l 1
 437 -41 412 -71 412 -109 c 0
 412 -125 421 -138 434 -144 c 1
 434 -239 l 1
 365 -232 311 -180 311 -117 c 0
 311 -78 335 -45 369 -15 c 1
170 111 m 1
 132 0 l 1
 2 0 l 1
 186 538 l 1
 316 538 l 1
 207 218 l 1
 295 218 l 1
 333 111 l 1
 170 111 l 1
333 538 m 1
 334 538 l 1
 518 0 l 1
 387 0 l 1
 267 347 l 1
 333 538 l 1
451 -147 m 1
 480 -147 504 -128 504 -101 c 1
 588 -101 l 1
 588 -178 528 -240 451 -240 c 1
 451 -147 l 1
EndSplineSet
Validated: 1
EndChar

StartChar: Cacute
Encoding: 262 262 175
Width: 443
GlyphClass: 2
Flags: HW
LayerCount: 2
Fore
SplineSet
147 643 m 1
 347 727 l 1
 378 606 l 1
 167 569 l 1
 147 643 l 1
135 268 m 1
 135 183 187 115 249 115 c 0
 286 115 317 129 339 158 c 1
 432 82 l 1
 391 30 329 -3 249 -3 c 0
 117 -3 9 117 9 268 c 1
 135 268 l 1
339 380 m 1
 317 409 286 422 249 422 c 0
 190 422 142 363 136 285 c 1
 9 285 l 1
 16 428 121 541 249 541 c 0
 329 541 391 509 432 457 c 1
 339 380 l 1
EndSplineSet
Validated: 1
EndChar

StartChar: cacute
Encoding: 263 263 176
Width: 443
GlyphClass: 2
Flags: HW
LayerCount: 2
Fore
SplineSet
147 643 m 1
 347 727 l 1
 378 606 l 1
 167 569 l 1
 147 643 l 1
135 268 m 1
 135 183 187 115 249 115 c 0
 286 115 317 129 339 158 c 1
 432 82 l 1
 391 30 329 -3 249 -3 c 0
 117 -3 9 117 9 268 c 1
 135 268 l 1
339 380 m 1
 317 409 286 422 249 422 c 0
 190 422 142 363 136 285 c 1
 9 285 l 1
 16 428 121 541 249 541 c 0
 329 541 391 509 432 457 c 1
 339 380 l 1
EndSplineSet
Validated: 1
EndChar

StartChar: Ccircumflex
Encoding: 264 264 177
Width: 443
GlyphClass: 2
Flags: HW
LayerCount: 2
Fore
SplineSet
72 647 m 1
 234 735 l 1
 241 735 l 1
 403 647 l 1
 371 567 l 1
 238 610 l 1
 104 567 l 1
 72 647 l 1
135 268 m 1
 135 183 187 115 249 115 c 0
 286 115 317 129 339 158 c 1
 432 82 l 1
 391 30 329 -3 249 -3 c 0
 117 -3 9 117 9 268 c 1
 135 268 l 1
339 380 m 1
 317 409 286 422 249 422 c 0
 190 422 142 363 136 285 c 1
 9 285 l 1
 16 428 121 541 249 541 c 0
 329 541 391 509 432 457 c 1
 339 380 l 1
EndSplineSet
Validated: 1
EndChar

StartChar: ccircumflex
Encoding: 265 265 178
Width: 443
GlyphClass: 2
Flags: HW
LayerCount: 2
Fore
SplineSet
72 647 m 1
 234 735 l 1
 241 735 l 1
 403 647 l 1
 371 567 l 1
 238 610 l 1
 104 567 l 1
 72 647 l 1
135 268 m 1
 135 183 187 115 249 115 c 0
 286 115 317 129 339 158 c 1
 432 82 l 1
 391 30 329 -3 249 -3 c 0
 117 -3 9 117 9 268 c 1
 135 268 l 1
339 380 m 1
 317 409 286 422 249 422 c 0
 190 422 142 363 136 285 c 1
 9 285 l 1
 16 428 121 541 249 541 c 0
 329 541 391 509 432 457 c 1
 339 380 l 1
EndSplineSet
Validated: 1
EndChar

StartChar: Cdotaccent
Encoding: 266 266 179
Width: 443
GlyphClass: 2
Flags: HW
LayerCount: 2
Fore
SplineSet
176 574 m 1
 176 697 l 1
 299 697 l 1
 299 574 l 1
 176 574 l 1
135 268 m 1
 135 183 187 115 249 115 c 0
 286 115 317 129 339 158 c 1
 432 82 l 1
 391 30 329 -3 249 -3 c 0
 117 -3 9 117 9 268 c 1
 135 268 l 1
339 380 m 1
 317 409 286 422 249 422 c 0
 190 422 142 363 136 285 c 1
 9 285 l 1
 16 428 121 541 249 541 c 0
 329 541 391 509 432 457 c 1
 339 380 l 1
EndSplineSet
Validated: 1
EndChar

StartChar: cdotaccent
Encoding: 267 267 180
Width: 443
GlyphClass: 2
Flags: HW
LayerCount: 2
Fore
SplineSet
176 574 m 1
 176 697 l 1
 299 697 l 1
 299 574 l 1
 176 574 l 1
135 268 m 1
 135 183 187 115 249 115 c 0
 286 115 317 129 339 158 c 1
 432 82 l 1
 391 30 329 -3 249 -3 c 0
 117 -3 9 117 9 268 c 1
 135 268 l 1
339 380 m 1
 317 409 286 422 249 422 c 0
 190 422 142 363 136 285 c 1
 9 285 l 1
 16 428 121 541 249 541 c 0
 329 541 391 509 432 457 c 1
 339 380 l 1
EndSplineSet
Validated: 1
EndChar

StartChar: Ccaron
Encoding: 268 268 181
Width: 443
GlyphClass: 2
Flags: HW
LayerCount: 2
Fore
SplineSet
403 655 m 1
 241 567 l 1
 234 567 l 1
 72 655 l 1
 104 735 l 1
 238 692 l 1
 371 735 l 1
 403 655 l 1
135 268 m 1
 135 183 187 115 249 115 c 0
 286 115 317 129 339 158 c 1
 432 82 l 1
 391 30 329 -3 249 -3 c 0
 117 -3 9 117 9 268 c 1
 135 268 l 1
339 380 m 1
 317 409 286 422 249 422 c 0
 190 422 142 363 136 285 c 1
 9 285 l 1
 16 428 121 541 249 541 c 0
 329 541 391 509 432 457 c 1
 339 380 l 1
EndSplineSet
Validated: 1
EndChar

StartChar: ccaron
Encoding: 269 269 182
Width: 443
GlyphClass: 2
Flags: HW
LayerCount: 2
Fore
SplineSet
403 655 m 1
 241 567 l 1
 234 567 l 1
 72 655 l 1
 104 735 l 1
 238 692 l 1
 371 735 l 1
 403 655 l 1
135 268 m 1
 135 183 187 115 249 115 c 0
 286 115 317 129 339 158 c 1
 432 82 l 1
 391 30 329 -3 249 -3 c 0
 117 -3 9 117 9 268 c 1
 135 268 l 1
339 380 m 1
 317 409 286 422 249 422 c 0
 190 422 142 363 136 285 c 1
 9 285 l 1
 16 428 121 541 249 541 c 0
 329 541 391 509 432 457 c 1
 339 380 l 1
EndSplineSet
Validated: 1
EndChar

StartChar: Dcaron
Encoding: 270 270 183
Width: 452
GlyphClass: 2
Flags: HW
LayerCount: 2
Fore
SplineSet
348 655 m 1
 185 567 l 1
 179 567 l 1
 16 655 l 1
 49 735 l 1
 182 692 l 1
 315 735 l 1
 348 655 l 1
22 -3 m 1
 22 402 l 1
 144 402 l 1
 144 -3 l 1
 22 -3 l 1
160 120 m 1
 175 120 l 2
 254 120 317 186 317 268 c 0
 317 350 254 418 175 418 c 2
 18 418 l 1
 18 538 l 1
 175 538 l 2
 325 538 444 418 444 268 c 0
 444 118 325 0 175 0 c 2
 160 0 l 1
 160 120 l 1
EndSplineSet
Validated: 1
EndChar

StartChar: dcaron
Encoding: 271 271 184
Width: 452
GlyphClass: 2
Flags: HW
LayerCount: 2
Fore
SplineSet
348 655 m 1
 185 567 l 1
 179 567 l 1
 16 655 l 1
 49 735 l 1
 182 692 l 1
 315 735 l 1
 348 655 l 1
22 -3 m 1
 22 402 l 1
 144 402 l 1
 144 -3 l 1
 22 -3 l 1
160 120 m 1
 175 120 l 2
 254 120 317 186 317 268 c 0
 317 350 254 418 175 418 c 2
 18 418 l 1
 18 538 l 1
 175 538 l 2
 325 538 444 418 444 268 c 0
 444 118 325 0 175 0 c 2
 160 0 l 1
 160 120 l 1
EndSplineSet
Validated: 1
EndChar

StartChar: Dcroat
Encoding: 272 272 185
Width: 483
GlyphClass: 2
Flags: HW
LayerCount: 2
Fore
SplineSet
52 -3 m 1
 52 402 l 1
 175 402 l 1
 175 -3 l 1
 52 -3 l 1
190 120 m 1
 206 120 l 2
 285 120 348 186 348 268 c 0
 348 350 285 418 206 418 c 2
 49 418 l 1
 49 538 l 1
 206 538 l 2
 356 538 475 418 475 268 c 0
 475 118 356 0 206 0 c 2
 190 0 l 1
 190 120 l 1
190 326 m 1
 273 326 l 1
 273 227 l 1
 190 227 l 1
 190 326 l 1
37 227 m 1
 6 227 l 1
 6 326 l 1
 37 326 l 1
 37 227 l 1
EndSplineSet
Validated: 1
EndChar

StartChar: dcroat
Encoding: 273 273 186
Width: 483
GlyphClass: 2
Flags: HW
LayerCount: 2
Fore
SplineSet
52 -3 m 1
 52 402 l 1
 175 402 l 1
 175 -3 l 1
 52 -3 l 1
190 120 m 1
 206 120 l 2
 285 120 348 186 348 268 c 0
 348 350 285 418 206 418 c 2
 49 418 l 1
 49 538 l 1
 206 538 l 2
 356 538 475 418 475 268 c 0
 475 118 356 0 206 0 c 2
 190 0 l 1
 190 120 l 1
190 326 m 1
 273 326 l 1
 273 227 l 1
 190 227 l 1
 190 326 l 1
37 227 m 1
 6 227 l 1
 6 326 l 1
 37 326 l 1
 37 227 l 1
EndSplineSet
Validated: 1
EndChar

StartChar: Emacron
Encoding: 274 274 187
Width: 375
GlyphClass: 2
Flags: HW
LayerCount: 2
Fore
SplineSet
47 590 m 1
 47 703 l 1
 339 703 l 1
 339 590 l 1
 47 590 l 1
22 135 m 1
 22 402 l 1
 144 402 l 1
 144 135 l 1
 22 135 l 1
160 332 m 1
 329 332 l 1
 329 212 l 1
 160 212 l 1
 160 332 l 1
18 120 m 1
 367 120 l 1
 367 0 l 1
 18 0 l 1
 18 120 l 1
18 538 m 1
 367 538 l 1
 367 418 l 1
 18 418 l 1
 18 538 l 1
EndSplineSet
Validated: 1
EndChar

StartChar: emacron
Encoding: 275 275 188
Width: 375
GlyphClass: 2
Flags: HW
LayerCount: 2
Fore
SplineSet
47 590 m 1
 47 703 l 1
 339 703 l 1
 339 590 l 1
 47 590 l 1
22 135 m 1
 22 402 l 1
 144 402 l 1
 144 135 l 1
 22 135 l 1
160 332 m 1
 329 332 l 1
 329 212 l 1
 160 212 l 1
 160 332 l 1
18 120 m 1
 367 120 l 1
 367 0 l 1
 18 0 l 1
 18 120 l 1
18 538 m 1
 367 538 l 1
 367 418 l 1
 18 418 l 1
 18 538 l 1
EndSplineSet
Validated: 1
EndChar

StartChar: Ebreve
Encoding: 276 276 189
Width: 375
GlyphClass: 2
Flags: HW
LayerCount: 2
Fore
SplineSet
20 651 m 1
 57 733 l 1
 102 711 144 697 193 697 c 0
 242 697 283 711 328 733 c 1
 365 651 l 1
 314 604 260 571 193 571 c 0
 126 571 71 604 20 651 c 1
22 135 m 1
 22 402 l 1
 144 402 l 1
 144 135 l 1
 22 135 l 1
160 332 m 1
 329 332 l 1
 329 212 l 1
 160 212 l 1
 160 332 l 1
18 120 m 1
 367 120 l 1
 367 0 l 1
 18 0 l 1
 18 120 l 1
18 538 m 1
 367 538 l 1
 367 418 l 1
 18 418 l 1
 18 538 l 1
EndSplineSet
Validated: 1
EndChar

StartChar: ebreve
Encoding: 277 277 190
Width: 375
GlyphClass: 2
Flags: HW
LayerCount: 2
Fore
SplineSet
20 651 m 1
 57 733 l 1
 102 711 144 697 193 697 c 0
 242 697 283 711 328 733 c 1
 365 651 l 1
 314 604 260 571 193 571 c 0
 126 571 71 604 20 651 c 1
22 135 m 1
 22 402 l 1
 144 402 l 1
 144 135 l 1
 22 135 l 1
160 332 m 1
 329 332 l 1
 329 212 l 1
 160 212 l 1
 160 332 l 1
18 120 m 1
 367 120 l 1
 367 0 l 1
 18 0 l 1
 18 120 l 1
18 538 m 1
 367 538 l 1
 367 418 l 1
 18 418 l 1
 18 538 l 1
EndSplineSet
Validated: 1
EndChar

StartChar: Edotaccent
Encoding: 278 278 191
Width: 375
GlyphClass: 2
Flags: HW
LayerCount: 2
Fore
SplineSet
131 574 m 1
 131 697 l 1
 254 697 l 1
 254 574 l 1
 131 574 l 1
22 135 m 1
 22 402 l 1
 144 402 l 1
 144 135 l 1
 22 135 l 1
160 332 m 1
 329 332 l 1
 329 212 l 1
 160 212 l 1
 160 332 l 1
18 120 m 1
 367 120 l 1
 367 0 l 1
 18 0 l 1
 18 120 l 1
18 538 m 1
 367 538 l 1
 367 418 l 1
 18 418 l 1
 18 538 l 1
EndSplineSet
Validated: 1
EndChar

StartChar: edotaccent
Encoding: 279 279 192
Width: 375
GlyphClass: 2
Flags: HW
LayerCount: 2
Fore
SplineSet
131 574 m 1
 131 697 l 1
 254 697 l 1
 254 574 l 1
 131 574 l 1
22 135 m 1
 22 402 l 1
 144 402 l 1
 144 135 l 1
 22 135 l 1
160 332 m 1
 329 332 l 1
 329 212 l 1
 160 212 l 1
 160 332 l 1
18 120 m 1
 367 120 l 1
 367 0 l 1
 18 0 l 1
 18 120 l 1
18 538 m 1
 367 538 l 1
 367 418 l 1
 18 418 l 1
 18 538 l 1
EndSplineSet
Validated: 1
EndChar

StartChar: Eogonek
Encoding: 280 280 193
Width: 375
GlyphClass: 2
Flags: HW
LayerCount: 2
Fore
SplineSet
18 120 m 1
 367 120 l 1
 367 0 l 1
 18 0 l 1
 18 120 l 1
266 -147 m 1
 295 -147 319 -128 319 -101 c 1
 403 -101 l 1
 403 -178 343 -240 266 -240 c 1
 266 -147 l 1
18 538 m 1
 367 538 l 1
 367 418 l 1
 18 418 l 1
 18 538 l 1
160 332 m 1
 329 332 l 1
 329 212 l 1
 160 212 l 1
 160 332 l 1
22 135 m 1
 22 402 l 1
 144 402 l 1
 144 135 l 1
 22 135 l 1
184 -15 m 1
 287 -15 l 1
 253 -41 227 -71 227 -109 c 0
 227 -125 237 -138 250 -144 c 1
 250 -239 l 1
 181 -232 127 -180 127 -117 c 0
 127 -78 150 -45 184 -15 c 1
EndSplineSet
Validated: 1
EndChar

StartChar: eogonek
Encoding: 281 281 194
Width: 375
GlyphClass: 2
Flags: HW
LayerCount: 2
Fore
SplineSet
18 120 m 1
 367 120 l 1
 367 0 l 1
 18 0 l 1
 18 120 l 1
266 -147 m 1
 295 -147 319 -128 319 -101 c 1
 403 -101 l 1
 403 -178 343 -240 266 -240 c 1
 266 -147 l 1
18 538 m 1
 367 538 l 1
 367 418 l 1
 18 418 l 1
 18 538 l 1
160 332 m 1
 329 332 l 1
 329 212 l 1
 160 212 l 1
 160 332 l 1
22 135 m 1
 22 402 l 1
 144 402 l 1
 144 135 l 1
 22 135 l 1
184 -15 m 1
 287 -15 l 1
 253 -41 227 -71 227 -109 c 0
 227 -125 237 -138 250 -144 c 1
 250 -239 l 1
 181 -232 127 -180 127 -117 c 0
 127 -78 150 -45 184 -15 c 1
EndSplineSet
Validated: 1
EndChar

StartChar: Ecaron
Encoding: 282 282 195
Width: 375
GlyphClass: 2
Flags: HW
LayerCount: 2
Fore
SplineSet
358 655 m 1
 196 567 l 1
 189 567 l 1
 27 655 l 1
 59 735 l 1
 193 692 l 1
 326 735 l 1
 358 655 l 1
22 135 m 1
 22 402 l 1
 144 402 l 1
 144 135 l 1
 22 135 l 1
160 332 m 1
 329 332 l 1
 329 212 l 1
 160 212 l 1
 160 332 l 1
18 120 m 1
 367 120 l 1
 367 0 l 1
 18 0 l 1
 18 120 l 1
18 538 m 1
 367 538 l 1
 367 418 l 1
 18 418 l 1
 18 538 l 1
EndSplineSet
Validated: 1
EndChar

StartChar: ecaron
Encoding: 283 283 196
Width: 375
GlyphClass: 2
Flags: HW
LayerCount: 2
Fore
SplineSet
358 655 m 1
 196 567 l 1
 189 567 l 1
 27 655 l 1
 59 735 l 1
 193 692 l 1
 326 735 l 1
 358 655 l 1
22 135 m 1
 22 402 l 1
 144 402 l 1
 144 135 l 1
 22 135 l 1
160 332 m 1
 329 332 l 1
 329 212 l 1
 160 212 l 1
 160 332 l 1
18 120 m 1
 367 120 l 1
 367 0 l 1
 18 0 l 1
 18 120 l 1
18 538 m 1
 367 538 l 1
 367 418 l 1
 18 418 l 1
 18 538 l 1
EndSplineSet
Validated: 1
EndChar

StartChar: Gcircumflex
Encoding: 284 284 197
Width: 463
GlyphClass: 2
Flags: HW
LayerCount: 2
Fore
SplineSet
70 647 m 1
 232 735 l 1
 239 735 l 1
 401 647 l 1
 369 567 l 1
 236 610 l 1
 102 567 l 1
 70 647 l 1
326 82 m 1
 326 200 l 1
 449 200 l 1
 449 -4 l 1
 326 82 l 1
455 215 m 1
 229 215 l 1
 229 323 l 1
 455 323 l 1
 455 215 l 1
339 380 m 1
 317 409 286 422 249 422 c 0
 190 422 142 363 136 285 c 1
 9 285 l 1
 16 428 121 541 249 541 c 0
 329 541 391 509 432 457 c 1
 339 380 l 1
135 268 m 1
 135 183 187 115 249 115 c 0
 272 115 293 120 310 131 c 1
 310 74 l 1
 373 30 l 1
 338 10 297 -3 249 -3 c 0
 117 -3 9 117 9 268 c 1
 135 268 l 1
EndSplineSet
Validated: 1
EndChar

StartChar: gcircumflex
Encoding: 285 285 198
Width: 463
GlyphClass: 2
Flags: HW
LayerCount: 2
Fore
SplineSet
70 647 m 1
 232 735 l 1
 239 735 l 1
 401 647 l 1
 369 567 l 1
 236 610 l 1
 102 567 l 1
 70 647 l 1
326 82 m 1
 326 200 l 1
 449 200 l 1
 449 -4 l 1
 326 82 l 1
455 215 m 1
 229 215 l 1
 229 323 l 1
 455 323 l 1
 455 215 l 1
339 380 m 1
 317 409 286 422 249 422 c 0
 190 422 142 363 136 285 c 1
 9 285 l 1
 16 428 121 541 249 541 c 0
 329 541 391 509 432 457 c 1
 339 380 l 1
135 268 m 1
 135 183 187 115 249 115 c 0
 272 115 293 120 310 131 c 1
 310 74 l 1
 373 30 l 1
 338 10 297 -3 249 -3 c 0
 117 -3 9 117 9 268 c 1
 135 268 l 1
EndSplineSet
Validated: 1
EndChar

StartChar: Gbreve
Encoding: 286 286 199
Width: 463
GlyphClass: 2
Flags: HW
LayerCount: 2
Fore
SplineSet
63 651 m 1
 100 733 l 1
 145 711 187 697 236 697 c 0
 285 697 326 711 371 733 c 1
 408 651 l 1
 357 604 303 571 236 571 c 0
 169 571 114 604 63 651 c 1
326 82 m 1
 326 200 l 1
 449 200 l 1
 449 -4 l 1
 326 82 l 1
455 215 m 1
 229 215 l 1
 229 323 l 1
 455 323 l 1
 455 215 l 1
339 380 m 1
 317 409 286 422 249 422 c 0
 190 422 142 363 136 285 c 1
 9 285 l 1
 16 428 121 541 249 541 c 0
 329 541 391 509 432 457 c 1
 339 380 l 1
135 268 m 1
 135 183 187 115 249 115 c 0
 272 115 293 120 310 131 c 1
 310 74 l 1
 373 30 l 1
 338 10 297 -3 249 -3 c 0
 117 -3 9 117 9 268 c 1
 135 268 l 1
EndSplineSet
Validated: 1
EndChar

StartChar: gbreve
Encoding: 287 287 200
Width: 463
GlyphClass: 2
Flags: HW
LayerCount: 2
Fore
SplineSet
63 651 m 1
 100 733 l 1
 145 711 187 697 236 697 c 0
 285 697 326 711 371 733 c 1
 408 651 l 1
 357 604 303 571 236 571 c 0
 169 571 114 604 63 651 c 1
326 82 m 1
 326 200 l 1
 449 200 l 1
 449 -4 l 1
 326 82 l 1
455 215 m 1
 229 215 l 1
 229 323 l 1
 455 323 l 1
 455 215 l 1
339 380 m 1
 317 409 286 422 249 422 c 0
 190 422 142 363 136 285 c 1
 9 285 l 1
 16 428 121 541 249 541 c 0
 329 541 391 509 432 457 c 1
 339 380 l 1
135 268 m 1
 135 183 187 115 249 115 c 0
 272 115 293 120 310 131 c 1
 310 74 l 1
 373 30 l 1
 338 10 297 -3 249 -3 c 0
 117 -3 9 117 9 268 c 1
 135 268 l 1
EndSplineSet
Validated: 1
EndChar

StartChar: Gdotaccent
Encoding: 288 288 201
Width: 463
GlyphClass: 2
Flags: HW
LayerCount: 2
Fore
SplineSet
174 574 m 1
 174 697 l 1
 297 697 l 1
 297 574 l 1
 174 574 l 1
326 82 m 1
 326 200 l 1
 449 200 l 1
 449 -4 l 1
 326 82 l 1
455 215 m 1
 229 215 l 1
 229 323 l 1
 455 323 l 1
 455 215 l 1
339 380 m 1
 317 409 286 422 249 422 c 0
 190 422 142 363 136 285 c 1
 9 285 l 1
 16 428 121 541 249 541 c 0
 329 541 391 509 432 457 c 1
 339 380 l 1
135 268 m 1
 135 183 187 115 249 115 c 0
 272 115 293 120 310 131 c 1
 310 74 l 1
 373 30 l 1
 338 10 297 -3 249 -3 c 0
 117 -3 9 117 9 268 c 1
 135 268 l 1
EndSplineSet
Validated: 1
EndChar

StartChar: gdotaccent
Encoding: 289 289 202
Width: 463
GlyphClass: 2
Flags: HW
LayerCount: 2
Fore
SplineSet
174 574 m 1
 174 697 l 1
 297 697 l 1
 297 574 l 1
 174 574 l 1
326 82 m 1
 326 200 l 1
 449 200 l 1
 449 -4 l 1
 326 82 l 1
455 215 m 1
 229 215 l 1
 229 323 l 1
 455 323 l 1
 455 215 l 1
339 380 m 1
 317 409 286 422 249 422 c 0
 190 422 142 363 136 285 c 1
 9 285 l 1
 16 428 121 541 249 541 c 0
 329 541 391 509 432 457 c 1
 339 380 l 1
135 268 m 1
 135 183 187 115 249 115 c 0
 272 115 293 120 310 131 c 1
 310 74 l 1
 373 30 l 1
 338 10 297 -3 249 -3 c 0
 117 -3 9 117 9 268 c 1
 135 268 l 1
EndSplineSet
Validated: 1
EndChar

StartChar: Gcommaaccent
Encoding: 290 290 203
Width: 463
GlyphClass: 2
Flags: HW
LayerCount: 2
Fore
SplineSet
158 -199 m 1
 186 -100 l 1
 186 -46 l 1
 301 -46 l 1
 301 -108 l 2
 301 -112 299 -119 297 -123 c 2
 250 -236 l 1
 158 -199 l 1
326 82 m 1
 326 200 l 1
 449 200 l 1
 449 -4 l 1
 326 82 l 1
455 215 m 1
 229 215 l 1
 229 323 l 1
 455 323 l 1
 455 215 l 1
339 380 m 1
 317 409 286 422 249 422 c 0
 190 422 142 363 136 285 c 1
 9 285 l 1
 16 428 121 541 249 541 c 0
 329 541 391 509 432 457 c 1
 339 380 l 1
135 268 m 1
 135 183 187 115 249 115 c 0
 272 115 293 120 310 131 c 1
 310 74 l 1
 373 30 l 1
 338 10 297 -3 249 -3 c 0
 117 -3 9 117 9 268 c 1
 135 268 l 1
EndSplineSet
Validated: 1
EndChar

StartChar: gcommaaccent
Encoding: 291 291 204
Width: 463
GlyphClass: 2
Flags: HW
LayerCount: 2
Fore
SplineSet
158 -199 m 1
 186 -100 l 1
 186 -46 l 1
 301 -46 l 1
 301 -108 l 2
 301 -112 299 -119 297 -123 c 2
 250 -236 l 1
 158 -199 l 1
326 82 m 1
 326 200 l 1
 449 200 l 1
 449 -4 l 1
 326 82 l 1
455 215 m 1
 229 215 l 1
 229 323 l 1
 455 323 l 1
 455 215 l 1
339 380 m 1
 317 409 286 422 249 422 c 0
 190 422 142 363 136 285 c 1
 9 285 l 1
 16 428 121 541 249 541 c 0
 329 541 391 509 432 457 c 1
 339 380 l 1
135 268 m 1
 135 183 187 115 249 115 c 0
 272 115 293 120 310 131 c 1
 310 74 l 1
 373 30 l 1
 338 10 297 -3 249 -3 c 0
 117 -3 9 117 9 268 c 1
 135 268 l 1
EndSplineSet
Validated: 1
EndChar

StartChar: Hcircumflex
Encoding: 292 292 205
Width: 442
GlyphClass: 2
Flags: HW
LayerCount: 2
Fore
SplineSet
55 647 m 1
 218 735 l 1
 224 735 l 1
 387 647 l 1
 354 567 l 1
 221 610 l 1
 88 567 l 1
 55 647 l 1
144 0 m 1
 22 0 l 1
 22 197 l 1
 144 197 l 1
 144 0 l 1
283 212 m 1
 18 212 l 1
 18 332 l 1
 283 332 l 1
 283 212 l 1
144 347 m 1
 22 347 l 1
 22 538 l 1
 144 538 l 1
 144 347 l 1
298 538 m 1
 421 538 l 1
 421 0 l 1
 298 0 l 1
 298 538 l 1
EndSplineSet
Validated: 1
EndChar

StartChar: hcircumflex
Encoding: 293 293 206
Width: 442
GlyphClass: 2
Flags: HW
LayerCount: 2
Fore
SplineSet
55 647 m 1
 218 735 l 1
 224 735 l 1
 387 647 l 1
 354 567 l 1
 221 610 l 1
 88 567 l 1
 55 647 l 1
144 0 m 1
 22 0 l 1
 22 197 l 1
 144 197 l 1
 144 0 l 1
283 212 m 1
 18 212 l 1
 18 332 l 1
 283 332 l 1
 283 212 l 1
144 347 m 1
 22 347 l 1
 22 538 l 1
 144 538 l 1
 144 347 l 1
298 538 m 1
 421 538 l 1
 421 0 l 1
 298 0 l 1
 298 538 l 1
EndSplineSet
Validated: 1
EndChar

StartChar: Hbar
Encoding: 294 294 207
Width: 442
GlyphClass: 2
Flags: HW
LayerCount: 2
Fore
SplineSet
421 0 m 1
 298 0 l 1
 298 366 l 1
 421 366 l 1
 421 0 l 1
421 479 m 1
 298 479 l 1
 298 538 l 1
 421 538 l 1
 421 479 l 1
144 0 m 1
 22 0 l 1
 22 197 l 1
 144 197 l 1
 144 0 l 1
144 347 m 1
 22 347 l 1
 22 538 l 1
 144 538 l 1
 144 347 l 1
160 464 m 1
 442 464 l 1
 442 381 l 1
 160 381 l 1
 160 464 l 1
9 381 m 1
 -3 381 l 1
 -3 464 l 1
 9 464 l 1
 9 381 l 1
283 212 m 1
 18 212 l 1
 18 332 l 1
 283 332 l 1
 283 212 l 1
EndSplineSet
Validated: 1
EndChar

StartChar: hbar
Encoding: 295 295 208
Width: 442
GlyphClass: 2
Flags: HW
LayerCount: 2
Fore
SplineSet
421 0 m 1
 298 0 l 1
 298 366 l 1
 421 366 l 1
 421 0 l 1
421 479 m 1
 298 479 l 1
 298 538 l 1
 421 538 l 1
 421 479 l 1
144 0 m 1
 22 0 l 1
 22 197 l 1
 144 197 l 1
 144 0 l 1
144 347 m 1
 22 347 l 1
 22 538 l 1
 144 538 l 1
 144 347 l 1
160 464 m 1
 442 464 l 1
 442 381 l 1
 160 381 l 1
 160 464 l 1
9 381 m 1
 -3 381 l 1
 -3 464 l 1
 9 464 l 1
 9 381 l 1
283 212 m 1
 18 212 l 1
 18 332 l 1
 283 332 l 1
 283 212 l 1
EndSplineSet
Validated: 1
EndChar

StartChar: Itilde
Encoding: 296 296 209
Width: 165
GlyphClass: 2
Flags: HW
LayerCount: 2
Fore
SplineSet
-79 675 m 2
 -54 707 -16 728 28 728 c 0
 86 728 112 686 135 686 c 0
 140 686 145 690 148 694 c 2
 170 723 l 1
 267 650 l 1
 245 622 l 2
 220 590 182 568 138 568 c 0
 80 568 53 608 30 608 c 0
 25 608 20 606 17 602 c 2
 -4 573 l 1
 -101 646 l 1
 -79 675 l 2
22 0 m 1
 22 538 l 1
 144 538 l 1
 144 0 l 1
 22 0 l 1
EndSplineSet
Validated: 1
EndChar

StartChar: itilde
Encoding: 297 297 210
Width: 165
GlyphClass: 2
Flags: HW
LayerCount: 2
Fore
SplineSet
-79 675 m 2
 -54 707 -16 728 28 728 c 0
 86 728 112 686 135 686 c 0
 140 686 145 690 148 694 c 2
 170 723 l 1
 267 650 l 1
 245 622 l 2
 220 590 182 568 138 568 c 0
 80 568 53 608 30 608 c 0
 25 608 20 606 17 602 c 2
 -4 573 l 1
 -101 646 l 1
 -79 675 l 2
22 0 m 1
 22 538 l 1
 144 538 l 1
 144 0 l 1
 22 0 l 1
EndSplineSet
Validated: 1
EndChar

StartChar: Imacron
Encoding: 298 298 211
Width: 165
GlyphClass: 2
Flags: HW
LayerCount: 2
Fore
SplineSet
-62 590 m 1
 -62 703 l 1
 229 703 l 1
 229 590 l 1
 -62 590 l 1
22 0 m 1
 22 538 l 1
 144 538 l 1
 144 0 l 1
 22 0 l 1
EndSplineSet
Validated: 1
EndChar

StartChar: imacron
Encoding: 299 299 212
Width: 165
GlyphClass: 2
Flags: HW
LayerCount: 2
Fore
SplineSet
-62 590 m 1
 -62 703 l 1
 229 703 l 1
 229 590 l 1
 -62 590 l 1
22 0 m 1
 22 538 l 1
 144 538 l 1
 144 0 l 1
 22 0 l 1
EndSplineSet
Validated: 1
EndChar

StartChar: Ibreve
Encoding: 300 300 213
Width: 165
GlyphClass: 2
Flags: HW
LayerCount: 2
Fore
SplineSet
-89 651 m 1
 -52 733 l 1
 -7 711 34 697 83 697 c 0
 132 697 173 711 218 733 c 1
 255 651 l 1
 204 604 150 571 83 571 c 0
 16 571 -38 604 -89 651 c 1
22 0 m 1
 22 538 l 1
 144 538 l 1
 144 0 l 1
 22 0 l 1
EndSplineSet
Validated: 1
EndChar

StartChar: ibreve
Encoding: 301 301 214
Width: 165
GlyphClass: 2
Flags: HW
LayerCount: 2
Fore
SplineSet
-89 651 m 1
 -52 733 l 1
 -7 711 34 697 83 697 c 0
 132 697 173 711 218 733 c 1
 255 651 l 1
 204 604 150 571 83 571 c 0
 16 571 -38 604 -89 651 c 1
22 0 m 1
 22 538 l 1
 144 538 l 1
 144 0 l 1
 22 0 l 1
EndSplineSet
Validated: 1
EndChar

StartChar: Iogonek
Encoding: 302 302 215
Width: 165
GlyphClass: 2
Flags: HW
LayerCount: 2
Fore
SplineSet
22 0 m 1
 22 538 l 1
 144 538 l 1
 144 0 l 1
 22 0 l 1
94 -147 m 1
 123 -147 147 -128 147 -101 c 1
 231 -101 l 1
 231 -178 171 -240 94 -240 c 1
 94 -147 l 1
12 -15 m 1
 115 -15 l 1
 81 -41 55 -71 55 -109 c 0
 55 -125 65 -138 78 -144 c 1
 78 -239 l 1
 9 -232 -45 -180 -45 -117 c 0
 -45 -78 -22 -45 12 -15 c 1
EndSplineSet
Validated: 1
EndChar

StartChar: iogonek
Encoding: 303 303 216
Width: 165
GlyphClass: 2
Flags: HW
LayerCount: 2
Fore
SplineSet
22 0 m 1
 22 538 l 1
 144 538 l 1
 144 0 l 1
 22 0 l 1
94 -147 m 1
 123 -147 147 -128 147 -101 c 1
 231 -101 l 1
 231 -178 171 -240 94 -240 c 1
 94 -147 l 1
12 -15 m 1
 115 -15 l 1
 81 -41 55 -71 55 -109 c 0
 55 -125 65 -138 78 -144 c 1
 78 -239 l 1
 9 -232 -45 -180 -45 -117 c 0
 -45 -78 -22 -45 12 -15 c 1
EndSplineSet
Validated: 1
EndChar

StartChar: Idotaccent
Encoding: 304 304 217
Width: 165
GlyphClass: 2
Flags: HW
LayerCount: 2
Fore
SplineSet
22 574 m 1
 22 697 l 1
 144 697 l 1
 144 574 l 1
 22 574 l 1
22 0 m 1
 22 538 l 1
 144 538 l 1
 144 0 l 1
 22 0 l 1
EndSplineSet
Validated: 1
EndChar

StartChar: IJ
Encoding: 306 306 218
Width: 559
GlyphClass: 2
Flags: HW
LayerCount: 2
Fore
SplineSet
544 402 m 1
 544 181 l 2
 544 80 459 -3 356 -3 c 0
 276 -3 213 30 172 82 c 1
 266 158 l 1
 283 135 312 115 356 115 c 0
 392 115 421 144 421 181 c 2
 421 402 l 1
 544 402 l 1
547 418 m 1
 186 418 l 1
 186 538 l 1
 547 538 l 1
 547 418 l 1
22 0 m 1
 22 538 l 1
 144 538 l 1
 144 0 l 1
 22 0 l 1
EndSplineSet
Validated: 1
EndChar

StartChar: Jcircumflex
Encoding: 308 308 219
Width: 393
GlyphClass: 2
Flags: HW
LayerCount: 2
Fore
SplineSet
28 647 m 1
 190 735 l 1
 197 735 l 1
 359 647 l 1
 327 567 l 1
 194 610 l 1
 60 567 l 1
 28 647 l 1
378 402 m 1
 378 181 l 2
 378 80 293 -3 190 -3 c 0
 110 -3 47 30 6 82 c 1
 100 158 l 1
 117 135 146 115 190 115 c 0
 226 115 255 144 255 181 c 2
 255 402 l 1
 378 402 l 1
381 418 m 1
 20 418 l 1
 20 538 l 1
 381 538 l 1
 381 418 l 1
EndSplineSet
Validated: 1
EndChar

StartChar: jcircumflex
Encoding: 309 309 220
Width: 393
GlyphClass: 2
Flags: HW
LayerCount: 2
Fore
SplineSet
28 647 m 1
 190 735 l 1
 197 735 l 1
 359 647 l 1
 327 567 l 1
 194 610 l 1
 60 567 l 1
 28 647 l 1
378 402 m 1
 378 181 l 2
 378 80 293 -3 190 -3 c 0
 110 -3 47 30 6 82 c 1
 100 158 l 1
 117 135 146 115 190 115 c 0
 226 115 255 144 255 181 c 2
 255 402 l 1
 378 402 l 1
381 418 m 1
 20 418 l 1
 20 538 l 1
 381 538 l 1
 381 418 l 1
EndSplineSet
Validated: 1
EndChar

StartChar: Kcommaaccent
Encoding: 310 310 221
Width: 457
GlyphClass: 2
Flags: HW
LayerCount: 2
Fore
SplineSet
120 -199 m 1
 148 -100 l 1
 148 -46 l 1
 263 -46 l 1
 263 -108 l 2
 263 -112 261 -119 259 -123 c 2
 212 -236 l 1
 120 -199 l 1
158 329 m 1
 219 329 l 1
 455 0 l 1
 297 0 l 1
 162 221 l 1
 158 221 l 1
 158 329 l 1
22 0 m 1
 22 538 l 1
 144 538 l 1
 144 0 l 1
 22 0 l 1
267 288 m 1
 227 344 l 1
 168 344 l 1
 295 538 l 1
 449 538 l 1
 267 288 l 1
EndSplineSet
Validated: 1
EndChar

StartChar: kcommaaccent
Encoding: 311 311 222
Width: 457
GlyphClass: 2
Flags: HW
LayerCount: 2
Fore
SplineSet
120 -199 m 1
 148 -100 l 1
 148 -46 l 1
 263 -46 l 1
 263 -108 l 2
 263 -112 261 -119 259 -123 c 2
 212 -236 l 1
 120 -199 l 1
158 329 m 1
 219 329 l 1
 455 0 l 1
 297 0 l 1
 162 221 l 1
 158 221 l 1
 158 329 l 1
22 0 m 1
 22 538 l 1
 144 538 l 1
 144 0 l 1
 22 0 l 1
267 288 m 1
 227 344 l 1
 168 344 l 1
 295 538 l 1
 449 538 l 1
 267 288 l 1
EndSplineSet
Validated: 1
EndChar

StartChar: Lacute
Encoding: 313 313 223
Width: 372
GlyphClass: 2
Flags: HW
LayerCount: 2
Fore
SplineSet
32 643 m 1
 231 727 l 1
 262 606 l 1
 51 569 l 1
 32 643 l 1
22 135 m 1
 22 538 l 1
 144 538 l 1
 144 135 l 1
 22 135 l 1
18 120 m 1
 367 120 l 1
 367 0 l 1
 18 0 l 1
 18 120 l 1
EndSplineSet
Validated: 1
EndChar

StartChar: lacute
Encoding: 314 314 224
Width: 372
GlyphClass: 2
Flags: HW
LayerCount: 2
Fore
SplineSet
32 643 m 1
 231 727 l 1
 262 606 l 1
 51 569 l 1
 32 643 l 1
22 135 m 1
 22 538 l 1
 144 538 l 1
 144 135 l 1
 22 135 l 1
18 120 m 1
 367 120 l 1
 367 0 l 1
 18 0 l 1
 18 120 l 1
EndSplineSet
Validated: 1
EndChar

StartChar: Lcommaaccent
Encoding: 315 315 225
Width: 372
GlyphClass: 2
Flags: HW
LayerCount: 2
Fore
SplineSet
113 -199 m 1
 141 -100 l 1
 141 -46 l 1
 256 -46 l 1
 256 -108 l 2
 256 -112 254 -119 252 -123 c 2
 205 -236 l 1
 113 -199 l 1
22 135 m 1
 22 538 l 1
 144 538 l 1
 144 135 l 1
 22 135 l 1
18 120 m 1
 367 120 l 1
 367 0 l 1
 18 0 l 1
 18 120 l 1
EndSplineSet
Validated: 1
EndChar

StartChar: lcommaaccent
Encoding: 316 316 226
Width: 372
GlyphClass: 2
Flags: HW
LayerCount: 2
Fore
SplineSet
113 -199 m 1
 141 -100 l 1
 141 -46 l 1
 256 -46 l 1
 256 -108 l 2
 256 -112 254 -119 252 -123 c 2
 205 -236 l 1
 113 -199 l 1
22 135 m 1
 22 538 l 1
 144 538 l 1
 144 135 l 1
 22 135 l 1
18 120 m 1
 367 120 l 1
 367 0 l 1
 18 0 l 1
 18 120 l 1
EndSplineSet
Validated: 1
EndChar

StartChar: Lcaron
Encoding: 317 317 227
Width: 372
GlyphClass: 2
Flags: HW
LayerCount: 2
Fore
SplineSet
223 375 m 1
 233 483 l 1
 233 553 l 1
 360 553 l 1
 360 476 l 2
 360 472 358 463 356 459 c 2
 317 354 l 1
 223 375 l 1
22 135 m 1
 22 538 l 1
 144 538 l 1
 144 135 l 1
 22 135 l 1
18 120 m 1
 367 120 l 1
 367 0 l 1
 18 0 l 1
 18 120 l 1
EndSplineSet
Validated: 1
EndChar

StartChar: lcaron
Encoding: 318 318 228
Width: 372
GlyphClass: 2
Flags: HW
LayerCount: 2
Fore
SplineSet
223 375 m 1
 233 483 l 1
 233 553 l 1
 360 553 l 1
 360 476 l 2
 360 472 358 463 356 459 c 2
 317 354 l 1
 223 375 l 1
22 135 m 1
 22 538 l 1
 144 538 l 1
 144 135 l 1
 22 135 l 1
18 120 m 1
 367 120 l 1
 367 0 l 1
 18 0 l 1
 18 120 l 1
EndSplineSet
Validated: 1
EndChar

StartChar: Ldot
Encoding: 319 319 229
Width: 372
GlyphClass: 2
Flags: HW
LayerCount: 2
Fore
SplineSet
216 238 m 1
 216 377 l 1
 351 377 l 1
 351 238 l 1
 216 238 l 1
22 135 m 1
 22 538 l 1
 144 538 l 1
 144 135 l 1
 22 135 l 1
18 120 m 1
 367 120 l 1
 367 0 l 1
 18 0 l 1
 18 120 l 1
EndSplineSet
Validated: 1
EndChar

StartChar: Lslash
Encoding: 321 321 230
Width: 409
GlyphClass: 2
Flags: HW
LayerCount: 2
Fore
SplineSet
52 -3 m 1
 52 538 l 1
 175 538 l 1
 175 -3 l 1
 52 -3 l 1
190 120 m 1
 397 120 l 1
 397 0 l 1
 190 0 l 1
 190 120 l 1
190 229 m 1
 190 360 l 1
 338 436 l 1
 338 305 l 1
 190 229 l 1
37 151 m 1
 9 137 l 1
 9 267 l 1
 37 282 l 1
 37 151 l 1
EndSplineSet
Validated: 1
EndChar

StartChar: lslash
Encoding: 322 322 231
Width: 409
GlyphClass: 2
Flags: HW
LayerCount: 2
Fore
SplineSet
52 -3 m 1
 52 538 l 1
 175 538 l 1
 175 -3 l 1
 52 -3 l 1
190 120 m 1
 397 120 l 1
 397 0 l 1
 190 0 l 1
 190 120 l 1
190 229 m 1
 190 360 l 1
 338 436 l 1
 338 305 l 1
 190 229 l 1
37 151 m 1
 9 137 l 1
 9 267 l 1
 37 282 l 1
 37 151 l 1
EndSplineSet
Validated: 1
EndChar

StartChar: Nacute
Encoding: 323 323 232
Width: 436
GlyphClass: 2
Flags: HW
LayerCount: 2
Fore
SplineSet
112 643 m 1
 311 727 l 1
 342 606 l 1
 131 569 l 1
 112 643 l 1
162 538 m 1
 397 0 l 1
 274 0 l 1
 154 280 l 1
 154 538 l 1
 162 538 l 1
22 0 m 1
 22 538 l 1
 138 538 l 1
 138 0 l 1
 22 0 l 1
298 266 m 1
 298 538 l 1
 415 538 l 1
 415 0 l 1
 298 266 l 1
EndSplineSet
Validated: 1
EndChar

StartChar: nacute
Encoding: 324 324 233
Width: 436
GlyphClass: 2
Flags: HW
LayerCount: 2
Fore
SplineSet
112 643 m 1
 311 727 l 1
 342 606 l 1
 131 569 l 1
 112 643 l 1
162 538 m 1
 397 0 l 1
 274 0 l 1
 154 280 l 1
 154 538 l 1
 162 538 l 1
22 0 m 1
 22 538 l 1
 138 538 l 1
 138 0 l 1
 22 0 l 1
298 266 m 1
 298 538 l 1
 415 538 l 1
 415 0 l 1
 298 266 l 1
EndSplineSet
Validated: 1
EndChar

StartChar: Ncommaaccent
Encoding: 325 325 234
Width: 436
GlyphClass: 2
Flags: HW
LayerCount: 2
Fore
SplineSet
139 -199 m 1
 168 -100 l 1
 168 -46 l 1
 283 -46 l 1
 283 -108 l 2
 283 -112 281 -119 279 -123 c 2
 231 -236 l 1
 139 -199 l 1
162 538 m 1
 397 0 l 1
 274 0 l 1
 154 280 l 1
 154 538 l 1
 162 538 l 1
22 0 m 1
 22 538 l 1
 138 538 l 1
 138 0 l 1
 22 0 l 1
298 266 m 1
 298 538 l 1
 415 538 l 1
 415 0 l 1
 298 266 l 1
EndSplineSet
Validated: 1
EndChar

StartChar: ncommaaccent
Encoding: 326 326 235
Width: 436
GlyphClass: 2
Flags: HW
LayerCount: 2
Fore
SplineSet
139 -199 m 1
 168 -100 l 1
 168 -46 l 1
 283 -46 l 1
 283 -108 l 2
 283 -112 281 -119 279 -123 c 2
 231 -236 l 1
 139 -199 l 1
162 538 m 1
 397 0 l 1
 274 0 l 1
 154 280 l 1
 154 538 l 1
 162 538 l 1
22 0 m 1
 22 538 l 1
 138 538 l 1
 138 0 l 1
 22 0 l 1
298 266 m 1
 298 538 l 1
 415 538 l 1
 415 0 l 1
 298 266 l 1
EndSplineSet
Validated: 1
EndChar

StartChar: Ncaron
Encoding: 327 327 236
Width: 436
GlyphClass: 2
Flags: HW
LayerCount: 2
Fore
SplineSet
375 655 m 1
 212 567 l 1
 206 567 l 1
 43 655 l 1
 76 735 l 1
 209 692 l 1
 342 735 l 1
 375 655 l 1
162 538 m 1
 397 0 l 1
 274 0 l 1
 154 280 l 1
 154 538 l 1
 162 538 l 1
22 0 m 1
 22 538 l 1
 138 538 l 1
 138 0 l 1
 22 0 l 1
298 266 m 1
 298 538 l 1
 415 538 l 1
 415 0 l 1
 298 266 l 1
EndSplineSet
Validated: 1
EndChar

StartChar: ncaron
Encoding: 328 328 237
Width: 436
GlyphClass: 2
Flags: HW
LayerCount: 2
Fore
SplineSet
375 655 m 1
 212 567 l 1
 206 567 l 1
 43 655 l 1
 76 735 l 1
 209 692 l 1
 342 735 l 1
 375 655 l 1
162 538 m 1
 397 0 l 1
 274 0 l 1
 154 280 l 1
 154 538 l 1
 162 538 l 1
22 0 m 1
 22 538 l 1
 138 538 l 1
 138 0 l 1
 22 0 l 1
298 266 m 1
 298 538 l 1
 415 538 l 1
 415 0 l 1
 298 266 l 1
EndSplineSet
Validated: 1
EndChar

StartChar: Omacron
Encoding: 332 332 238
Width: 485
GlyphClass: 2
Flags: HW
LayerCount: 2
Fore
SplineSet
97 590 m 1
 97 703 l 1
 389 703 l 1
 389 590 l 1
 97 590 l 1
227 540 m 1
 227 421 l 1
 175 411 135 346 135 268 c 1
 9 268 l 1
 9 412 105 531 227 540 c 1
350 268 m 0
 350 353 302 422 243 422 c 1
 243 541 l 1
 372 541 476 419 476 268 c 0
 476 117 372 -3 243 -3 c 0
 118 -3 16 111 9 254 c 1
 136 254 l 1
 141 176 188 115 243 115 c 0
 302 115 350 183 350 268 c 0
EndSplineSet
Validated: 1
EndChar

StartChar: omacron
Encoding: 333 333 239
Width: 485
GlyphClass: 2
Flags: HW
LayerCount: 2
Fore
SplineSet
97 590 m 1
 97 703 l 1
 389 703 l 1
 389 590 l 1
 97 590 l 1
227 540 m 1
 227 421 l 1
 175 411 135 346 135 268 c 1
 9 268 l 1
 9 412 105 531 227 540 c 1
350 268 m 0
 350 353 302 422 243 422 c 1
 243 541 l 1
 372 541 476 419 476 268 c 0
 476 117 372 -3 243 -3 c 0
 118 -3 16 111 9 254 c 1
 136 254 l 1
 141 176 188 115 243 115 c 0
 302 115 350 183 350 268 c 0
EndSplineSet
Validated: 1
EndChar

StartChar: Obreve
Encoding: 334 334 240
Width: 485
GlyphClass: 2
Flags: HW
LayerCount: 2
Fore
SplineSet
71 651 m 1
 108 733 l 1
 153 711 194 697 243 697 c 0
 292 697 333 711 378 733 c 1
 415 651 l 1
 364 604 310 571 243 571 c 0
 176 571 122 604 71 651 c 1
227 540 m 1
 227 421 l 1
 175 411 135 346 135 268 c 1
 9 268 l 1
 9 412 105 531 227 540 c 1
350 268 m 0
 350 353 302 422 243 422 c 1
 243 541 l 1
 372 541 476 419 476 268 c 0
 476 117 372 -3 243 -3 c 0
 118 -3 16 111 9 254 c 1
 136 254 l 1
 141 176 188 115 243 115 c 0
 302 115 350 183 350 268 c 0
EndSplineSet
Validated: 1
EndChar

StartChar: obreve
Encoding: 335 335 241
Width: 485
GlyphClass: 2
Flags: HW
LayerCount: 2
Fore
SplineSet
71 651 m 1
 108 733 l 1
 153 711 194 697 243 697 c 0
 292 697 333 711 378 733 c 1
 415 651 l 1
 364 604 310 571 243 571 c 0
 176 571 122 604 71 651 c 1
227 540 m 1
 227 421 l 1
 175 411 135 346 135 268 c 1
 9 268 l 1
 9 412 105 531 227 540 c 1
350 268 m 0
 350 353 302 422 243 422 c 1
 243 541 l 1
 372 541 476 419 476 268 c 0
 476 117 372 -3 243 -3 c 0
 118 -3 16 111 9 254 c 1
 136 254 l 1
 141 176 188 115 243 115 c 0
 302 115 350 183 350 268 c 0
EndSplineSet
Validated: 1
EndChar

StartChar: Ohungarumlaut
Encoding: 336 336 242
Width: 485
GlyphClass: 2
Flags: HW
LayerCount: 2
Fore
SplineSet
265 637 m 1
 392 739 l 1
 454 629 l 1
 304 568 l 1
 265 637 l 1
67 637 m 1
 194 739 l 1
 255 629 l 1
 106 568 l 1
 67 637 l 1
227 540 m 1
 227 421 l 1
 175 411 135 346 135 268 c 1
 9 268 l 1
 9 412 105 531 227 540 c 1
350 268 m 0
 350 353 302 422 243 422 c 1
 243 541 l 1
 372 541 476 419 476 268 c 0
 476 117 372 -3 243 -3 c 0
 118 -3 16 111 9 254 c 1
 136 254 l 1
 141 176 188 115 243 115 c 0
 302 115 350 183 350 268 c 0
EndSplineSet
Validated: 1
EndChar

StartChar: ohungarumlaut
Encoding: 337 337 243
Width: 485
GlyphClass: 2
Flags: HW
LayerCount: 2
Fore
SplineSet
265 637 m 1
 392 739 l 1
 454 629 l 1
 304 568 l 1
 265 637 l 1
67 637 m 1
 194 739 l 1
 255 629 l 1
 106 568 l 1
 67 637 l 1
227 540 m 1
 227 421 l 1
 175 411 135 346 135 268 c 1
 9 268 l 1
 9 412 105 531 227 540 c 1
350 268 m 0
 350 353 302 422 243 422 c 1
 243 541 l 1
 372 541 476 419 476 268 c 0
 476 117 372 -3 243 -3 c 0
 118 -3 16 111 9 254 c 1
 136 254 l 1
 141 176 188 115 243 115 c 0
 302 115 350 183 350 268 c 0
EndSplineSet
Validated: 1
EndChar

StartChar: OE
Encoding: 338 338 244
Width: 646
GlyphClass: 2
Flags: HW
LayerCount: 2
Fore
SplineSet
292 0 m 1
 250 0 l 2
 118 0 10 118 10 268 c 0
 10 418 118 538 250 538 c 2
 637 538 l 1
 637 418 l 1
 250 418 l 2
 185 418 133 350 133 268 c 0
 133 186 185 120 250 120 c 2
 292 120 l 1
 292 0 l 1
307 -3 m 1
 307 402 l 1
 430 402 l 1
 430 -3 l 1
 307 -3 l 1
445 332 m 1
 599 332 l 1
 599 212 l 1
 445 212 l 1
 445 332 l 1
445 120 m 1
 637 120 l 1
 637 0 l 1
 445 0 l 1
 445 120 l 1
EndSplineSet
Validated: 1
EndChar

StartChar: oe
Encoding: 339 339 245
Width: 646
GlyphClass: 2
Flags: HW
LayerCount: 2
Fore
SplineSet
292 0 m 1
 250 0 l 2
 118 0 10 118 10 268 c 0
 10 418 118 538 250 538 c 2
 637 538 l 1
 637 418 l 1
 250 418 l 2
 185 418 133 350 133 268 c 0
 133 186 185 120 250 120 c 2
 292 120 l 1
 292 0 l 1
307 -3 m 1
 307 402 l 1
 430 402 l 1
 430 -3 l 1
 307 -3 l 1
445 332 m 1
 599 332 l 1
 599 212 l 1
 445 212 l 1
 445 332 l 1
445 120 m 1
 637 120 l 1
 637 0 l 1
 445 0 l 1
 445 120 l 1
EndSplineSet
Validated: 1
EndChar

StartChar: Racute
Encoding: 340 340 246
Width: 417
GlyphClass: 2
Flags: HW
LayerCount: 2
Fore
SplineSet
93 643 m 1
 293 727 l 1
 324 606 l 1
 113 569 l 1
 93 643 l 1
190 323 m 2
 298 323 406 243 406 162 c 2
 406 0 l 1
 283 0 l 1
 283 144 l 2
 283 187 249 221 206 221 c 2
 160 221 l 1
 160 323 l 1
 190 323 l 2
22 0 m 1
 22 406 l 1
 144 406 l 1
 144 0 l 1
 22 0 l 1
345 287 m 1
 317 306 285 322 251 330 c 1
 269 340 283 359 283 381 c 0
 283 404 266 421 249 421 c 2
 18 421 l 1
 18 538 l 1
 252 538 l 2
 336 538 406 468 406 384 c 0
 406 341 381 309 345 287 c 1
EndSplineSet
Validated: 1
EndChar

StartChar: racute
Encoding: 341 341 247
Width: 417
GlyphClass: 2
Flags: HW
LayerCount: 2
Fore
SplineSet
93 643 m 1
 293 727 l 1
 324 606 l 1
 113 569 l 1
 93 643 l 1
190 323 m 2
 298 323 406 243 406 162 c 2
 406 0 l 1
 283 0 l 1
 283 144 l 2
 283 187 249 221 206 221 c 2
 160 221 l 1
 160 323 l 1
 190 323 l 2
22 0 m 1
 22 406 l 1
 144 406 l 1
 144 0 l 1
 22 0 l 1
345 287 m 1
 317 306 285 322 251 330 c 1
 269 340 283 359 283 381 c 0
 283 404 266 421 249 421 c 2
 18 421 l 1
 18 538 l 1
 252 538 l 2
 336 538 406 468 406 384 c 0
 406 341 381 309 345 287 c 1
EndSplineSet
Validated: 1
EndChar

StartChar: Rcommaaccent
Encoding: 342 342 248
Width: 417
GlyphClass: 2
Flags: HW
LayerCount: 2
Fore
SplineSet
120 -199 m 1
 148 -100 l 1
 148 -46 l 1
 263 -46 l 1
 263 -108 l 2
 263 -112 261 -119 259 -123 c 2
 212 -236 l 1
 120 -199 l 1
190 323 m 2
 298 323 406 243 406 162 c 2
 406 0 l 1
 283 0 l 1
 283 144 l 2
 283 187 249 221 206 221 c 2
 160 221 l 1
 160 323 l 1
 190 323 l 2
22 0 m 1
 22 406 l 1
 144 406 l 1
 144 0 l 1
 22 0 l 1
345 287 m 1
 317 306 285 322 251 330 c 1
 269 340 283 359 283 381 c 0
 283 404 266 421 249 421 c 2
 18 421 l 1
 18 538 l 1
 252 538 l 2
 336 538 406 468 406 384 c 0
 406 341 381 309 345 287 c 1
EndSplineSet
Validated: 1
EndChar

StartChar: rcommaaccent
Encoding: 343 343 249
Width: 417
GlyphClass: 2
Flags: HW
LayerCount: 2
Fore
SplineSet
120 -199 m 1
 148 -100 l 1
 148 -46 l 1
 263 -46 l 1
 263 -108 l 2
 263 -112 261 -119 259 -123 c 2
 212 -236 l 1
 120 -199 l 1
190 323 m 2
 298 323 406 243 406 162 c 2
 406 0 l 1
 283 0 l 1
 283 144 l 2
 283 187 249 221 206 221 c 2
 160 221 l 1
 160 323 l 1
 190 323 l 2
22 0 m 1
 22 406 l 1
 144 406 l 1
 144 0 l 1
 22 0 l 1
345 287 m 1
 317 306 285 322 251 330 c 1
 269 340 283 359 283 381 c 0
 283 404 266 421 249 421 c 2
 18 421 l 1
 18 538 l 1
 252 538 l 2
 336 538 406 468 406 384 c 0
 406 341 381 309 345 287 c 1
EndSplineSet
Validated: 1
EndChar

StartChar: Rcaron
Encoding: 344 344 250
Width: 417
GlyphClass: 2
Flags: HW
LayerCount: 2
Fore
SplineSet
356 655 m 1
 194 567 l 1
 187 567 l 1
 25 655 l 1
 57 735 l 1
 190 692 l 1
 324 735 l 1
 356 655 l 1
190 323 m 2
 298 323 406 243 406 162 c 2
 406 0 l 1
 283 0 l 1
 283 144 l 2
 283 187 249 221 206 221 c 2
 160 221 l 1
 160 323 l 1
 190 323 l 2
22 0 m 1
 22 406 l 1
 144 406 l 1
 144 0 l 1
 22 0 l 1
345 287 m 1
 317 306 285 322 251 330 c 1
 269 340 283 359 283 381 c 0
 283 404 266 421 249 421 c 2
 18 421 l 1
 18 538 l 1
 252 538 l 2
 336 538 406 468 406 384 c 0
 406 341 381 309 345 287 c 1
EndSplineSet
Validated: 1
EndChar

StartChar: rcaron
Encoding: 345 345 251
Width: 417
GlyphClass: 2
Flags: HW
LayerCount: 2
Fore
SplineSet
356 655 m 1
 194 567 l 1
 187 567 l 1
 25 655 l 1
 57 735 l 1
 190 692 l 1
 324 735 l 1
 356 655 l 1
190 323 m 2
 298 323 406 243 406 162 c 2
 406 0 l 1
 283 0 l 1
 283 144 l 2
 283 187 249 221 206 221 c 2
 160 221 l 1
 160 323 l 1
 190 323 l 2
22 0 m 1
 22 406 l 1
 144 406 l 1
 144 0 l 1
 22 0 l 1
345 287 m 1
 317 306 285 322 251 330 c 1
 269 340 283 359 283 381 c 0
 283 404 266 421 249 421 c 2
 18 421 l 1
 18 538 l 1
 252 538 l 2
 336 538 406 468 406 384 c 0
 406 341 381 309 345 287 c 1
EndSplineSet
Validated: 1
EndChar

StartChar: Sacute
Encoding: 346 346 252
Width: 448
GlyphClass: 2
Flags: HW
LayerCount: 2
Fore
SplineSet
120 643 m 1
 319 727 l 1
 350 606 l 1
 139 569 l 1
 120 643 l 1
217 428 m 1
 183 428 157 413 157 395 c 0
 157 363 227 353 298 327 c 0
 369 301 439 260 439 166 c 0
 439 65 350 -3 217 -3 c 1
 217 109 l 1
 276 109 315 130 315 163 c 0
 315 204 245 213 174 236 c 0
 103 259 33 295 33 391 c 0
 33 479 106 541 217 541 c 1
 217 428 l 1
201 110 m 1
 201 -3 l 1
 125 1 48 33 9 82 c 1
 100 155 l 1
 111 141 152 115 201 110 c 1
231 428 m 1
 231 541 l 1
 305 537 370 506 409 457 c 1
 317 383 l 1
 303 401 271 424 231 428 c 1
EndSplineSet
Validated: 1
EndChar

StartChar: sacute
Encoding: 347 347 253
Width: 448
GlyphClass: 2
Flags: HW
LayerCount: 2
Fore
SplineSet
120 643 m 1
 319 727 l 1
 350 606 l 1
 139 569 l 1
 120 643 l 1
217 428 m 1
 183 428 157 413 157 395 c 0
 157 363 227 353 298 327 c 0
 369 301 439 260 439 166 c 0
 439 65 350 -3 217 -3 c 1
 217 109 l 1
 276 109 315 130 315 163 c 0
 315 204 245 213 174 236 c 0
 103 259 33 295 33 391 c 0
 33 479 106 541 217 541 c 1
 217 428 l 1
201 110 m 1
 201 -3 l 1
 125 1 48 33 9 82 c 1
 100 155 l 1
 111 141 152 115 201 110 c 1
231 428 m 1
 231 541 l 1
 305 537 370 506 409 457 c 1
 317 383 l 1
 303 401 271 424 231 428 c 1
EndSplineSet
Validated: 1
EndChar

StartChar: Scircumflex
Encoding: 348 348 254
Width: 448
GlyphClass: 2
Flags: HW
LayerCount: 2
Fore
SplineSet
51 647 m 1
 214 735 l 1
 220 735 l 1
 383 647 l 1
 350 567 l 1
 217 610 l 1
 84 567 l 1
 51 647 l 1
217 428 m 1
 183 428 157 413 157 395 c 0
 157 363 227 353 298 327 c 0
 369 301 439 260 439 166 c 0
 439 65 350 -3 217 -3 c 1
 217 109 l 1
 276 109 315 130 315 163 c 0
 315 204 245 213 174 236 c 0
 103 259 33 295 33 391 c 0
 33 479 106 541 217 541 c 1
 217 428 l 1
201 110 m 1
 201 -3 l 1
 125 1 48 33 9 82 c 1
 100 155 l 1
 111 141 152 115 201 110 c 1
231 428 m 1
 231 541 l 1
 305 537 370 506 409 457 c 1
 317 383 l 1
 303 401 271 424 231 428 c 1
EndSplineSet
Validated: 1
EndChar

StartChar: scircumflex
Encoding: 349 349 255
Width: 448
GlyphClass: 2
Flags: HW
LayerCount: 2
Fore
SplineSet
51 647 m 1
 214 735 l 1
 220 735 l 1
 383 647 l 1
 350 567 l 1
 217 610 l 1
 84 567 l 1
 51 647 l 1
217 428 m 1
 183 428 157 413 157 395 c 0
 157 363 227 353 298 327 c 0
 369 301 439 260 439 166 c 0
 439 65 350 -3 217 -3 c 1
 217 109 l 1
 276 109 315 130 315 163 c 0
 315 204 245 213 174 236 c 0
 103 259 33 295 33 391 c 0
 33 479 106 541 217 541 c 1
 217 428 l 1
201 110 m 1
 201 -3 l 1
 125 1 48 33 9 82 c 1
 100 155 l 1
 111 141 152 115 201 110 c 1
231 428 m 1
 231 541 l 1
 305 537 370 506 409 457 c 1
 317 383 l 1
 303 401 271 424 231 428 c 1
EndSplineSet
Validated: 1
EndChar

StartChar: Scedilla
Encoding: 350 350 256
Width: 448
GlyphClass: 2
Flags: HW
LayerCount: 2
Fore
SplineSet
238 -123 m 1
 139 -123 l 1
 167 -14 l 1
 183 -16 201 -18 217 -18 c 0
 233 -18 248 -17 263 -15 c 1
 238 -123 l 1
217 428 m 1
 183 428 157 413 157 395 c 0
 157 363 227 353 298 327 c 0
 369 301 439 260 439 166 c 0
 439 65 350 -3 217 -3 c 1
 217 109 l 1
 276 109 315 130 315 163 c 0
 315 204 245 213 174 236 c 0
 103 259 33 295 33 391 c 0
 33 479 106 541 217 541 c 1
 217 428 l 1
201 110 m 1
 201 -3 l 1
 125 1 48 33 9 82 c 1
 100 155 l 1
 111 141 152 115 201 110 c 1
231 428 m 1
 231 541 l 1
 305 537 370 506 409 457 c 1
 317 383 l 1
 303 401 271 424 231 428 c 1
251 -135 m 1
 272 -45 l 1
 321 -63 356 -109 356 -163 c 0
 356 -239 297 -298 221 -298 c 0
 184 -298 150 -285 125 -260 c 1
 193 -193 l 1
 201 -201 211 -203 221 -203 c 0
 244 -203 261 -186 261 -163 c 0
 261 -152 257 -142 251 -135 c 1
EndSplineSet
Validated: 1
EndChar

StartChar: scedilla
Encoding: 351 351 257
Width: 448
GlyphClass: 2
Flags: HW
LayerCount: 2
Fore
SplineSet
238 -123 m 1
 139 -123 l 1
 167 -14 l 1
 183 -16 201 -18 217 -18 c 0
 233 -18 248 -17 263 -15 c 1
 238 -123 l 1
217 428 m 1
 183 428 157 413 157 395 c 0
 157 363 227 353 298 327 c 0
 369 301 439 260 439 166 c 0
 439 65 350 -3 217 -3 c 1
 217 109 l 1
 276 109 315 130 315 163 c 0
 315 204 245 213 174 236 c 0
 103 259 33 295 33 391 c 0
 33 479 106 541 217 541 c 1
 217 428 l 1
201 110 m 1
 201 -3 l 1
 125 1 48 33 9 82 c 1
 100 155 l 1
 111 141 152 115 201 110 c 1
231 428 m 1
 231 541 l 1
 305 537 370 506 409 457 c 1
 317 383 l 1
 303 401 271 424 231 428 c 1
251 -135 m 1
 272 -45 l 1
 321 -63 356 -109 356 -163 c 0
 356 -239 297 -298 221 -298 c 0
 184 -298 150 -285 125 -260 c 1
 193 -193 l 1
 201 -201 211 -203 221 -203 c 0
 244 -203 261 -186 261 -163 c 0
 261 -152 257 -142 251 -135 c 1
EndSplineSet
Validated: 1
EndChar

StartChar: Scaron
Encoding: 352 352 258
Width: 448
GlyphClass: 2
Flags: HW
LayerCount: 2
Fore
SplineSet
383 655 m 1
 220 567 l 1
 214 567 l 1
 51 655 l 1
 84 735 l 1
 217 692 l 1
 350 735 l 1
 383 655 l 1
217 428 m 1
 183 428 157 413 157 395 c 0
 157 363 227 353 298 327 c 0
 369 301 439 260 439 166 c 0
 439 65 350 -3 217 -3 c 1
 217 109 l 1
 276 109 315 130 315 163 c 0
 315 204 245 213 174 236 c 0
 103 259 33 295 33 391 c 0
 33 479 106 541 217 541 c 1
 217 428 l 1
201 110 m 1
 201 -3 l 1
 125 1 48 33 9 82 c 1
 100 155 l 1
 111 141 152 115 201 110 c 1
231 428 m 1
 231 541 l 1
 305 537 370 506 409 457 c 1
 317 383 l 1
 303 401 271 424 231 428 c 1
EndSplineSet
Validated: 1
EndChar

StartChar: scaron
Encoding: 353 353 259
Width: 448
GlyphClass: 2
Flags: HW
LayerCount: 2
Fore
SplineSet
383 655 m 1
 220 567 l 1
 214 567 l 1
 51 655 l 1
 84 735 l 1
 217 692 l 1
 350 735 l 1
 383 655 l 1
217 428 m 1
 183 428 157 413 157 395 c 0
 157 363 227 353 298 327 c 0
 369 301 439 260 439 166 c 0
 439 65 350 -3 217 -3 c 1
 217 109 l 1
 276 109 315 130 315 163 c 0
 315 204 245 213 174 236 c 0
 103 259 33 295 33 391 c 0
 33 479 106 541 217 541 c 1
 217 428 l 1
201 110 m 1
 201 -3 l 1
 125 1 48 33 9 82 c 1
 100 155 l 1
 111 141 152 115 201 110 c 1
231 428 m 1
 231 541 l 1
 305 537 370 506 409 457 c 1
 317 383 l 1
 303 401 271 424 231 428 c 1
EndSplineSet
Validated: 1
EndChar

StartChar: Tcedilla
Encoding: 354 354 260
Width: 421
GlyphClass: 2
Flags: HW
LayerCount: 2
Fore
SplineSet
274 409 m 1
 274 0 l 1
 150 0 l 1
 150 409 l 1
 274 409 l 1
6 424 m 1
 6 538 l 1
 416 538 l 1
 416 424 l 1
 6 424 l 1
229 -123 m 1
 131 -123 l 1
 158 -15 l 1
 255 -15 l 1
 229 -123 l 1
242 -135 m 1
 263 -45 l 1
 312 -63 347 -109 347 -163 c 0
 347 -239 288 -298 212 -298 c 0
 175 -298 140 -285 115 -260 c 1
 182 -193 l 1
 190 -201 202 -203 212 -203 c 0
 235 -203 252 -186 252 -163 c 0
 252 -152 248 -142 242 -135 c 1
EndSplineSet
Validated: 1
EndChar

StartChar: tcedilla
Encoding: 355 355 261
Width: 421
GlyphClass: 2
Flags: HW
LayerCount: 2
Fore
SplineSet
274 409 m 1
 274 0 l 1
 150 0 l 1
 150 409 l 1
 274 409 l 1
6 424 m 1
 6 538 l 1
 416 538 l 1
 416 424 l 1
 6 424 l 1
229 -123 m 1
 131 -123 l 1
 158 -15 l 1
 255 -15 l 1
 229 -123 l 1
242 -135 m 1
 263 -45 l 1
 312 -63 347 -109 347 -163 c 0
 347 -239 288 -298 212 -298 c 0
 175 -298 140 -285 115 -260 c 1
 182 -193 l 1
 190 -201 202 -203 212 -203 c 0
 235 -203 252 -186 252 -163 c 0
 252 -152 248 -142 242 -135 c 1
EndSplineSet
Validated: 1
EndChar

StartChar: Tcaron
Encoding: 356 356 262
Width: 421
GlyphClass: 2
Flags: HW
LayerCount: 2
Fore
SplineSet
373 655 m 1
 210 567 l 1
 204 567 l 1
 41 655 l 1
 74 735 l 1
 207 692 l 1
 340 735 l 1
 373 655 l 1
274 409 m 1
 274 0 l 1
 150 0 l 1
 150 409 l 1
 274 409 l 1
6 424 m 1
 6 538 l 1
 416 538 l 1
 416 424 l 1
 6 424 l 1
EndSplineSet
Validated: 1
EndChar

StartChar: tcaron
Encoding: 357 357 263
Width: 421
GlyphClass: 2
Flags: HW
LayerCount: 2
Fore
SplineSet
373 655 m 1
 210 567 l 1
 204 567 l 1
 41 655 l 1
 74 735 l 1
 207 692 l 1
 340 735 l 1
 373 655 l 1
274 409 m 1
 274 0 l 1
 150 0 l 1
 150 409 l 1
 274 409 l 1
6 424 m 1
 6 538 l 1
 416 538 l 1
 416 424 l 1
 6 424 l 1
EndSplineSet
Validated: 1
EndChar

StartChar: Tbar
Encoding: 358 358 264
Width: 421
GlyphClass: 2
Flags: HW
LayerCount: 2
Fore
SplineSet
274 409 m 1
 274 0 l 1
 150 0 l 1
 150 409 l 1
 274 409 l 1
6 424 m 1
 6 538 l 1
 416 538 l 1
 416 424 l 1
 6 424 l 1
291 346 m 1
 381 346 l 1
 381 249 l 1
 291 249 l 1
 291 346 l 1
133 249 m 1
 41 249 l 1
 41 346 l 1
 133 346 l 1
 133 249 l 1
EndSplineSet
Validated: 1
EndChar

StartChar: tbar
Encoding: 359 359 265
Width: 421
GlyphClass: 2
Flags: HW
LayerCount: 2
Fore
SplineSet
274 409 m 1
 274 0 l 1
 150 0 l 1
 150 409 l 1
 274 409 l 1
6 424 m 1
 6 538 l 1
 416 538 l 1
 416 424 l 1
 6 424 l 1
291 346 m 1
 381 346 l 1
 381 249 l 1
 291 249 l 1
 291 346 l 1
133 249 m 1
 41 249 l 1
 41 346 l 1
 133 346 l 1
 133 249 l 1
EndSplineSet
Validated: 1
EndChar

StartChar: Utilde
Encoding: 360 360 266
Width: 414
GlyphClass: 2
Flags: HW
LayerCount: 2
Fore
SplineSet
45 675 m 2
 70 707 108 728 152 728 c 0
 210 728 236 686 259 686 c 0
 264 686 269 690 272 694 c 2
 294 723 l 1
 391 650 l 1
 369 622 l 2
 344 590 306 568 262 568 c 0
 204 568 177 608 154 608 c 0
 149 608 144 606 141 602 c 2
 120 573 l 1
 23 646 l 1
 45 675 l 2
209 0 m 1
 103 0 15 87 15 193 c 2
 15 538 l 1
 138 538 l 1
 138 193 l 2
 138 157 170 120 209 120 c 1
 209 0 l 1
224 1 m 1
 224 122 l 1
 257 130 281 162 281 193 c 2
 281 538 l 1
 399 538 l 1
 399 193 l 2
 399 93 322 9 224 1 c 1
EndSplineSet
Validated: 1
EndChar

StartChar: utilde
Encoding: 361 361 267
Width: 414
GlyphClass: 2
Flags: HW
LayerCount: 2
Fore
SplineSet
45 675 m 2
 70 707 108 728 152 728 c 0
 210 728 236 686 259 686 c 0
 264 686 269 690 272 694 c 2
 294 723 l 1
 391 650 l 1
 369 622 l 2
 344 590 306 568 262 568 c 0
 204 568 177 608 154 608 c 0
 149 608 144 606 141 602 c 2
 120 573 l 1
 23 646 l 1
 45 675 l 2
209 0 m 1
 103 0 15 87 15 193 c 2
 15 538 l 1
 138 538 l 1
 138 193 l 2
 138 157 170 120 209 120 c 1
 209 0 l 1
224 1 m 1
 224 122 l 1
 257 130 281 162 281 193 c 2
 281 538 l 1
 399 538 l 1
 399 193 l 2
 399 93 322 9 224 1 c 1
EndSplineSet
Validated: 1
EndChar

StartChar: Umacron
Encoding: 362 362 268
Width: 414
GlyphClass: 2
Flags: HW
LayerCount: 2
Fore
SplineSet
61 590 m 1
 61 703 l 1
 353 703 l 1
 353 590 l 1
 61 590 l 1
209 0 m 1
 103 0 15 87 15 193 c 2
 15 538 l 1
 138 538 l 1
 138 193 l 2
 138 157 170 120 209 120 c 1
 209 0 l 1
224 1 m 1
 224 122 l 1
 257 130 281 162 281 193 c 2
 281 538 l 1
 399 538 l 1
 399 193 l 2
 399 93 322 9 224 1 c 1
EndSplineSet
Validated: 1
EndChar

StartChar: umacron
Encoding: 363 363 269
Width: 414
GlyphClass: 2
Flags: HW
LayerCount: 2
Fore
SplineSet
61 590 m 1
 61 703 l 1
 353 703 l 1
 353 590 l 1
 61 590 l 1
209 0 m 1
 103 0 15 87 15 193 c 2
 15 538 l 1
 138 538 l 1
 138 193 l 2
 138 157 170 120 209 120 c 1
 209 0 l 1
224 1 m 1
 224 122 l 1
 257 130 281 162 281 193 c 2
 281 538 l 1
 399 538 l 1
 399 193 l 2
 399 93 322 9 224 1 c 1
EndSplineSet
Validated: 1
EndChar

StartChar: Ubreve
Encoding: 364 364 270
Width: 414
GlyphClass: 2
Flags: HW
LayerCount: 2
Fore
SplineSet
35 651 m 1
 72 733 l 1
 117 711 158 697 207 697 c 0
 256 697 297 711 342 733 c 1
 379 651 l 1
 328 604 274 571 207 571 c 0
 140 571 86 604 35 651 c 1
209 0 m 1
 103 0 15 87 15 193 c 2
 15 538 l 1
 138 538 l 1
 138 193 l 2
 138 157 170 120 209 120 c 1
 209 0 l 1
224 1 m 1
 224 122 l 1
 257 130 281 162 281 193 c 2
 281 538 l 1
 399 538 l 1
 399 193 l 2
 399 93 322 9 224 1 c 1
EndSplineSet
Validated: 1
EndChar

StartChar: ubreve
Encoding: 365 365 271
Width: 414
GlyphClass: 2
Flags: HW
LayerCount: 2
Fore
SplineSet
35 651 m 1
 72 733 l 1
 117 711 158 697 207 697 c 0
 256 697 297 711 342 733 c 1
 379 651 l 1
 328 604 274 571 207 571 c 0
 140 571 86 604 35 651 c 1
209 0 m 1
 103 0 15 87 15 193 c 2
 15 538 l 1
 138 538 l 1
 138 193 l 2
 138 157 170 120 209 120 c 1
 209 0 l 1
224 1 m 1
 224 122 l 1
 257 130 281 162 281 193 c 2
 281 538 l 1
 399 538 l 1
 399 193 l 2
 399 93 322 9 224 1 c 1
EndSplineSet
Validated: 1
EndChar

StartChar: Uring
Encoding: 366 366 272
Width: 414
GlyphClass: 2
Flags: HW
LayerCount: 2
Fore
SplineSet
84 680 m 0
 84 748 139 803 207 803 c 0
 275 803 330 748 330 680 c 0
 330 612 275 557 207 557 c 0
 139 557 84 612 84 680 c 0
167 680 m 0
 167 657 184 639 207 639 c 0
 230 639 247 657 247 680 c 0
 247 703 230 721 207 721 c 0
 184 721 167 703 167 680 c 0
209 0 m 1
 103 0 15 87 15 193 c 2
 15 538 l 1
 138 538 l 1
 138 193 l 2
 138 157 170 120 209 120 c 1
 209 0 l 1
224 1 m 1
 224 122 l 1
 257 130 281 162 281 193 c 2
 281 538 l 1
 399 538 l 1
 399 193 l 2
 399 93 322 9 224 1 c 1
EndSplineSet
Validated: 1
EndChar

StartChar: uring
Encoding: 367 367 273
Width: 414
GlyphClass: 2
Flags: HW
LayerCount: 2
Fore
SplineSet
84 680 m 0
 84 748 139 803 207 803 c 0
 275 803 330 748 330 680 c 0
 330 612 275 557 207 557 c 0
 139 557 84 612 84 680 c 0
167 680 m 0
 167 657 184 639 207 639 c 0
 230 639 247 657 247 680 c 0
 247 703 230 721 207 721 c 0
 184 721 167 703 167 680 c 0
209 0 m 1
 103 0 15 87 15 193 c 2
 15 538 l 1
 138 538 l 1
 138 193 l 2
 138 157 170 120 209 120 c 1
 209 0 l 1
224 1 m 1
 224 122 l 1
 257 130 281 162 281 193 c 2
 281 538 l 1
 399 538 l 1
 399 193 l 2
 399 93 322 9 224 1 c 1
EndSplineSet
Validated: 1
EndChar

StartChar: Uhungarumlaut
Encoding: 368 368 274
Width: 414
GlyphClass: 2
Flags: HW
LayerCount: 2
Fore
SplineSet
229 637 m 1
 356 739 l 1
 418 629 l 1
 268 568 l 1
 229 637 l 1
31 637 m 1
 158 739 l 1
 219 629 l 1
 71 568 l 1
 31 637 l 1
209 0 m 1
 103 0 15 87 15 193 c 2
 15 538 l 1
 138 538 l 1
 138 193 l 2
 138 157 170 120 209 120 c 1
 209 0 l 1
224 1 m 1
 224 122 l 1
 257 130 281 162 281 193 c 2
 281 538 l 1
 399 538 l 1
 399 193 l 2
 399 93 322 9 224 1 c 1
EndSplineSet
Validated: 1
EndChar

StartChar: uhungarumlaut
Encoding: 369 369 275
Width: 414
GlyphClass: 2
Flags: HW
LayerCount: 2
Fore
SplineSet
229 637 m 1
 356 739 l 1
 418 629 l 1
 268 568 l 1
 229 637 l 1
31 637 m 1
 158 739 l 1
 219 629 l 1
 71 568 l 1
 31 637 l 1
209 0 m 1
 103 0 15 87 15 193 c 2
 15 538 l 1
 138 538 l 1
 138 193 l 2
 138 157 170 120 209 120 c 1
 209 0 l 1
224 1 m 1
 224 122 l 1
 257 130 281 162 281 193 c 2
 281 538 l 1
 399 538 l 1
 399 193 l 2
 399 93 322 9 224 1 c 1
EndSplineSet
Validated: 1
EndChar

StartChar: Uogonek
Encoding: 370 370 276
Width: 414
GlyphClass: 2
Flags: HW
LayerCount: 2
Fore
SplineSet
209 0 m 1
 103 0 15 87 15 193 c 2
 15 538 l 1
 138 538 l 1
 138 193 l 2
 138 157 170 120 209 120 c 1
 209 0 l 1
224 1 m 1
 224 122 l 1
 257 130 281 162 281 193 c 2
 281 538 l 1
 399 538 l 1
 399 193 l 2
 399 93 322 9 224 1 c 1
209 -141 m 1
 238 -141 262 -122 262 -95 c 1
 347 -95 l 1
 347 -172 286 -233 209 -233 c 1
 209 -141 l 1
222 -15 m 1
 191 -40 170 -67 170 -102 c 0
 170 -118 181 -132 194 -138 c 1
 194 -232 l 1
 125 -225 71 -174 71 -111 c 0
 71 -69 97 -34 135 -2 c 1
 158 -10 183 -15 209 -15 c 2
 222 -15 l 1
EndSplineSet
Validated: 1
EndChar

StartChar: uogonek
Encoding: 371 371 277
Width: 414
GlyphClass: 2
Flags: HW
LayerCount: 2
Fore
SplineSet
209 0 m 1
 103 0 15 87 15 193 c 2
 15 538 l 1
 138 538 l 1
 138 193 l 2
 138 157 170 120 209 120 c 1
 209 0 l 1
224 1 m 1
 224 122 l 1
 257 130 281 162 281 193 c 2
 281 538 l 1
 399 538 l 1
 399 193 l 2
 399 93 322 9 224 1 c 1
209 -141 m 1
 238 -141 262 -122 262 -95 c 1
 347 -95 l 1
 347 -172 286 -233 209 -233 c 1
 209 -141 l 1
222 -15 m 1
 191 -40 170 -67 170 -102 c 0
 170 -118 181 -132 194 -138 c 1
 194 -232 l 1
 125 -225 71 -174 71 -111 c 0
 71 -69 97 -34 135 -2 c 1
 158 -10 183 -15 209 -15 c 2
 222 -15 l 1
EndSplineSet
Validated: 1
EndChar

StartChar: Wcircumflex
Encoding: 372 372 278
Width: 768
GlyphClass: 2
Flags: HW
LayerCount: 2
Fore
SplineSet
225 647 m 1
 388 735 l 1
 394 735 l 1
 557 647 l 1
 524 567 l 1
 391 610 l 1
 258 567 l 1
 225 647 l 1
280 0 m 1
 156 0 l 1
 2 538 l 1
 133 538 l 1
 280 0 l 1
610 0 m 1
 552 214 l 1
 641 538 l 1
 766 538 l 1
 612 0 l 1
 610 0 l 1
455 509 m 1
 594 0 l 1
 475 0 l 1
 393 293 l 1
 455 509 l 1
295 1 m 1
 236 222 l 1
 323 538 l 1
 446 538 l 1
 295 1 l 1
EndSplineSet
Validated: 1
EndChar

StartChar: wcircumflex
Encoding: 373 373 279
Width: 768
GlyphClass: 2
Flags: HW
LayerCount: 2
Fore
SplineSet
225 647 m 1
 388 735 l 1
 394 735 l 1
 557 647 l 1
 524 567 l 1
 391 610 l 1
 258 567 l 1
 225 647 l 1
280 0 m 1
 156 0 l 1
 2 538 l 1
 133 538 l 1
 280 0 l 1
610 0 m 1
 552 214 l 1
 641 538 l 1
 766 538 l 1
 612 0 l 1
 610 0 l 1
455 509 m 1
 594 0 l 1
 475 0 l 1
 393 293 l 1
 455 509 l 1
295 1 m 1
 236 222 l 1
 323 538 l 1
 446 538 l 1
 295 1 l 1
EndSplineSet
Validated: 1
EndChar

StartChar: Ycircumflex
Encoding: 374 374 280
Width: 503
GlyphClass: 2
Flags: HW
LayerCount: 2
Fore
SplineSet
86 647 m 1
 249 735 l 1
 255 735 l 1
 418 647 l 1
 385 567 l 1
 252 610 l 1
 119 567 l 1
 86 647 l 1
2 538 m 1
 144 538 l 1
 313 231 l 1
 313 0 l 1
 190 0 l 1
 190 218 l 1
 2 538 l 1
327 241 m 1
 261 358 l 1
 359 538 l 1
 502 538 l 1
 327 241 l 1
EndSplineSet
Validated: 1
EndChar

StartChar: ycircumflex
Encoding: 375 375 281
Width: 503
GlyphClass: 2
Flags: HW
LayerCount: 2
Fore
SplineSet
86 647 m 1
 249 735 l 1
 255 735 l 1
 418 647 l 1
 385 567 l 1
 252 610 l 1
 119 567 l 1
 86 647 l 1
2 538 m 1
 144 538 l 1
 313 231 l 1
 313 0 l 1
 190 0 l 1
 190 218 l 1
 2 538 l 1
327 241 m 1
 261 358 l 1
 359 538 l 1
 502 538 l 1
 327 241 l 1
EndSplineSet
Validated: 1
EndChar

StartChar: Ydieresis
Encoding: 376 376 282
Width: 503
GlyphClass: 2
Flags: HW
LayerCount: 2
Fore
SplineSet
109 584 m 1
 109 703 l 1
 229 703 l 1
 229 584 l 1
 109 584 l 1
275 584 m 1
 275 703 l 1
 397 703 l 1
 397 584 l 1
 275 584 l 1
2 538 m 1
 144 538 l 1
 313 231 l 1
 313 0 l 1
 190 0 l 1
 190 218 l 1
 2 538 l 1
327 241 m 1
 261 358 l 1
 359 538 l 1
 502 538 l 1
 327 241 l 1
EndSplineSet
Validated: 1
EndChar

StartChar: Zacute
Encoding: 377 377 283
Width: 414
GlyphClass: 2
Flags: HW
LayerCount: 2
Fore
SplineSet
104 643 m 1
 304 727 l 1
 335 606 l 1
 124 569 l 1
 104 643 l 1
174 0 m 1
 229 119 l 1
 402 119 l 1
 402 0 l 1
 174 0 l 1
12 420 m 1
 12 538 l 1
 414 538 l 1
 358 420 l 1
 12 420 l 1
348 403 m 1
 157 0 l 1
 -3 0 l 1
 200 403 l 1
 348 403 l 1
EndSplineSet
Validated: 1
EndChar

StartChar: zacute
Encoding: 378 378 284
Width: 414
GlyphClass: 2
Flags: HW
LayerCount: 2
Fore
SplineSet
104 643 m 1
 304 727 l 1
 335 606 l 1
 124 569 l 1
 104 643 l 1
174 0 m 1
 229 119 l 1
 402 119 l 1
 402 0 l 1
 174 0 l 1
12 420 m 1
 12 538 l 1
 414 538 l 1
 358 420 l 1
 12 420 l 1
348 403 m 1
 157 0 l 1
 -3 0 l 1
 200 403 l 1
 348 403 l 1
EndSplineSet
Validated: 1
EndChar

StartChar: Zdotaccent
Encoding: 379 379 285
Width: 414
GlyphClass: 2
Flags: HW
LayerCount: 2
Fore
SplineSet
139 573 m 1
 139 696 l 1
 262 696 l 1
 262 573 l 1
 139 573 l 1
174 0 m 1
 229 119 l 1
 402 119 l 1
 402 0 l 1
 174 0 l 1
12 420 m 1
 12 538 l 1
 414 538 l 1
 358 420 l 1
 12 420 l 1
348 403 m 1
 157 0 l 1
 -3 0 l 1
 200 403 l 1
 348 403 l 1
EndSplineSet
Validated: 1
EndChar

StartChar: zdotaccent
Encoding: 380 380 286
Width: 414
GlyphClass: 2
Flags: HW
LayerCount: 2
Fore
SplineSet
139 573 m 1
 139 696 l 1
 262 696 l 1
 262 573 l 1
 139 573 l 1
174 0 m 1
 229 119 l 1
 402 119 l 1
 402 0 l 1
 174 0 l 1
12 420 m 1
 12 538 l 1
 414 538 l 1
 358 420 l 1
 12 420 l 1
348 403 m 1
 157 0 l 1
 -3 0 l 1
 200 403 l 1
 348 403 l 1
EndSplineSet
Validated: 1
EndChar

StartChar: Zcaron
Encoding: 381 381 287
Width: 414
GlyphClass: 2
Flags: HW
LayerCount: 2
Fore
SplineSet
367 655 m 1
 204 567 l 1
 198 567 l 1
 35 655 l 1
 68 735 l 1
 201 692 l 1
 334 735 l 1
 367 655 l 1
174 0 m 1
 229 119 l 1
 402 119 l 1
 402 0 l 1
 174 0 l 1
12 420 m 1
 12 538 l 1
 414 538 l 1
 358 420 l 1
 12 420 l 1
348 403 m 1
 157 0 l 1
 -3 0 l 1
 200 403 l 1
 348 403 l 1
EndSplineSet
Validated: 1
EndChar

StartChar: zcaron
Encoding: 382 382 288
Width: 414
GlyphClass: 2
Flags: HW
LayerCount: 2
Fore
SplineSet
367 655 m 1
 204 567 l 1
 198 567 l 1
 35 655 l 1
 68 735 l 1
 201 692 l 1
 334 735 l 1
 367 655 l 1
174 0 m 1
 229 119 l 1
 402 119 l 1
 402 0 l 1
 174 0 l 1
12 420 m 1
 12 538 l 1
 414 538 l 1
 358 420 l 1
 12 420 l 1
348 403 m 1
 157 0 l 1
 -3 0 l 1
 200 403 l 1
 348 403 l 1
EndSplineSet
Validated: 1
EndChar

StartChar: uni01CD
Encoding: 461 461 289
Width: 519
GlyphClass: 2
Flags: HW
LayerCount: 2
Fore
SplineSet
418 655 m 1
 255 567 l 1
 249 567 l 1
 86 655 l 1
 119 735 l 1
 252 692 l 1
 385 735 l 1
 418 655 l 1
333 538 m 1
 334 538 l 1
 518 0 l 1
 387 0 l 1
 267 347 l 1
 333 538 l 1
170 111 m 1
 132 0 l 1
 2 0 l 1
 186 538 l 1
 316 538 l 1
 207 218 l 1
 295 218 l 1
 333 111 l 1
 170 111 l 1
EndSplineSet
Validated: 1
EndChar

StartChar: uni01CE
Encoding: 462 462 290
Width: 519
GlyphClass: 2
Flags: HW
LayerCount: 2
Fore
SplineSet
418 655 m 1
 255 567 l 1
 249 567 l 1
 86 655 l 1
 119 735 l 1
 252 692 l 1
 385 735 l 1
 418 655 l 1
333 538 m 1
 334 538 l 1
 518 0 l 1
 387 0 l 1
 267 347 l 1
 333 538 l 1
170 111 m 1
 132 0 l 1
 2 0 l 1
 186 538 l 1
 316 538 l 1
 207 218 l 1
 295 218 l 1
 333 111 l 1
 170 111 l 1
EndSplineSet
Validated: 1
EndChar

StartChar: uni01CF
Encoding: 463 463 291
Width: 165
GlyphClass: 2
Flags: HW
LayerCount: 2
Fore
SplineSet
249 655 m 1
 86 567 l 1
 80 567 l 1
 -83 655 l 1
 -50 735 l 1
 83 692 l 1
 216 735 l 1
 249 655 l 1
22 0 m 1
 22 538 l 1
 144 538 l 1
 144 0 l 1
 22 0 l 1
EndSplineSet
Validated: 1
EndChar

StartChar: uni01D0
Encoding: 464 464 292
Width: 165
GlyphClass: 2
Flags: HW
LayerCount: 2
Fore
SplineSet
249 655 m 1
 86 567 l 1
 80 567 l 1
 -83 655 l 1
 -50 735 l 1
 83 692 l 1
 216 735 l 1
 249 655 l 1
22 0 m 1
 22 538 l 1
 144 538 l 1
 144 0 l 1
 22 0 l 1
EndSplineSet
Validated: 1
EndChar

StartChar: uni01D1
Encoding: 465 465 293
Width: 485
GlyphClass: 2
Flags: HW
LayerCount: 2
Fore
SplineSet
409 655 m 1
 246 567 l 1
 240 567 l 1
 77 655 l 1
 110 735 l 1
 243 692 l 1
 376 735 l 1
 409 655 l 1
227 540 m 1
 227 421 l 1
 175 411 135 346 135 268 c 1
 9 268 l 1
 9 412 105 531 227 540 c 1
350 268 m 0
 350 353 302 422 243 422 c 1
 243 541 l 1
 372 541 476 419 476 268 c 0
 476 117 372 -3 243 -3 c 0
 118 -3 16 111 9 254 c 1
 136 254 l 1
 141 176 188 115 243 115 c 0
 302 115 350 183 350 268 c 0
EndSplineSet
Validated: 1
EndChar

StartChar: uni01D2
Encoding: 466 466 294
Width: 485
GlyphClass: 2
Flags: HW
LayerCount: 2
Fore
SplineSet
409 655 m 1
 246 567 l 1
 240 567 l 1
 77 655 l 1
 110 735 l 1
 243 692 l 1
 376 735 l 1
 409 655 l 1
227 540 m 1
 227 421 l 1
 175 411 135 346 135 268 c 1
 9 268 l 1
 9 412 105 531 227 540 c 1
350 268 m 0
 350 353 302 422 243 422 c 1
 243 541 l 1
 372 541 476 419 476 268 c 0
 476 117 372 -3 243 -3 c 0
 118 -3 16 111 9 254 c 1
 136 254 l 1
 141 176 188 115 243 115 c 0
 302 115 350 183 350 268 c 0
EndSplineSet
Validated: 1
EndChar

StartChar: uni01D3
Encoding: 467 467 295
Width: 414
GlyphClass: 2
Flags: HW
LayerCount: 2
Fore
SplineSet
373 655 m 1
 210 567 l 1
 204 567 l 1
 41 655 l 1
 74 735 l 1
 207 692 l 1
 340 735 l 1
 373 655 l 1
209 0 m 1
 103 0 15 87 15 193 c 2
 15 538 l 1
 138 538 l 1
 138 193 l 2
 138 157 170 120 209 120 c 1
 209 0 l 1
224 1 m 1
 224 122 l 1
 257 130 281 162 281 193 c 2
 281 538 l 1
 399 538 l 1
 399 193 l 2
 399 93 322 9 224 1 c 1
EndSplineSet
Validated: 1
EndChar

StartChar: uni01D4
Encoding: 468 468 296
Width: 414
GlyphClass: 2
Flags: HW
LayerCount: 2
Fore
SplineSet
373 655 m 1
 210 567 l 1
 204 567 l 1
 41 655 l 1
 74 735 l 1
 207 692 l 1
 340 735 l 1
 373 655 l 1
209 0 m 1
 103 0 15 87 15 193 c 2
 15 538 l 1
 138 538 l 1
 138 193 l 2
 138 157 170 120 209 120 c 1
 209 0 l 1
224 1 m 1
 224 122 l 1
 257 130 281 162 281 193 c 2
 281 538 l 1
 399 538 l 1
 399 193 l 2
 399 93 322 9 224 1 c 1
EndSplineSet
Validated: 1
EndChar

StartChar: uni01E2
Encoding: 482 482 297
Width: 685
GlyphClass: 2
Flags: HW
LayerCount: 2
Fore
SplineSet
227 586 m 1
 227 699 l 1
 519 699 l 1
 519 586 l 1
 227 586 l 1
477 120 m 1
 676 120 l 1
 676 0 l 1
 477 0 l 1
 477 120 l 1
477 332 m 1
 637 332 l 1
 637 212 l 1
 477 212 l 1
 477 332 l 1
340 -2 m 1
 340 402 l 1
 463 402 l 1
 463 -2 l 1
 340 -2 l 1
184 538 m 1
 676 538 l 1
 676 418 l 1
 143 418 l 1
 184 538 l 1
207 218 m 1
 324 218 l 1
 324 111 l 1
 170 111 l 1
 132 0 l 1
 2 0 l 1
 139 402 l 1
 270 402 l 1
 207 218 l 1
EndSplineSet
Validated: 1
EndChar

StartChar: uni01E3
Encoding: 483 483 298
Width: 685
GlyphClass: 2
Flags: HW
LayerCount: 2
Fore
SplineSet
227 586 m 1
 227 699 l 1
 519 699 l 1
 519 586 l 1
 227 586 l 1
477 120 m 1
 676 120 l 1
 676 0 l 1
 477 0 l 1
 477 120 l 1
477 332 m 1
 637 332 l 1
 637 212 l 1
 477 212 l 1
 477 332 l 1
340 -2 m 1
 340 402 l 1
 463 402 l 1
 463 -2 l 1
 340 -2 l 1
184 538 m 1
 676 538 l 1
 676 418 l 1
 143 418 l 1
 184 538 l 1
207 218 m 1
 324 218 l 1
 324 111 l 1
 170 111 l 1
 132 0 l 1
 2 0 l 1
 139 402 l 1
 270 402 l 1
 207 218 l 1
EndSplineSet
Validated: 1
EndChar

StartChar: Gcaron
Encoding: 486 486 299
Width: 463
GlyphClass: 2
Flags: HW
LayerCount: 2
Fore
SplineSet
401 655 m 1
 239 567 l 1
 232 567 l 1
 70 655 l 1
 102 735 l 1
 236 692 l 1
 369 735 l 1
 401 655 l 1
326 82 m 1
 326 200 l 1
 449 200 l 1
 449 -4 l 1
 326 82 l 1
455 215 m 1
 229 215 l 1
 229 323 l 1
 455 323 l 1
 455 215 l 1
339 380 m 1
 317 409 286 422 249 422 c 0
 190 422 142 363 136 285 c 1
 9 285 l 1
 16 428 121 541 249 541 c 0
 329 541 391 509 432 457 c 1
 339 380 l 1
135 268 m 1
 135 183 187 115 249 115 c 0
 272 115 293 120 310 131 c 1
 310 74 l 1
 373 30 l 1
 338 10 297 -3 249 -3 c 0
 117 -3 9 117 9 268 c 1
 135 268 l 1
EndSplineSet
Validated: 1
EndChar

StartChar: gcaron
Encoding: 487 487 300
Width: 463
GlyphClass: 2
Flags: HW
LayerCount: 2
Fore
SplineSet
401 655 m 1
 239 567 l 1
 232 567 l 1
 70 655 l 1
 102 735 l 1
 236 692 l 1
 369 735 l 1
 401 655 l 1
326 82 m 1
 326 200 l 1
 449 200 l 1
 449 -4 l 1
 326 82 l 1
455 215 m 1
 229 215 l 1
 229 323 l 1
 455 323 l 1
 455 215 l 1
339 380 m 1
 317 409 286 422 249 422 c 0
 190 422 142 363 136 285 c 1
 9 285 l 1
 16 428 121 541 249 541 c 0
 329 541 391 509 432 457 c 1
 339 380 l 1
135 268 m 1
 135 183 187 115 249 115 c 0
 272 115 293 120 310 131 c 1
 310 74 l 1
 373 30 l 1
 338 10 297 -3 249 -3 c 0
 117 -3 9 117 9 268 c 1
 135 268 l 1
EndSplineSet
Validated: 1
EndChar

StartChar: uni01E8
Encoding: 488 488 301
Width: 457
GlyphClass: 2
Flags: HW
LayerCount: 2
Fore
SplineSet
375 655 m 1
 212 567 l 1
 206 567 l 1
 43 655 l 1
 76 735 l 1
 209 692 l 1
 342 735 l 1
 375 655 l 1
158 329 m 1
 219 329 l 1
 455 0 l 1
 297 0 l 1
 162 221 l 1
 158 221 l 1
 158 329 l 1
22 0 m 1
 22 538 l 1
 144 538 l 1
 144 0 l 1
 22 0 l 1
267 288 m 1
 227 344 l 1
 168 344 l 1
 295 538 l 1
 449 538 l 1
 267 288 l 1
EndSplineSet
Validated: 1
EndChar

StartChar: uni01E9
Encoding: 489 489 302
Width: 457
GlyphClass: 2
Flags: HW
LayerCount: 2
Fore
SplineSet
375 655 m 1
 212 567 l 1
 206 567 l 1
 43 655 l 1
 76 735 l 1
 209 692 l 1
 342 735 l 1
 375 655 l 1
158 329 m 1
 219 329 l 1
 455 0 l 1
 297 0 l 1
 162 221 l 1
 158 221 l 1
 158 329 l 1
22 0 m 1
 22 538 l 1
 144 538 l 1
 144 0 l 1
 22 0 l 1
267 288 m 1
 227 344 l 1
 168 344 l 1
 295 538 l 1
 449 538 l 1
 267 288 l 1
EndSplineSet
Validated: 1
EndChar

StartChar: uni01EA
Encoding: 490 490 303
Width: 485
GlyphClass: 2
Flags: HW
LayerCount: 2
Fore
SplineSet
175 -8 m 1
 197 -15 219 -18 243 -18 c 0
 251 -18 258 -18 265 -17 c 1
 235 -41 215 -69 215 -104 c 0
 215 -120 225 -133 238 -139 c 1
 238 -234 l 1
 169 -227 115 -176 115 -113 c 0
 115 -72 139 -39 175 -8 c 1
227 540 m 1
 227 421 l 1
 175 411 135 346 135 268 c 1
 9 268 l 1
 9 412 105 531 227 540 c 1
350 268 m 0
 350 353 302 422 243 422 c 1
 243 541 l 1
 372 541 476 419 476 268 c 0
 476 117 372 -3 243 -3 c 0
 118 -3 16 111 9 254 c 1
 136 254 l 1
 141 176 188 115 243 115 c 0
 302 115 350 183 350 268 c 0
254 -143 m 1
 283 -143 307 -123 307 -96 c 1
 391 -96 l 1
 391 -173 331 -236 254 -236 c 1
 254 -143 l 1
EndSplineSet
Validated: 1
EndChar

StartChar: uni01EB
Encoding: 491 491 304
Width: 485
GlyphClass: 2
Flags: HW
LayerCount: 2
Fore
SplineSet
175 -8 m 1
 197 -15 219 -18 243 -18 c 0
 251 -18 258 -18 265 -17 c 1
 235 -41 215 -69 215 -104 c 0
 215 -120 225 -133 238 -139 c 1
 238 -234 l 1
 169 -227 115 -176 115 -113 c 0
 115 -72 139 -39 175 -8 c 1
227 540 m 1
 227 421 l 1
 175 411 135 346 135 268 c 1
 9 268 l 1
 9 412 105 531 227 540 c 1
350 268 m 0
 350 353 302 422 243 422 c 1
 243 541 l 1
 372 541 476 419 476 268 c 0
 476 117 372 -3 243 -3 c 0
 118 -3 16 111 9 254 c 1
 136 254 l 1
 141 176 188 115 243 115 c 0
 302 115 350 183 350 268 c 0
254 -143 m 1
 283 -143 307 -123 307 -96 c 1
 391 -96 l 1
 391 -173 331 -236 254 -236 c 1
 254 -143 l 1
EndSplineSet
Validated: 1
EndChar

StartChar: uni01EC
Encoding: 492 492 305
Width: 485
GlyphClass: 2
Flags: HW
LayerCount: 2
Fore
SplineSet
97 590 m 1
 97 703 l 1
 389 703 l 1
 389 590 l 1
 97 590 l 1
175 -8 m 1
 197 -15 219 -18 243 -18 c 0
 251 -18 258 -18 265 -17 c 1
 235 -41 215 -69 215 -104 c 0
 215 -120 225 -133 238 -139 c 1
 238 -234 l 1
 169 -227 115 -176 115 -113 c 0
 115 -72 139 -39 175 -8 c 1
227 540 m 1
 227 421 l 1
 175 411 135 346 135 268 c 1
 9 268 l 1
 9 412 105 531 227 540 c 1
350 268 m 0
 350 353 302 422 243 422 c 1
 243 541 l 1
 372 541 476 419 476 268 c 0
 476 117 372 -3 243 -3 c 0
 118 -3 16 111 9 254 c 1
 136 254 l 1
 141 176 188 115 243 115 c 0
 302 115 350 183 350 268 c 0
254 -143 m 1
 283 -143 307 -123 307 -96 c 1
 391 -96 l 1
 391 -173 331 -236 254 -236 c 1
 254 -143 l 1
EndSplineSet
Validated: 1
EndChar

StartChar: uni01ED
Encoding: 493 493 306
Width: 485
GlyphClass: 2
Flags: HW
LayerCount: 2
Fore
SplineSet
97 590 m 1
 97 703 l 1
 389 703 l 1
 389 590 l 1
 97 590 l 1
175 -8 m 1
 197 -15 219 -18 243 -18 c 0
 251 -18 258 -18 265 -17 c 1
 235 -41 215 -69 215 -104 c 0
 215 -120 225 -133 238 -139 c 1
 238 -234 l 1
 169 -227 115 -176 115 -113 c 0
 115 -72 139 -39 175 -8 c 1
227 540 m 1
 227 421 l 1
 175 411 135 346 135 268 c 1
 9 268 l 1
 9 412 105 531 227 540 c 1
350 268 m 0
 350 353 302 422 243 422 c 1
 243 541 l 1
 372 541 476 419 476 268 c 0
 476 117 372 -3 243 -3 c 0
 118 -3 16 111 9 254 c 1
 136 254 l 1
 141 176 188 115 243 115 c 0
 302 115 350 183 350 268 c 0
254 -143 m 1
 283 -143 307 -123 307 -96 c 1
 391 -96 l 1
 391 -173 331 -236 254 -236 c 1
 254 -143 l 1
EndSplineSet
Validated: 1
EndChar

StartChar: uni01F4
Encoding: 500 500 307
Width: 463
GlyphClass: 2
Flags: HW
LayerCount: 2
Fore
SplineSet
138 643 m 1
 338 727 l 1
 369 606 l 1
 158 569 l 1
 138 643 l 1
326 82 m 1
 326 200 l 1
 449 200 l 1
 449 -4 l 1
 326 82 l 1
455 215 m 1
 229 215 l 1
 229 323 l 1
 455 323 l 1
 455 215 l 1
339 380 m 1
 317 409 286 422 249 422 c 0
 190 422 142 363 136 285 c 1
 9 285 l 1
 16 428 121 541 249 541 c 0
 329 541 391 509 432 457 c 1
 339 380 l 1
135 268 m 1
 135 183 187 115 249 115 c 0
 272 115 293 120 310 131 c 1
 310 74 l 1
 373 30 l 1
 338 10 297 -3 249 -3 c 0
 117 -3 9 117 9 268 c 1
 135 268 l 1
EndSplineSet
Validated: 1
EndChar

StartChar: uni01F8
Encoding: 504 504 308
Width: 436
GlyphClass: 2
Flags: HW
LayerCount: 2
Fore
SplineSet
313 643 m 1
 293 569 l 1
 82 606 l 1
 113 727 l 1
 313 643 l 1
162 538 m 1
 397 0 l 1
 274 0 l 1
 154 280 l 1
 154 538 l 1
 162 538 l 1
22 0 m 1
 22 538 l 1
 138 538 l 1
 138 0 l 1
 22 0 l 1
298 266 m 1
 298 538 l 1
 415 538 l 1
 415 0 l 1
 298 266 l 1
EndSplineSet
Validated: 1
EndChar

StartChar: uni01F9
Encoding: 505 505 309
Width: 436
GlyphClass: 2
Flags: HW
LayerCount: 2
Fore
SplineSet
313 643 m 1
 293 569 l 1
 82 606 l 1
 113 727 l 1
 313 643 l 1
162 538 m 1
 397 0 l 1
 274 0 l 1
 154 280 l 1
 154 538 l 1
 162 538 l 1
22 0 m 1
 22 538 l 1
 138 538 l 1
 138 0 l 1
 22 0 l 1
298 266 m 1
 298 538 l 1
 415 538 l 1
 415 0 l 1
 298 266 l 1
EndSplineSet
Validated: 1
EndChar

StartChar: AEacute
Encoding: 508 508 310
Width: 685
GlyphClass: 2
Flags: HW
LayerCount: 2
Fore
SplineSet
275 639 m 1
 475 723 l 1
 506 602 l 1
 295 565 l 1
 275 639 l 1
477 120 m 1
 676 120 l 1
 676 0 l 1
 477 0 l 1
 477 120 l 1
477 332 m 1
 637 332 l 1
 637 212 l 1
 477 212 l 1
 477 332 l 1
340 -2 m 1
 340 402 l 1
 463 402 l 1
 463 -2 l 1
 340 -2 l 1
184 538 m 1
 676 538 l 1
 676 418 l 1
 143 418 l 1
 184 538 l 1
207 218 m 1
 324 218 l 1
 324 111 l 1
 170 111 l 1
 132 0 l 1
 2 0 l 1
 139 402 l 1
 270 402 l 1
 207 218 l 1
EndSplineSet
Validated: 1
EndChar

StartChar: aeacute
Encoding: 509 509 311
Width: 685
GlyphClass: 2
Flags: HW
LayerCount: 2
Fore
SplineSet
275 639 m 1
 475 723 l 1
 506 602 l 1
 295 565 l 1
 275 639 l 1
477 120 m 1
 676 120 l 1
 676 0 l 1
 477 0 l 1
 477 120 l 1
477 332 m 1
 637 332 l 1
 637 212 l 1
 477 212 l 1
 477 332 l 1
340 -2 m 1
 340 402 l 1
 463 402 l 1
 463 -2 l 1
 340 -2 l 1
184 538 m 1
 676 538 l 1
 676 418 l 1
 143 418 l 1
 184 538 l 1
207 218 m 1
 324 218 l 1
 324 111 l 1
 170 111 l 1
 132 0 l 1
 2 0 l 1
 139 402 l 1
 270 402 l 1
 207 218 l 1
EndSplineSet
Validated: 1
EndChar

StartChar: Oslashacute
Encoding: 510 510 312
Width: 485
GlyphClass: 2
Flags: HW
LayerCount: 2
Fore
SplineSet
302 548 m 1
 326 604 l 1
 415 565 l 1
 388 502 l 1
 362 524 334 539 302 548 c 1
322 340 m 1
 153 -69 l 1
 63 -32 l 1
 245 407 l 1
 276 406 306 381 322 340 c 1
476 254 m 1
 469 111 368 -3 243 -3 c 0
 228 -3 212 -1 198 2 c 1
 245 116 l 1
 299 118 344 177 349 254 c 1
 476 254 l 1
350 268 m 1
 350 353 302 422 243 422 c 0
 184 422 135 353 135 268 c 0
 135 245 138 225 144 206 c 1
 87 67 l 1
 40 117 9 188 9 268 c 0
 9 419 114 541 243 541 c 0
 372 541 476 419 476 268 c 1
 350 268 l 1
138 664 m 1
 338 746 l 1
 369 627 l 1
 158 590 l 1
 138 664 l 1
EndSplineSet
Validated: 1
EndChar

StartChar: oslashacute
Encoding: 511 511 313
Width: 485
GlyphClass: 2
Flags: HW
LayerCount: 2
Fore
SplineSet
302 548 m 1
 326 604 l 1
 415 565 l 1
 388 502 l 1
 362 524 334 539 302 548 c 1
322 340 m 1
 153 -69 l 1
 63 -32 l 1
 245 407 l 1
 276 406 306 381 322 340 c 1
476 254 m 1
 469 111 368 -3 243 -3 c 0
 228 -3 212 -1 198 2 c 1
 245 116 l 1
 299 118 344 177 349 254 c 1
 476 254 l 1
350 268 m 1
 350 353 302 422 243 422 c 0
 184 422 135 353 135 268 c 0
 135 245 138 225 144 206 c 1
 87 67 l 1
 40 117 9 188 9 268 c 0
 9 419 114 541 243 541 c 0
 372 541 476 419 476 268 c 1
 350 268 l 1
138 664 m 1
 338 746 l 1
 369 627 l 1
 158 590 l 1
 138 664 l 1
EndSplineSet
Validated: 1
EndChar

StartChar: uni0200
Encoding: 512 512 314
Width: 519
GlyphClass: 2
Flags: HW
LayerCount: 2
Fore
SplineSet
233 637 m 1
 195 568 l 1
 45 629 l 1
 106 739 l 1
 233 637 l 1
432 637 m 1
 392 568 l 1
 244 629 l 1
 305 739 l 1
 432 637 l 1
333 538 m 1
 334 538 l 1
 518 0 l 1
 387 0 l 1
 267 347 l 1
 333 538 l 1
170 111 m 1
 132 0 l 1
 2 0 l 1
 186 538 l 1
 316 538 l 1
 207 218 l 1
 295 218 l 1
 333 111 l 1
 170 111 l 1
EndSplineSet
Validated: 1
EndChar

StartChar: uni0201
Encoding: 513 513 315
Width: 519
GlyphClass: 2
Flags: HW
LayerCount: 2
Fore
SplineSet
233 637 m 1
 195 568 l 1
 45 629 l 1
 106 739 l 1
 233 637 l 1
432 637 m 1
 392 568 l 1
 244 629 l 1
 305 739 l 1
 432 637 l 1
333 538 m 1
 334 538 l 1
 518 0 l 1
 387 0 l 1
 267 347 l 1
 333 538 l 1
170 111 m 1
 132 0 l 1
 2 0 l 1
 186 538 l 1
 316 538 l 1
 207 218 l 1
 295 218 l 1
 333 111 l 1
 170 111 l 1
EndSplineSet
Validated: 1
EndChar

StartChar: uni0202
Encoding: 514 514 316
Width: 519
GlyphClass: 2
Flags: HW
LayerCount: 2
Fore
SplineSet
424 649 m 1
 387 568 l 1
 342 590 301 604 252 604 c 0
 203 604 162 590 117 568 c 1
 80 649 l 1
 131 696 185 729 252 729 c 0
 319 729 373 696 424 649 c 1
333 538 m 1
 334 538 l 1
 518 0 l 1
 387 0 l 1
 267 347 l 1
 333 538 l 1
170 111 m 1
 132 0 l 1
 2 0 l 1
 186 538 l 1
 316 538 l 1
 207 218 l 1
 295 218 l 1
 333 111 l 1
 170 111 l 1
EndSplineSet
Validated: 1
EndChar

StartChar: uni0203
Encoding: 515 515 317
Width: 519
GlyphClass: 2
Flags: HW
LayerCount: 2
Fore
SplineSet
424 649 m 1
 387 568 l 1
 342 590 301 604 252 604 c 0
 203 604 162 590 117 568 c 1
 80 649 l 1
 131 696 185 729 252 729 c 0
 319 729 373 696 424 649 c 1
333 538 m 1
 334 538 l 1
 518 0 l 1
 387 0 l 1
 267 347 l 1
 333 538 l 1
170 111 m 1
 132 0 l 1
 2 0 l 1
 186 538 l 1
 316 538 l 1
 207 218 l 1
 295 218 l 1
 333 111 l 1
 170 111 l 1
EndSplineSet
Validated: 1
EndChar

StartChar: uni0204
Encoding: 516 516 318
Width: 375
GlyphClass: 2
Flags: HW
LayerCount: 2
Fore
SplineSet
174 637 m 1
 135 568 l 1
 -14 629 l 1
 47 739 l 1
 174 637 l 1
373 637 m 1
 333 568 l 1
 184 629 l 1
 246 739 l 1
 373 637 l 1
22 135 m 1
 22 402 l 1
 144 402 l 1
 144 135 l 1
 22 135 l 1
160 332 m 1
 329 332 l 1
 329 212 l 1
 160 212 l 1
 160 332 l 1
18 120 m 1
 367 120 l 1
 367 0 l 1
 18 0 l 1
 18 120 l 1
18 538 m 1
 367 538 l 1
 367 418 l 1
 18 418 l 1
 18 538 l 1
EndSplineSet
Validated: 1
EndChar

StartChar: uni0205
Encoding: 517 517 319
Width: 375
GlyphClass: 2
Flags: HW
LayerCount: 2
Fore
SplineSet
174 637 m 1
 135 568 l 1
 -14 629 l 1
 47 739 l 1
 174 637 l 1
373 637 m 1
 333 568 l 1
 184 629 l 1
 246 739 l 1
 373 637 l 1
22 135 m 1
 22 402 l 1
 144 402 l 1
 144 135 l 1
 22 135 l 1
160 332 m 1
 329 332 l 1
 329 212 l 1
 160 212 l 1
 160 332 l 1
18 120 m 1
 367 120 l 1
 367 0 l 1
 18 0 l 1
 18 120 l 1
18 538 m 1
 367 538 l 1
 367 418 l 1
 18 418 l 1
 18 538 l 1
EndSplineSet
Validated: 1
EndChar

StartChar: uni0206
Encoding: 518 518 320
Width: 375
GlyphClass: 2
Flags: HW
LayerCount: 2
Fore
SplineSet
365 649 m 1
 328 568 l 1
 283 590 242 604 193 604 c 0
 144 604 102 590 57 568 c 1
 20 649 l 1
 71 696 126 729 193 729 c 0
 260 729 314 696 365 649 c 1
22 135 m 1
 22 402 l 1
 144 402 l 1
 144 135 l 1
 22 135 l 1
160 332 m 1
 329 332 l 1
 329 212 l 1
 160 212 l 1
 160 332 l 1
18 120 m 1
 367 120 l 1
 367 0 l 1
 18 0 l 1
 18 120 l 1
18 538 m 1
 367 538 l 1
 367 418 l 1
 18 418 l 1
 18 538 l 1
EndSplineSet
Validated: 1
EndChar

StartChar: uni0207
Encoding: 519 519 321
Width: 375
GlyphClass: 2
Flags: HW
LayerCount: 2
Fore
SplineSet
365 649 m 1
 328 568 l 1
 283 590 242 604 193 604 c 0
 144 604 102 590 57 568 c 1
 20 649 l 1
 71 696 126 729 193 729 c 0
 260 729 314 696 365 649 c 1
22 135 m 1
 22 402 l 1
 144 402 l 1
 144 135 l 1
 22 135 l 1
160 332 m 1
 329 332 l 1
 329 212 l 1
 160 212 l 1
 160 332 l 1
18 120 m 1
 367 120 l 1
 367 0 l 1
 18 0 l 1
 18 120 l 1
18 538 m 1
 367 538 l 1
 367 418 l 1
 18 418 l 1
 18 538 l 1
EndSplineSet
Validated: 1
EndChar

StartChar: uni0208
Encoding: 520 520 322
Width: 165
GlyphClass: 2
Flags: HW
LayerCount: 2
Fore
SplineSet
65 637 m 1
 26 568 l 1
 -124 629 l 1
 -62 739 l 1
 65 637 l 1
263 637 m 1
 223 568 l 1
 75 629 l 1
 136 739 l 1
 263 637 l 1
22 0 m 1
 22 538 l 1
 144 538 l 1
 144 0 l 1
 22 0 l 1
EndSplineSet
Validated: 1
EndChar

StartChar: uni0209
Encoding: 521 521 323
Width: 165
GlyphClass: 2
Flags: HW
LayerCount: 2
Fore
SplineSet
65 637 m 1
 26 568 l 1
 -124 629 l 1
 -62 739 l 1
 65 637 l 1
263 637 m 1
 223 568 l 1
 75 629 l 1
 136 739 l 1
 263 637 l 1
22 0 m 1
 22 538 l 1
 144 538 l 1
 144 0 l 1
 22 0 l 1
EndSplineSet
Validated: 1
EndChar

StartChar: uni020A
Encoding: 522 522 324
Width: 165
GlyphClass: 2
Flags: HW
LayerCount: 2
Fore
SplineSet
255 649 m 1
 218 568 l 1
 173 590 132 604 83 604 c 0
 34 604 -7 590 -52 568 c 1
 -89 649 l 1
 -38 696 16 729 83 729 c 0
 150 729 204 696 255 649 c 1
22 0 m 1
 22 538 l 1
 144 538 l 1
 144 0 l 1
 22 0 l 1
EndSplineSet
Validated: 1
EndChar

StartChar: uni020B
Encoding: 523 523 325
Width: 165
GlyphClass: 2
Flags: HW
LayerCount: 2
Fore
SplineSet
255 649 m 1
 218 568 l 1
 173 590 132 604 83 604 c 0
 34 604 -7 590 -52 568 c 1
 -89 649 l 1
 -38 696 16 729 83 729 c 0
 150 729 204 696 255 649 c 1
22 0 m 1
 22 538 l 1
 144 538 l 1
 144 0 l 1
 22 0 l 1
EndSplineSet
Validated: 1
EndChar

StartChar: uni020C
Encoding: 524 524 326
Width: 485
GlyphClass: 2
Flags: HW
LayerCount: 2
Fore
SplineSet
224 637 m 1
 185 568 l 1
 36 629 l 1
 97 739 l 1
 224 637 l 1
423 637 m 1
 383 568 l 1
 234 629 l 1
 296 739 l 1
 423 637 l 1
227 540 m 1
 227 421 l 1
 175 411 135 346 135 268 c 1
 9 268 l 1
 9 412 105 531 227 540 c 1
350 268 m 0
 350 353 302 422 243 422 c 1
 243 541 l 1
 372 541 476 419 476 268 c 0
 476 117 372 -3 243 -3 c 0
 118 -3 16 111 9 254 c 1
 136 254 l 1
 141 176 188 115 243 115 c 0
 302 115 350 183 350 268 c 0
EndSplineSet
Validated: 1
EndChar

StartChar: uni020D
Encoding: 525 525 327
Width: 485
GlyphClass: 2
Flags: HW
LayerCount: 2
Fore
SplineSet
224 637 m 1
 185 568 l 1
 36 629 l 1
 97 739 l 1
 224 637 l 1
423 637 m 1
 383 568 l 1
 234 629 l 1
 296 739 l 1
 423 637 l 1
227 540 m 1
 227 421 l 1
 175 411 135 346 135 268 c 1
 9 268 l 1
 9 412 105 531 227 540 c 1
350 268 m 0
 350 353 302 422 243 422 c 1
 243 541 l 1
 372 541 476 419 476 268 c 0
 476 117 372 -3 243 -3 c 0
 118 -3 16 111 9 254 c 1
 136 254 l 1
 141 176 188 115 243 115 c 0
 302 115 350 183 350 268 c 0
EndSplineSet
Validated: 1
EndChar

StartChar: uni020E
Encoding: 526 526 328
Width: 485
GlyphClass: 2
Flags: HW
LayerCount: 2
Fore
SplineSet
415 649 m 1
 378 568 l 1
 333 590 292 604 243 604 c 0
 194 604 153 590 108 568 c 1
 71 649 l 1
 122 696 176 729 243 729 c 0
 310 729 364 696 415 649 c 1
227 540 m 1
 227 421 l 1
 175 411 135 346 135 268 c 1
 9 268 l 1
 9 412 105 531 227 540 c 1
350 268 m 0
 350 353 302 422 243 422 c 1
 243 541 l 1
 372 541 476 419 476 268 c 0
 476 117 372 -3 243 -3 c 0
 118 -3 16 111 9 254 c 1
 136 254 l 1
 141 176 188 115 243 115 c 0
 302 115 350 183 350 268 c 0
EndSplineSet
Validated: 1
EndChar

StartChar: uni020F
Encoding: 527 527 329
Width: 485
GlyphClass: 2
Flags: HW
LayerCount: 2
Fore
SplineSet
415 649 m 1
 378 568 l 1
 333 590 292 604 243 604 c 0
 194 604 153 590 108 568 c 1
 71 649 l 1
 122 696 176 729 243 729 c 0
 310 729 364 696 415 649 c 1
227 540 m 1
 227 421 l 1
 175 411 135 346 135 268 c 1
 9 268 l 1
 9 412 105 531 227 540 c 1
350 268 m 0
 350 353 302 422 243 422 c 1
 243 541 l 1
 372 541 476 419 476 268 c 0
 476 117 372 -3 243 -3 c 0
 118 -3 16 111 9 254 c 1
 136 254 l 1
 141 176 188 115 243 115 c 0
 302 115 350 183 350 268 c 0
EndSplineSet
Validated: 1
EndChar

StartChar: uni0210
Encoding: 528 528 330
Width: 417
GlyphClass: 2
Flags: HW
LayerCount: 2
Fore
SplineSet
172 637 m 1
 133 568 l 1
 -16 629 l 1
 45 739 l 1
 172 637 l 1
371 637 m 1
 331 568 l 1
 182 629 l 1
 244 739 l 1
 371 637 l 1
190 323 m 2
 298 323 406 243 406 162 c 2
 406 0 l 1
 283 0 l 1
 283 144 l 2
 283 187 249 221 206 221 c 2
 160 221 l 1
 160 323 l 1
 190 323 l 2
22 0 m 1
 22 406 l 1
 144 406 l 1
 144 0 l 1
 22 0 l 1
345 287 m 1
 317 306 285 322 251 330 c 1
 269 340 283 359 283 381 c 0
 283 404 266 421 249 421 c 2
 18 421 l 1
 18 538 l 1
 252 538 l 2
 336 538 406 468 406 384 c 0
 406 341 381 309 345 287 c 1
EndSplineSet
Validated: 1
EndChar

StartChar: uni0211
Encoding: 529 529 331
Width: 417
GlyphClass: 2
Flags: HW
LayerCount: 2
Fore
SplineSet
172 637 m 1
 133 568 l 1
 -16 629 l 1
 45 739 l 1
 172 637 l 1
371 637 m 1
 331 568 l 1
 182 629 l 1
 244 739 l 1
 371 637 l 1
190 323 m 2
 298 323 406 243 406 162 c 2
 406 0 l 1
 283 0 l 1
 283 144 l 2
 283 187 249 221 206 221 c 2
 160 221 l 1
 160 323 l 1
 190 323 l 2
22 0 m 1
 22 406 l 1
 144 406 l 1
 144 0 l 1
 22 0 l 1
345 287 m 1
 317 306 285 322 251 330 c 1
 269 340 283 359 283 381 c 0
 283 404 266 421 249 421 c 2
 18 421 l 1
 18 538 l 1
 252 538 l 2
 336 538 406 468 406 384 c 0
 406 341 381 309 345 287 c 1
EndSplineSet
Validated: 1
EndChar

StartChar: uni0212
Encoding: 530 530 332
Width: 417
GlyphClass: 2
Flags: HW
LayerCount: 2
Fore
SplineSet
362 649 m 1
 326 568 l 1
 281 590 239 604 190 604 c 0
 141 604 100 590 55 568 c 1
 18 649 l 1
 69 696 123 729 190 729 c 0
 257 729 311 696 362 649 c 1
190 323 m 2
 298 323 406 243 406 162 c 2
 406 0 l 1
 283 0 l 1
 283 144 l 2
 283 187 249 221 206 221 c 2
 160 221 l 1
 160 323 l 1
 190 323 l 2
22 0 m 1
 22 406 l 1
 144 406 l 1
 144 0 l 1
 22 0 l 1
345 287 m 1
 317 306 285 322 251 330 c 1
 269 340 283 359 283 381 c 0
 283 404 266 421 249 421 c 2
 18 421 l 1
 18 538 l 1
 252 538 l 2
 336 538 406 468 406 384 c 0
 406 341 381 309 345 287 c 1
EndSplineSet
Validated: 1
EndChar

StartChar: uni0213
Encoding: 531 531 333
Width: 417
GlyphClass: 2
Flags: HW
LayerCount: 2
Fore
SplineSet
362 649 m 1
 326 568 l 1
 281 590 239 604 190 604 c 0
 141 604 100 590 55 568 c 1
 18 649 l 1
 69 696 123 729 190 729 c 0
 257 729 311 696 362 649 c 1
190 323 m 2
 298 323 406 243 406 162 c 2
 406 0 l 1
 283 0 l 1
 283 144 l 2
 283 187 249 221 206 221 c 2
 160 221 l 1
 160 323 l 1
 190 323 l 2
22 0 m 1
 22 406 l 1
 144 406 l 1
 144 0 l 1
 22 0 l 1
345 287 m 1
 317 306 285 322 251 330 c 1
 269 340 283 359 283 381 c 0
 283 404 266 421 249 421 c 2
 18 421 l 1
 18 538 l 1
 252 538 l 2
 336 538 406 468 406 384 c 0
 406 341 381 309 345 287 c 1
EndSplineSet
Validated: 1
EndChar

StartChar: uni0214
Encoding: 532 532 334
Width: 414
GlyphClass: 2
Flags: HW
LayerCount: 2
Fore
SplineSet
188 637 m 1
 150 568 l 1
 0 629 l 1
 61 739 l 1
 188 637 l 1
387 637 m 1
 347 568 l 1
 199 629 l 1
 260 739 l 1
 387 637 l 1
209 0 m 1
 103 0 15 87 15 193 c 2
 15 538 l 1
 138 538 l 1
 138 193 l 2
 138 157 170 120 209 120 c 1
 209 0 l 1
224 1 m 1
 224 122 l 1
 257 130 281 162 281 193 c 2
 281 538 l 1
 399 538 l 1
 399 193 l 2
 399 93 322 9 224 1 c 1
EndSplineSet
Validated: 1
EndChar

StartChar: uni0215
Encoding: 533 533 335
Width: 414
GlyphClass: 2
Flags: HW
LayerCount: 2
Fore
SplineSet
188 637 m 1
 150 568 l 1
 0 629 l 1
 61 739 l 1
 188 637 l 1
387 637 m 1
 347 568 l 1
 199 629 l 1
 260 739 l 1
 387 637 l 1
209 0 m 1
 103 0 15 87 15 193 c 2
 15 538 l 1
 138 538 l 1
 138 193 l 2
 138 157 170 120 209 120 c 1
 209 0 l 1
224 1 m 1
 224 122 l 1
 257 130 281 162 281 193 c 2
 281 538 l 1
 399 538 l 1
 399 193 l 2
 399 93 322 9 224 1 c 1
EndSplineSet
Validated: 1
EndChar

StartChar: uni0216
Encoding: 534 534 336
Width: 414
GlyphClass: 2
Flags: HW
LayerCount: 2
Fore
SplineSet
379 649 m 1
 342 568 l 1
 297 590 256 604 207 604 c 0
 158 604 117 590 72 568 c 1
 35 649 l 1
 86 696 140 729 207 729 c 0
 274 729 328 696 379 649 c 1
209 0 m 1
 103 0 15 87 15 193 c 2
 15 538 l 1
 138 538 l 1
 138 193 l 2
 138 157 170 120 209 120 c 1
 209 0 l 1
224 1 m 1
 224 122 l 1
 257 130 281 162 281 193 c 2
 281 538 l 1
 399 538 l 1
 399 193 l 2
 399 93 322 9 224 1 c 1
EndSplineSet
Validated: 1
EndChar

StartChar: uni0217
Encoding: 535 535 337
Width: 414
GlyphClass: 2
Flags: HW
LayerCount: 2
Fore
SplineSet
379 649 m 1
 342 568 l 1
 297 590 256 604 207 604 c 0
 158 604 117 590 72 568 c 1
 35 649 l 1
 86 696 140 729 207 729 c 0
 274 729 328 696 379 649 c 1
209 0 m 1
 103 0 15 87 15 193 c 2
 15 538 l 1
 138 538 l 1
 138 193 l 2
 138 157 170 120 209 120 c 1
 209 0 l 1
224 1 m 1
 224 122 l 1
 257 130 281 162 281 193 c 2
 281 538 l 1
 399 538 l 1
 399 193 l 2
 399 93 322 9 224 1 c 1
EndSplineSet
Validated: 1
EndChar

StartChar: Scommaaccent
Encoding: 536 536 338
Width: 448
GlyphClass: 2
Flags: HW
LayerCount: 2
Fore
SplineSet
131 -199 m 1
 160 -100 l 1
 160 -46 l 1
 274 -46 l 1
 274 -108 l 2
 274 -112 272 -119 270 -123 c 2
 223 -236 l 1
 131 -199 l 1
217 428 m 1
 183 428 157 413 157 395 c 0
 157 363 227 353 298 327 c 0
 369 301 439 260 439 166 c 0
 439 65 350 -3 217 -3 c 1
 217 109 l 1
 276 109 315 130 315 163 c 0
 315 204 245 213 174 236 c 0
 103 259 33 295 33 391 c 0
 33 479 106 541 217 541 c 1
 217 428 l 1
201 110 m 1
 201 -3 l 1
 125 1 48 33 9 82 c 1
 100 155 l 1
 111 141 152 115 201 110 c 1
231 428 m 1
 231 541 l 1
 305 537 370 506 409 457 c 1
 317 383 l 1
 303 401 271 424 231 428 c 1
EndSplineSet
Validated: 1
EndChar

StartChar: scommaaccent
Encoding: 537 537 339
Width: 448
GlyphClass: 2
Flags: HW
LayerCount: 2
Fore
SplineSet
131 -199 m 1
 160 -100 l 1
 160 -46 l 1
 274 -46 l 1
 274 -108 l 2
 274 -112 272 -119 270 -123 c 2
 223 -236 l 1
 131 -199 l 1
217 428 m 1
 183 428 157 413 157 395 c 0
 157 363 227 353 298 327 c 0
 369 301 439 260 439 166 c 0
 439 65 350 -3 217 -3 c 1
 217 109 l 1
 276 109 315 130 315 163 c 0
 315 204 245 213 174 236 c 0
 103 259 33 295 33 391 c 0
 33 479 106 541 217 541 c 1
 217 428 l 1
201 110 m 1
 201 -3 l 1
 125 1 48 33 9 82 c 1
 100 155 l 1
 111 141 152 115 201 110 c 1
231 428 m 1
 231 541 l 1
 305 537 370 506 409 457 c 1
 317 383 l 1
 303 401 271 424 231 428 c 1
EndSplineSet
Validated: 1
EndChar

StartChar: uni021A
Encoding: 538 538 340
Width: 421
GlyphClass: 2
Flags: HW
LayerCount: 2
Fore
SplineSet
121 -199 m 1
 150 -100 l 1
 150 -46 l 1
 264 -46 l 1
 264 -108 l 2
 264 -112 262 -119 260 -123 c 2
 213 -236 l 1
 121 -199 l 1
274 409 m 1
 274 0 l 1
 150 0 l 1
 150 409 l 1
 274 409 l 1
6 424 m 1
 6 538 l 1
 416 538 l 1
 416 424 l 1
 6 424 l 1
EndSplineSet
Validated: 1
EndChar

StartChar: uni021B
Encoding: 539 539 341
Width: 421
GlyphClass: 2
Flags: HW
LayerCount: 2
Fore
SplineSet
121 -199 m 1
 150 -100 l 1
 150 -46 l 1
 264 -46 l 1
 264 -108 l 2
 264 -112 262 -119 260 -123 c 2
 213 -236 l 1
 121 -199 l 1
274 409 m 1
 274 0 l 1
 150 0 l 1
 150 409 l 1
 274 409 l 1
6 424 m 1
 6 538 l 1
 416 538 l 1
 416 424 l 1
 6 424 l 1
EndSplineSet
Validated: 1
EndChar

StartChar: uni021E
Encoding: 542 542 342
Width: 442
GlyphClass: 2
Flags: HW
LayerCount: 2
Fore
SplineSet
387 655 m 1
 224 567 l 1
 218 567 l 1
 55 655 l 1
 88 735 l 1
 221 692 l 1
 354 735 l 1
 387 655 l 1
144 0 m 1
 22 0 l 1
 22 197 l 1
 144 197 l 1
 144 0 l 1
283 212 m 1
 18 212 l 1
 18 332 l 1
 283 332 l 1
 283 212 l 1
144 347 m 1
 22 347 l 1
 22 538 l 1
 144 538 l 1
 144 347 l 1
298 538 m 1
 421 538 l 1
 421 0 l 1
 298 0 l 1
 298 538 l 1
EndSplineSet
Validated: 1
EndChar

StartChar: uni021F
Encoding: 543 543 343
Width: 442
GlyphClass: 2
Flags: HW
LayerCount: 2
Fore
SplineSet
387 655 m 1
 224 567 l 1
 218 567 l 1
 55 655 l 1
 88 735 l 1
 221 692 l 1
 354 735 l 1
 387 655 l 1
144 0 m 1
 22 0 l 1
 22 197 l 1
 144 197 l 1
 144 0 l 1
283 212 m 1
 18 212 l 1
 18 332 l 1
 283 332 l 1
 283 212 l 1
144 347 m 1
 22 347 l 1
 22 538 l 1
 144 538 l 1
 144 347 l 1
298 538 m 1
 421 538 l 1
 421 0 l 1
 298 0 l 1
 298 538 l 1
EndSplineSet
Validated: 1
EndChar

StartChar: uni0226
Encoding: 550 550 344
Width: 519
GlyphClass: 2
Flags: HW
LayerCount: 2
Fore
SplineSet
190 574 m 1
 190 697 l 1
 313 697 l 1
 313 574 l 1
 190 574 l 1
333 538 m 1
 334 538 l 1
 518 0 l 1
 387 0 l 1
 267 347 l 1
 333 538 l 1
170 111 m 1
 132 0 l 1
 2 0 l 1
 186 538 l 1
 316 538 l 1
 207 218 l 1
 295 218 l 1
 333 111 l 1
 170 111 l 1
EndSplineSet
Validated: 1
EndChar

StartChar: uni0227
Encoding: 551 551 345
Width: 519
GlyphClass: 2
Flags: HW
LayerCount: 2
Fore
SplineSet
190 574 m 1
 190 697 l 1
 313 697 l 1
 313 574 l 1
 190 574 l 1
333 538 m 1
 334 538 l 1
 518 0 l 1
 387 0 l 1
 267 347 l 1
 333 538 l 1
170 111 m 1
 132 0 l 1
 2 0 l 1
 186 538 l 1
 316 538 l 1
 207 218 l 1
 295 218 l 1
 333 111 l 1
 170 111 l 1
EndSplineSet
Validated: 1
EndChar

StartChar: uni0228
Encoding: 552 552 346
Width: 375
GlyphClass: 2
Flags: HW
LayerCount: 2
Fore
SplineSet
219 -123 m 1
 121 -123 l 1
 148 -15 l 1
 245 -15 l 1
 219 -123 l 1
22 135 m 1
 22 402 l 1
 144 402 l 1
 144 135 l 1
 22 135 l 1
160 332 m 1
 329 332 l 1
 329 212 l 1
 160 212 l 1
 160 332 l 1
18 120 m 1
 367 120 l 1
 367 0 l 1
 18 0 l 1
 18 120 l 1
18 538 m 1
 367 538 l 1
 367 418 l 1
 18 418 l 1
 18 538 l 1
232 -135 m 1
 254 -45 l 1
 303 -63 338 -109 338 -163 c 0
 338 -239 279 -298 203 -298 c 0
 166 -298 131 -285 106 -260 c 1
 174 -193 l 1
 182 -201 193 -203 203 -203 c 0
 226 -203 243 -186 243 -163 c 0
 243 -152 238 -142 232 -135 c 1
EndSplineSet
Validated: 1
EndChar

StartChar: uni0229
Encoding: 553 553 347
Width: 375
GlyphClass: 2
Flags: HW
LayerCount: 2
Fore
SplineSet
219 -123 m 1
 121 -123 l 1
 148 -15 l 1
 245 -15 l 1
 219 -123 l 1
22 135 m 1
 22 402 l 1
 144 402 l 1
 144 135 l 1
 22 135 l 1
160 332 m 1
 329 332 l 1
 329 212 l 1
 160 212 l 1
 160 332 l 1
18 120 m 1
 367 120 l 1
 367 0 l 1
 18 0 l 1
 18 120 l 1
18 538 m 1
 367 538 l 1
 367 418 l 1
 18 418 l 1
 18 538 l 1
232 -135 m 1
 254 -45 l 1
 303 -63 338 -109 338 -163 c 0
 338 -239 279 -298 203 -298 c 0
 166 -298 131 -285 106 -260 c 1
 174 -193 l 1
 182 -201 193 -203 203 -203 c 0
 226 -203 243 -186 243 -163 c 0
 243 -152 238 -142 232 -135 c 1
EndSplineSet
Validated: 1
EndChar

StartChar: uni022E
Encoding: 558 558 348
Width: 485
GlyphClass: 2
Flags: HW
LayerCount: 2
Fore
SplineSet
181 574 m 1
 181 697 l 1
 304 697 l 1
 304 574 l 1
 181 574 l 1
227 540 m 1
 227 421 l 1
 175 411 135 346 135 268 c 1
 9 268 l 1
 9 412 105 531 227 540 c 1
350 268 m 0
 350 353 302 422 243 422 c 1
 243 541 l 1
 372 541 476 419 476 268 c 0
 476 117 372 -3 243 -3 c 0
 118 -3 16 111 9 254 c 1
 136 254 l 1
 141 176 188 115 243 115 c 0
 302 115 350 183 350 268 c 0
EndSplineSet
Validated: 1
EndChar

StartChar: uni022F
Encoding: 559 559 349
Width: 485
GlyphClass: 2
Flags: HW
LayerCount: 2
Fore
SplineSet
181 574 m 1
 181 697 l 1
 304 697 l 1
 304 574 l 1
 181 574 l 1
227 540 m 1
 227 421 l 1
 175 411 135 346 135 268 c 1
 9 268 l 1
 9 412 105 531 227 540 c 1
350 268 m 0
 350 353 302 422 243 422 c 1
 243 541 l 1
 372 541 476 419 476 268 c 0
 476 117 372 -3 243 -3 c 0
 118 -3 16 111 9 254 c 1
 136 254 l 1
 141 176 188 115 243 115 c 0
 302 115 350 183 350 268 c 0
EndSplineSet
Validated: 1
EndChar

StartChar: uni0232
Encoding: 562 562 350
Width: 503
GlyphClass: 2
Flags: HW
LayerCount: 2
Fore
SplineSet
106 590 m 1
 106 703 l 1
 398 703 l 1
 398 590 l 1
 106 590 l 1
2 538 m 1
 144 538 l 1
 313 231 l 1
 313 0 l 1
 190 0 l 1
 190 218 l 1
 2 538 l 1
327 241 m 1
 261 358 l 1
 359 538 l 1
 502 538 l 1
 327 241 l 1
EndSplineSet
Validated: 1
EndChar

StartChar: uni0233
Encoding: 563 563 351
Width: 503
GlyphClass: 2
Flags: HW
LayerCount: 2
Fore
SplineSet
106 590 m 1
 106 703 l 1
 398 703 l 1
 398 590 l 1
 106 590 l 1
2 538 m 1
 144 538 l 1
 313 231 l 1
 313 0 l 1
 190 0 l 1
 190 218 l 1
 2 538 l 1
327 241 m 1
 261 358 l 1
 359 538 l 1
 502 538 l 1
 327 241 l 1
EndSplineSet
Validated: 1
EndChar

StartChar: ogonek
Encoding: 731 731 352
Width: 345
GlyphClass: 2
Flags: HW
LayerCount: 2
Fore
SplineSet
39 -115 m 0
 39 -44 111 4 188 52 c 1
 223 3 l 1
 176 -25 138 -61 138 -108 c 0
 138 -124 149 -136 162 -142 c 1
 162 -238 l 1
 93 -231 39 -178 39 -115 c 0
176 -145 m 1
 205 -145 230 -127 230 -100 c 1
 315 -100 l 1
 315 -177 253 -238 176 -238 c 1
 176 -145 l 1
EndSplineSet
Validated: 1
EndChar

StartChar: gravecomb
Encoding: 768 768 353
Width: 360
GlyphClass: 2
Flags: HW
LayerCount: 2
Fore
SplineSet
297 643 m 1
 276 569 l 1
 66 606 l 1
 96 727 l 1
 297 643 l 1
EndSplineSet
Validated: 1
EndChar

StartChar: acutecomb
Encoding: 769 769 354
Width: 360
GlyphClass: 2
Flags: HW
LayerCount: 2
Fore
SplineSet
65 643 m 1
 264 727 l 1
 295 606 l 1
 84 569 l 1
 65 643 l 1
EndSplineSet
Validated: 1
EndChar

StartChar: uni0302
Encoding: 770 770 355
Width: 368
GlyphClass: 2
Flags: HW
LayerCount: 2
Fore
SplineSet
18 647 m 1
 181 735 l 1
 187 735 l 1
 350 647 l 1
 317 567 l 1
 184 610 l 1
 51 567 l 1
 18 647 l 1
EndSplineSet
Validated: 1
EndChar

StartChar: tildecomb
Encoding: 771 771 356
Width: 368
GlyphClass: 2
Flags: HW
LayerCount: 2
Fore
SplineSet
23 675 m 2
 48 707 85 728 129 728 c 0
 187 728 214 686 237 686 c 0
 242 686 247 690 250 694 c 2
 271 723 l 1
 369 650 l 1
 346 622 l 2
 321 590 284 568 240 568 c 0
 182 568 154 608 131 608 c 0
 126 608 122 606 119 602 c 2
 97 573 l 1
 0 646 l 1
 23 675 l 2
EndSplineSet
Validated: 1
EndChar

StartChar: uni0304
Encoding: 772 772 357
Width: 353
GlyphClass: 2
Flags: HW
LayerCount: 2
Fore
SplineSet
31 590 m 1
 31 703 l 1
 323 703 l 1
 323 590 l 1
 31 590 l 1
EndSplineSet
Validated: 1
EndChar

StartChar: uni0306
Encoding: 774 774 358
Width: 368
GlyphClass: 2
Flags: HW
LayerCount: 2
Fore
SplineSet
12 651 m 1
 49 733 l 1
 94 711 135 697 184 697 c 0
 233 697 274 711 319 733 c 1
 356 651 l 1
 305 604 251 571 184 571 c 0
 117 571 63 604 12 651 c 1
EndSplineSet
Validated: 1
EndChar

StartChar: uni0307
Encoding: 775 775 359
Width: 168
GlyphClass: 2
Flags: HW
LayerCount: 2
Fore
SplineSet
23 582 m 1
 23 705 l 1
 145 705 l 1
 145 582 l 1
 23 582 l 1
EndSplineSet
Validated: 1
EndChar

StartChar: uni0308
Encoding: 776 776 360
Width: 353
GlyphClass: 2
Flags: HW
LayerCount: 2
Fore
SplineSet
33 584 m 1
 33 703 l 1
 154 703 l 1
 154 584 l 1
 33 584 l 1
200 584 m 1
 200 703 l 1
 322 703 l 1
 322 584 l 1
 200 584 l 1
EndSplineSet
Validated: 1
EndChar

StartChar: uni030A
Encoding: 778 778 361
Width: 0
GlyphClass: 2
Flags: HW
LayerCount: 2
Fore
SplineSet
-123 680 m 0
 -123 748 -68 803 0 803 c 0
 68 803 123 748 123 680 c 0
 123 612 68 557 0 557 c 0
 -68 557 -123 612 -123 680 c 0
-40 680 m 0
 -40 657 -23 639 0 639 c 0
 23 639 40 657 40 680 c 0
 40 703 23 721 0 721 c 0
 -23 721 -40 703 -40 680 c 0
EndSplineSet
Validated: 1
EndChar

StartChar: uni030B
Encoding: 779 779 362
Width: 399
GlyphClass: 2
Flags: HW
LayerCount: 2
Fore
SplineSet
205 637 m 1
 332 739 l 1
 393 629 l 1
 244 568 l 1
 205 637 l 1
6 637 m 1
 133 739 l 1
 195 629 l 1
 46 568 l 1
 6 637 l 1
EndSplineSet
Validated: 1
EndChar

StartChar: uni030C
Encoding: 780 780 363
Width: 368
GlyphClass: 2
Flags: HW
LayerCount: 2
Fore
SplineSet
350 655 m 1
 187 567 l 1
 181 567 l 1
 18 655 l 1
 51 735 l 1
 184 692 l 1
 317 735 l 1
 350 655 l 1
EndSplineSet
Validated: 1
EndChar

StartChar: uni030F
Encoding: 783 783 364
Width: 399
GlyphClass: 2
Flags: HW
LayerCount: 2
Fore
SplineSet
195 637 m 1
 156 568 l 1
 6 629 l 1
 68 739 l 1
 195 637 l 1
393 637 m 1
 353 568 l 1
 205 629 l 1
 266 739 l 1
 393 637 l 1
EndSplineSet
Validated: 1
EndChar

StartChar: uni0311
Encoding: 785 785 365
Width: 368
GlyphClass: 2
Flags: HW
LayerCount: 2
Fore
SplineSet
356 649 m 1
 319 568 l 1
 274 590 233 604 184 604 c 0
 135 604 94 590 49 568 c 1
 12 649 l 1
 63 696 117 729 184 729 c 0
 251 729 305 696 356 649 c 1
EndSplineSet
Validated: 1
EndChar

StartChar: uni0312
Encoding: 786 786 366
Width: 368
GlyphClass: 2
Flags: HW
LayerCount: 2
Fore
SplineSet
266 725 m 1
 237 627 l 1
 237 573 l 1
 123 573 l 1
 123 635 l 2
 123 639 124 645 126 649 c 2
 174 762 l 1
 266 725 l 1
EndSplineSet
Validated: 1
EndChar

StartChar: uni0326
Encoding: 806 806 367
Width: 0
GlyphClass: 2
Flags: HW
LayerCount: 2
Fore
SplineSet
-86 -199 m 1
 -57 -100 l 1
 -57 -46 l 1
 57 -46 l 1
 57 -108 l 2
 57 -112 55 -119 53 -123 c 2
 6 -236 l 1
 -86 -199 l 1
EndSplineSet
Validated: 1
EndChar

StartChar: Wgrave
Encoding: 7808 7808 368
Width: 768
GlyphClass: 2
Flags: HW
LayerCount: 2
Fore
SplineSet
496 643 m 1
 475 569 l 1
 264 606 l 1
 295 727 l 1
 496 643 l 1
280 0 m 1
 156 0 l 1
 2 538 l 1
 133 538 l 1
 280 0 l 1
610 0 m 1
 552 214 l 1
 641 538 l 1
 766 538 l 1
 612 0 l 1
 610 0 l 1
455 509 m 1
 594 0 l 1
 475 0 l 1
 393 293 l 1
 455 509 l 1
295 1 m 1
 236 222 l 1
 323 538 l 1
 446 538 l 1
 295 1 l 1
EndSplineSet
Validated: 1
EndChar

StartChar: wgrave
Encoding: 7809 7809 369
Width: 768
GlyphClass: 2
Flags: HW
LayerCount: 2
Fore
SplineSet
496 643 m 1
 475 569 l 1
 264 606 l 1
 295 727 l 1
 496 643 l 1
280 0 m 1
 156 0 l 1
 2 538 l 1
 133 538 l 1
 280 0 l 1
610 0 m 1
 552 214 l 1
 641 538 l 1
 766 538 l 1
 612 0 l 1
 610 0 l 1
455 509 m 1
 594 0 l 1
 475 0 l 1
 393 293 l 1
 455 509 l 1
295 1 m 1
 236 222 l 1
 323 538 l 1
 446 538 l 1
 295 1 l 1
EndSplineSet
Validated: 1
EndChar

StartChar: Wacute
Encoding: 7810 7810 370
Width: 768
GlyphClass: 2
Flags: HW
LayerCount: 2
Fore
SplineSet
294 643 m 1
 494 727 l 1
 524 606 l 1
 313 569 l 1
 294 643 l 1
280 0 m 1
 156 0 l 1
 2 538 l 1
 133 538 l 1
 280 0 l 1
610 0 m 1
 552 214 l 1
 641 538 l 1
 766 538 l 1
 612 0 l 1
 610 0 l 1
455 509 m 1
 594 0 l 1
 475 0 l 1
 393 293 l 1
 455 509 l 1
295 1 m 1
 236 222 l 1
 323 538 l 1
 446 538 l 1
 295 1 l 1
EndSplineSet
Validated: 1
EndChar

StartChar: wacute
Encoding: 7811 7811 371
Width: 768
GlyphClass: 2
Flags: HW
LayerCount: 2
Fore
SplineSet
294 643 m 1
 494 727 l 1
 524 606 l 1
 313 569 l 1
 294 643 l 1
280 0 m 1
 156 0 l 1
 2 538 l 1
 133 538 l 1
 280 0 l 1
610 0 m 1
 552 214 l 1
 641 538 l 1
 766 538 l 1
 612 0 l 1
 610 0 l 1
455 509 m 1
 594 0 l 1
 475 0 l 1
 393 293 l 1
 455 509 l 1
295 1 m 1
 236 222 l 1
 323 538 l 1
 446 538 l 1
 295 1 l 1
EndSplineSet
Validated: 1
EndChar

StartChar: Wdieresis
Encoding: 7812 7812 372
Width: 768
GlyphClass: 2
Flags: HW
LayerCount: 2
Fore
SplineSet
248 584 m 1
 248 703 l 1
 369 703 l 1
 369 584 l 1
 248 584 l 1
415 584 m 1
 415 703 l 1
 537 703 l 1
 537 584 l 1
 415 584 l 1
280 0 m 1
 156 0 l 1
 2 538 l 1
 133 538 l 1
 280 0 l 1
610 0 m 1
 552 214 l 1
 641 538 l 1
 766 538 l 1
 612 0 l 1
 610 0 l 1
455 509 m 1
 594 0 l 1
 475 0 l 1
 393 293 l 1
 455 509 l 1
295 1 m 1
 236 222 l 1
 323 538 l 1
 446 538 l 1
 295 1 l 1
EndSplineSet
Validated: 1
EndChar

StartChar: wdieresis
Encoding: 7813 7813 373
Width: 768
GlyphClass: 2
Flags: HW
LayerCount: 2
Fore
SplineSet
248 584 m 1
 248 703 l 1
 369 703 l 1
 369 584 l 1
 248 584 l 1
415 584 m 1
 415 703 l 1
 537 703 l 1
 537 584 l 1
 415 584 l 1
280 0 m 1
 156 0 l 1
 2 538 l 1
 133 538 l 1
 280 0 l 1
610 0 m 1
 552 214 l 1
 641 538 l 1
 766 538 l 1
 612 0 l 1
 610 0 l 1
455 509 m 1
 594 0 l 1
 475 0 l 1
 393 293 l 1
 455 509 l 1
295 1 m 1
 236 222 l 1
 323 538 l 1
 446 538 l 1
 295 1 l 1
EndSplineSet
Validated: 1
EndChar

StartChar: uni1E86
Encoding: 7814 7814 374
Width: 768
GlyphClass: 2
Flags: HW
LayerCount: 2
Fore
SplineSet
330 574 m 1
 330 697 l 1
 453 697 l 1
 453 574 l 1
 330 574 l 1
280 0 m 1
 156 0 l 1
 2 538 l 1
 133 538 l 1
 280 0 l 1
610 0 m 1
 552 214 l 1
 641 538 l 1
 766 538 l 1
 612 0 l 1
 610 0 l 1
455 509 m 1
 594 0 l 1
 475 0 l 1
 393 293 l 1
 455 509 l 1
295 1 m 1
 236 222 l 1
 323 538 l 1
 446 538 l 1
 295 1 l 1
EndSplineSet
Validated: 1
EndChar

StartChar: uni1E87
Encoding: 7815 7815 375
Width: 768
GlyphClass: 2
Flags: HW
LayerCount: 2
Fore
SplineSet
330 574 m 1
 330 697 l 1
 453 697 l 1
 453 574 l 1
 330 574 l 1
280 0 m 1
 156 0 l 1
 2 538 l 1
 133 538 l 1
 280 0 l 1
610 0 m 1
 552 214 l 1
 641 538 l 1
 766 538 l 1
 612 0 l 1
 610 0 l 1
455 509 m 1
 594 0 l 1
 475 0 l 1
 393 293 l 1
 455 509 l 1
295 1 m 1
 236 222 l 1
 323 538 l 1
 446 538 l 1
 295 1 l 1
EndSplineSet
Validated: 1
EndChar

StartChar: uni1E8E
Encoding: 7822 7822 376
Width: 503
GlyphClass: 2
Flags: HW
LayerCount: 2
Fore
SplineSet
190 574 m 1
 190 697 l 1
 313 697 l 1
 313 574 l 1
 190 574 l 1
2 538 m 1
 144 538 l 1
 313 231 l 1
 313 0 l 1
 190 0 l 1
 190 218 l 1
 2 538 l 1
327 241 m 1
 261 358 l 1
 359 538 l 1
 502 538 l 1
 327 241 l 1
EndSplineSet
Validated: 1
EndChar

StartChar: uni1E8F
Encoding: 7823 7823 377
Width: 503
GlyphClass: 2
Flags: HW
LayerCount: 2
Fore
SplineSet
190 574 m 1
 190 697 l 1
 313 697 l 1
 313 574 l 1
 190 574 l 1
2 538 m 1
 144 538 l 1
 313 231 l 1
 313 0 l 1
 190 0 l 1
 190 218 l 1
 2 538 l 1
327 241 m 1
 261 358 l 1
 359 538 l 1
 502 538 l 1
 327 241 l 1
EndSplineSet
Validated: 1
EndChar

StartChar: uni1E9E
Encoding: 7838 7838 378
Width: 479
GlyphClass: 2
Flags: HW
LayerCount: 2
Fore
SplineSet
18 346 m 2
 18 452 105 536 211 538 c 2
 349 538 l 1
 256 422 l 1
 212 422 l 2
 173 422 141 388 141 346 c 2
 141 0 l 1
 18 0 l 1
 18 346 l 2
301 328 m 2
 394 328 470 256 470 169 c 0
 470 74 385 -3 281 -3 c 0
 235 -3 195 15 166 46 c 1
 227 131 l 1
 242 122 262 115 281 115 c 0
 318 115 347 142 347 176 c 0
 347 202 320 229 286 229 c 2
 200 229 l 1
 200 328 l 1
 301 328 l 2
409 538 m 1
 409 444 l 1
 330 340 l 1
 321 341 311 342 301 342 c 2
 212 342 l 1
 369 538 l 1
 409 538 l 1
EndSplineSet
Validated: 1
EndChar

StartChar: uni1EBC
Encoding: 7868 7868 379
Width: 375
GlyphClass: 2
Flags: HW
LayerCount: 2
Fore
SplineSet
31 675 m 2
 56 707 93 728 137 728 c 0
 195 728 222 686 245 686 c 0
 250 686 255 690 258 694 c 2
 280 723 l 1
 377 650 l 1
 354 622 l 2
 329 590 292 568 248 568 c 0
 190 568 162 608 139 608 c 0
 134 608 130 606 127 602 c 2
 105 573 l 1
 8 646 l 1
 31 675 l 2
22 135 m 1
 22 402 l 1
 144 402 l 1
 144 135 l 1
 22 135 l 1
160 332 m 1
 329 332 l 1
 329 212 l 1
 160 212 l 1
 160 332 l 1
18 120 m 1
 367 120 l 1
 367 0 l 1
 18 0 l 1
 18 120 l 1
18 538 m 1
 367 538 l 1
 367 418 l 1
 18 418 l 1
 18 538 l 1
EndSplineSet
Validated: 1
EndChar

StartChar: uni1EBD
Encoding: 7869 7869 380
Width: 375
GlyphClass: 2
Flags: HW
LayerCount: 2
Fore
SplineSet
31 675 m 2
 56 707 93 728 137 728 c 0
 195 728 222 686 245 686 c 0
 250 686 255 690 258 694 c 2
 280 723 l 1
 377 650 l 1
 354 622 l 2
 329 590 292 568 248 568 c 0
 190 568 162 608 139 608 c 0
 134 608 130 606 127 602 c 2
 105 573 l 1
 8 646 l 1
 31 675 l 2
22 135 m 1
 22 402 l 1
 144 402 l 1
 144 135 l 1
 22 135 l 1
160 332 m 1
 329 332 l 1
 329 212 l 1
 160 212 l 1
 160 332 l 1
18 120 m 1
 367 120 l 1
 367 0 l 1
 18 0 l 1
 18 120 l 1
18 538 m 1
 367 538 l 1
 367 418 l 1
 18 418 l 1
 18 538 l 1
EndSplineSet
Validated: 1
EndChar

StartChar: Ygrave
Encoding: 7922 7922 381
Width: 503
GlyphClass: 2
Flags: HW
LayerCount: 2
Fore
SplineSet
356 643 m 1
 336 569 l 1
 125 606 l 1
 156 727 l 1
 356 643 l 1
2 538 m 1
 144 538 l 1
 313 231 l 1
 313 0 l 1
 190 0 l 1
 190 218 l 1
 2 538 l 1
327 241 m 1
 261 358 l 1
 359 538 l 1
 502 538 l 1
 327 241 l 1
EndSplineSet
Validated: 1
EndChar

StartChar: ygrave
Encoding: 7923 7923 382
Width: 503
GlyphClass: 2
Flags: HW
LayerCount: 2
Fore
SplineSet
356 643 m 1
 336 569 l 1
 125 606 l 1
 156 727 l 1
 356 643 l 1
2 538 m 1
 144 538 l 1
 313 231 l 1
 313 0 l 1
 190 0 l 1
 190 218 l 1
 2 538 l 1
327 241 m 1
 261 358 l 1
 359 538 l 1
 502 538 l 1
 327 241 l 1
EndSplineSet
Validated: 1
EndChar

StartChar: uni1EF8
Encoding: 7928 7928 383
Width: 503
GlyphClass: 2
Flags: HW
LayerCount: 2
Fore
SplineSet
90 675 m 2
 115 707 153 728 197 728 c 0
 255 728 281 686 304 686 c 0
 309 686 314 690 317 694 c 2
 339 723 l 1
 436 650 l 1
 414 622 l 2
 389 590 351 568 307 568 c 0
 249 568 222 608 199 608 c 0
 194 608 189 606 186 602 c 2
 165 573 l 1
 68 646 l 1
 90 675 l 2
2 538 m 1
 144 538 l 1
 313 231 l 1
 313 0 l 1
 190 0 l 1
 190 218 l 1
 2 538 l 1
327 241 m 1
 261 358 l 1
 359 538 l 1
 502 538 l 1
 327 241 l 1
EndSplineSet
Validated: 1
EndChar

StartChar: uni1EF9
Encoding: 7929 7929 384
Width: 503
GlyphClass: 2
Flags: HW
LayerCount: 2
Fore
SplineSet
90 675 m 2
 115 707 153 728 197 728 c 0
 255 728 281 686 304 686 c 0
 309 686 314 690 317 694 c 2
 339 723 l 1
 436 650 l 1
 414 622 l 2
 389 590 351 568 307 568 c 0
 249 568 222 608 199 608 c 0
 194 608 189 606 186 602 c 2
 165 573 l 1
 68 646 l 1
 90 675 l 2
2 538 m 1
 144 538 l 1
 313 231 l 1
 313 0 l 1
 190 0 l 1
 190 218 l 1
 2 538 l 1
327 241 m 1
 261 358 l 1
 359 538 l 1
 502 538 l 1
 327 241 l 1
EndSplineSet
Validated: 1
EndChar

StartChar: Euro
Encoding: 8364 8364 385
Width: 526
GlyphClass: 2
Flags: HW
LayerCount: 2
Fore
SplineSet
257 362 m 1
 389 362 l 1
 378 280 l 1
 230 280 l 1
 231 293 234 306 237 318 c 0
 242 334 249 350 257 362 c 1
231 248 m 1
 373 248 l 1
 362 163 l 1
 266 163 l 1
 249 183 235 213 231 248 c 1
92 163 m 1
 14 163 l 1
 25 248 l 1
 75 248 l 1
 77 218 83 190 92 163 c 1
74 280 m 1
 29 280 l 1
 40 362 l 1
 88 362 l 1
 85 351 81 340 79 329 c 0
 76 313 75 296 74 280 c 1
419 380 m 1
 397 409 366 422 329 422 c 0
 267 422 215 353 215 268 c 0
 215 183 267 115 329 115 c 1
 329 -3 l 1
 197 -3 89 117 89 268 c 0
 89 419 197 541 329 541 c 0
 409 541 471 509 512 457 c 1
 419 380 l 1
344 116 m 1
 375 119 401 133 419 158 c 1
 512 82 l 1
 473 33 417 1 344 -3 c 1
 344 116 l 1
EndSplineSet
Validated: 1
EndChar
